<?xml version='1.0' encoding='utf-8'?>
<svg xmlns="http://www.w3.org/2000/svg" width="1920" height="1080" viewBox="0 0 1920 1080" data-theme="dark">
  <style>
        @font-face {
            font-family: 'Inter';
            src: url('assets/fonts/Inter-Regular.ttf') format('truetype');
            font-weight: 400;
            font-style: normal;
            font-display: swap;
        }
        @font-face {
            font-family: 'Inter';
            src: url('assets/fonts/Inter-Bold.ttf') format('truetype');
            font-weight: 600;
            font-style: normal;
            font-display: swap;
        }
        @font-face {
            font-family: 'Inter';
            src: url('assets/fonts/Inter-Bold.ttf') format('truetype');
            font-weight: 800;
            font-style: normal;
            font-display: swap;
        }
        
:root {
    --background: #0f172a;
    --panel: #1e293b;
    --primary-text: #f1f5f9;
    --muted-text: #94a3b8;
    --inverse-text: #0f172a;
    --border: #334155;
    --shadow-color: #000000;
    --icon-pad-bg: #1e293b;
    --art-glow: #7dd3fc;
    --art-glow-opacity: 0.18;
    --art-sheen: #ffffff;
    --art-sheen-opacity: 0.18;
    --art-shadow: #000000;
    --art-shadow-opacity: 0.28;
    --art-muted-line: #64748b;
    --art-panel-tint: #1e293b;
    --font-family: 'Inter', 'Segoe UI', 'Kalam', Roboto, Helvetica, Arial, sans-serif;
    --radius-xl: 16px;
    --font-family-headline: 'Inter', 'Segoe UI', 'Kalam', Roboto, Helvetica, Arial, sans-serif;
    --font-family-body: 'Inter', 'Segoe UI', 'Kalam', Roboto, Helvetica, Arial, sans-serif;
    --font-heading: 'Inter', 'Segoe UI', 'Kalam', Roboto, Helvetica, Arial, sans-serif;
    --font-body: 'Inter', 'Segoe UI', 'Kalam', Roboto, Helvetica, Arial, sans-serif;
    --font-size-h1: 56px;
    --font-size-h2: 40px;
    --font-size-h3: 28px;
    --font-size-body: 24px;
    --font-size-caption: 18px;
    --secondary-text: var(--muted-text);
    --panel-border: var(--border);
    --font-weight-normal: 400;
    --font-weight-medium: 500;
    --font-weight-semibold: 600;
    --font-weight-bold: 700;
    --spacing-gutter-pct: 0.07;
    --spacing-top-pct: 0.15;
    --spacing-bottom-pct: 0.07;
    --spacing-title-y-pct: 0.055;
    --accent-1: #93c5fd;
    --accent-2: #86efac;
    --accent-3: #fcd34d;
    --accent-4: #f9a8d4;
    --accent-5: #c4b5fd;
    --accent-6: #a5f3fc;
}
:root[data-theme="dark"] {
    --background: #0f172a;
    --panel: #1e293b;
    --primary-text: #f1f5f9;
    --muted-text: #94a3b8;
    --inverse-text: #0f172a;
    --border: #334155;
    --shadow-color: #000000;
    --icon-pad-bg: #1e293b;
    --art-glow: #7dd3fc;
    --art-glow-opacity: 0.18;
    --art-sheen: #ffffff;
    --art-sheen-opacity: 0.18;
    --art-shadow: #000000;
    --art-shadow-opacity: 0.28;
    --art-muted-line: #64748b;
    --art-panel-tint: #1e293b;
    --accent-1: #93c5fd;
    --accent-2: #86efac;
    --accent-3: #fcd34d;
    --accent-4: #f9a8d4;
    --accent-5: #c4b5fd;
    --accent-6: #a5f3fc;
}
:root[data-theme="light"] {
    --background: #f8fafc;
    --panel: #ffffff;
    --primary-text: #0f172a;
    --muted-text: #64748b;
    --inverse-text: #ffffff;
    --border: #e2e8f0;
    --shadow-color: #000000;
    --icon-pad-bg: #1e293b;
    --art-glow: #0891b2;
    --art-glow-opacity: 0.10;
    --art-sheen: #ffffff;
    --art-sheen-opacity: 0.34;
    --art-shadow: #0f172a;
    --art-shadow-opacity: 0.14;
    --art-muted-line: #94a3b8;
    --art-panel-tint: #f1f5f9;
    --accent-1: #3b82f6;
    --accent-2: #22c55e;
    --accent-3: #f59e0b;
    --accent-4: #ec4899;
    --accent-5: #8b5cf6;
    --accent-6: #06b6d4;
}</style>
  <rect x="0" y="0" width="1.92E+3" height="1.08E+3" fill="#252a34" stroke="none" id="programmatic_background"/>
  <line id="HEADER_DECOR" x1="960.0" x2="1080.0" y1="135.0" y2="135.0" stroke="var(--accent-1)" stroke-width="6" stroke-linecap="round"/>
  <defs>
    <pattern id="svg681ca954-napkin-hatch" patternUnits="userSpaceOnUse" width="12" height="12">
      <path d="M -3 12 L 12 -3 M 0 15 L 15 0" fill="none" stroke="var(--primary-text)" stroke-width="1" stroke-opacity="0.05"/>
    </pattern>
    <filter id="svg681ca954-soft-shadow" x="-30%" y="-30%" width="160%" height="160%">
      <feDropShadow dx="0" dy="3" stdDeviation="6" flood-color="#000000" flood-opacity="0.20"/>
    </filter>
    <radialGradient id="svg681ca954-universal-edge-vignette" cx="50%" cy="50%" r="72%">
      <stop offset="0%" stop-color="var(--background)" stop-opacity="0"/>
      <stop offset="72%" stop-color="var(--background)" stop-opacity="0.12"/>
      <stop offset="100%" stop-color="var(--primary-text)" stop-opacity="0.08"/>
    </radialGradient>
    <linearGradient id="svg681ca954-universal-surface-sheen" x1="0%" y1="0%" x2="100%" y2="100%">
      <stop offset="0%" stop-color="var(--art-sheen)" stop-opacity="var(--art-sheen-opacity)"/>
      <stop offset="46%" stop-color="var(--art-sheen)" stop-opacity="0.035"/>
      <stop offset="100%" stop-color="var(--art-panel-tint)" stop-opacity="0.14"/>
    </linearGradient>
    <radialGradient id="svg681ca954-universal-icon-aura" cx="50%" cy="42%" r="64%">
      <stop offset="0%" stop-color="var(--art-glow)" stop-opacity="var(--art-glow-opacity)"/>
      <stop offset="100%" stop-color="var(--background)" stop-opacity="0"/>
    </radialGradient>
    <filter id="svg681ca954-text-glow" x="-20%" y="-20%" width="140%" height="140%">
      <feDropShadow dx="0" dy="0" stdDeviation="2" flood-color="#000000" flood-opacity="0.4"/>
    </filter>
    <filter id="svg681ca954-shadow" x="-30%" y="-30%" width="160%" height="160%">
      <feDropShadow dx="0" dy="2" stdDeviation="3" flood-color="#000000" flood-opacity="0.08"/>
      <feDropShadow dx="0" dy="6" stdDeviation="10" flood-color="#000000" flood-opacity="0.12"/>
    </filter>
    <marker id="svg681ca954-arrowhead" markerWidth="10" markerHeight="7" refX="9" refY="3.5" orient="auto" markerUnits="strokeWidth">
      <polygon points="0 0, 10 3.5, 0 7" fill="var(--muted-text)" opacity="0.6"/>
    </marker>
  </defs>
  <rect id="CANVAS_BG" width="100%" height="100%" fill="var(--background)"/>
  <rect width="100%" height="100%" fill="url(#svg681ca954-napkin-hatch)"/>
  <rect id="UNIVERSAL_EDGE_VIGNETTE" width="100%" height="100%" fill="url(#svg681ca954-universal-edge-vignette)" opacity="0.62"/>
  <text id="TITLE" x="960.0" y="59" text-anchor="middle" font-size="56" font-weight="800" fill="#f1f5f9" style="font-size: 60px; font-family: Inter, Segoe UI, Kalam, Roboto, Helvetica, Arial, sans-serif; font-weight: 700; letter-spacing:-1.2px;" data-final-font-size="60">
    <tspan x="960.0" dy="68.00px">The Human Cost of V-2 Technology</tspan>
  </text>
  <rect id="TITLE_FRAME" x="134" y="59" width="1652" height="103" fill="none"/>
  <line x1="687.0" y1="434.0" x2="768.0" y2="434.0" stroke="var(--muted-text)" stroke-width="4" stroke-dasharray="10 9" opacity="0.8"/>
  <circle cx="727.5" cy="434.0" r="34" fill="var(--panel)" stroke="var(--muted-text)" stroke-width="2"/>
  <text x="727.5" y="444.0" text-anchor="middle" font-size="34" font-weight="900" fill="var(--muted-text)">VS</text>
  <line x1="1152.0" y1="434.0" x2="1233.0" y2="434.0" stroke="var(--muted-text)" stroke-width="4" stroke-dasharray="10 9" opacity="0.8"/>
  <circle cx="1192.5" cy="434.0" r="34" fill="var(--panel)" stroke="var(--muted-text)" stroke-width="2"/>
  <text x="1192.5" y="444.0" text-anchor="middle" font-size="34" font-weight="900" fill="var(--muted-text)">VS</text>
  <line x1="882.0" y1="824.0" x2="1038.0" y2="824.0" stroke="var(--muted-text)" stroke-width="4" stroke-dasharray="10 9" opacity="0.8"/>
  <circle cx="960.0" cy="824.0" r="34" fill="var(--panel)" stroke="var(--muted-text)" stroke-width="2"/>
  <text x="960.0" y="834.0" text-anchor="middle" font-size="34" font-weight="900" fill="var(--muted-text)">VS</text>
  <g transform="translate(495.0, 280.0)" filter="url(#svg681ca954-soft-shadow)">
    <rect id="ITEM_1_BG" x="-200.0" y="0" width="400.0" height="360" rx="26" fill="var(--panel)" fill-opacity="0.95" stroke="var(--accent-1)" stroke-width="3"/>
    <rect x="-184.0" y="12" width="368.0" height="8" rx="4" fill="var(--accent-1)" fill-opacity="0.55"/>
    <circle id="ITEM_1_PAD" cx="0" cy="74" r="46" fill="var(--icon-pad-bg)" stroke="var(--primary-text)" opacity="0.9" fill-opacity="0.9" stroke-width="2"/>
    <circle id="ITEM_1_PAD_INNER" cx="0" cy="74" r="35.88" fill="var(--accent-3)" fill-opacity="0.22"/>
    <circle cx="0" cy="74" r="36" fill="none" stroke="var(--accent-1)" stroke-width="3" stroke-dasharray="6 4"/>
    <g id="ITEM_1_ICON" transform="translate(-34, 40)" data-icon-size="68" stroke-dasharray="6 4">
      <g transform="translate(-8.524444444444448,-8.52444444444445) scale(3.543703703703704)" vector-effect="non-scaling-stroke" fill="#f1f5f9" fill-opacity="1.0" stroke="none">
        <path fill="#f1f5f9" d="M20 19V7H4v12zm0-16a2 2 0 0 1 2 2v14a2 2 0 0 1-2 2H4a2 2 0 0 1-2-2V5a2 2 0 0 1 2-2zm-7 14v-2h5v2zm-3.42-4L5.57 9H8.4l3.3 3.3c.39.39.39 1.03 0 1.42L8.42 17H5.59z" vector-effect="non-scaling-stroke" stroke="none"/>
      </g>
    </g>
    <text id="ITEM_1_HEAD" x="0.0" y="138.0" text-anchor="middle" font-size="44" font-weight="800" fill="var(--accent-3)" data-bg-id="ITEM_1_BG" fill-opacity="1.0" stroke="none" style="font-size: 30px; font-family: Inter, Segoe UI, Kalam, Roboto, Helvetica, Arial, sans-serif; font-weight: 700; letter-spacing:-0.4px;" data-final-font-size="30">
      <tspan x="0.0" dy="42.25px">Technical Achievement</tspan>
    </text>
    <rect id="ITEM_1_HEAD_FRAME" x="-165.0" y="138" width="330.0" height="68" fill="none"/>
    <text id="ITEM_1_BODY" x="0.0" y="206.0" text-anchor="middle" font-size="27" fill="var(--primary-text)" data-bg-id="ITEM_1_BG" style="font-size: 26px; font-family: Inter, Segoe UI, Kalam, Roboto, Helvetica, Arial, sans-serif; font-weight: 400;" data-final-font-size="26">
      <tspan x="0.0" dy="39.64px">Advanced rocket propulsion and</tspan>
      <tspan x="0.0" dy="29.90px">guidance system capabilities</tspan>
    </text>
    <rect id="ITEM_1_BODY_FRAME" x="-190.0" y="206" width="380" height="154" fill="none"/>
  </g>
  <g transform="translate(960.0, 280.0)" filter="url(#svg681ca954-soft-shadow)">
    <rect id="ITEM_2_BG" x="-200.0" y="0" width="400.0" height="360" rx="26" fill="var(--panel)" fill-opacity="0.95" stroke="var(--accent-2)" stroke-width="3"/>
    <rect x="-184.0" y="12" width="368.0" height="8" rx="4" fill="var(--accent-2)" fill-opacity="0.55"/>
    <circle id="ITEM_2_PAD" cx="0" cy="74" r="46" fill="var(--icon-pad-bg)" stroke="var(--primary-text)" opacity="0.9" fill-opacity="0.9" stroke-width="2"/>
    <circle id="ITEM_2_PAD_INNER" cx="0" cy="74" r="35.88" fill="var(--accent-4)" fill-opacity="0.22"/>
    <circle cx="0" cy="74" r="36" fill="none" stroke="var(--accent-2)" stroke-width="3" stroke-dasharray="6 4"/>
    <g id="ITEM_2_ICON" transform="translate(-34, 40)" data-icon-size="68" stroke-dasharray="6 4">
      <g transform="translate(-8.230442477876116,-6.325309734513278) scale(2.540176991150443)">
        <path d="M16.25 29.25C16.25 29.6642 15.9143 30 15.5 30C15.0858 30 14.75 29.6642 14.75 29.25V18.2847L6.35413 29.6945C6.10863 30.0281 5.63916 30.0996 5.30554 29.8541C4.97192 29.6086 4.90047 29.1391 5.14597 28.8055L13.8421 16.9877C13.3669 16.9119 13 16.4964 13 16C13 15.4505 13.4497 15 13.9983 15H14.75V11.75C14.75 11.3358 15.0858 11 15.5 11C15.9143 11 16.25 11.3358 16.25 11.75V15H17.0018C17.5504 15 18 15.4505 18 16C18 16.421 17.7361 16.7839 17.366 16.9306L26.1041 28.8055C26.3496 29.1391 26.2782 29.6086 25.9446 29.8541C25.6109 30.0996 25.1415 30.0281 24.896 29.6945L16.25 17.9449V29.25Z" fill="#7167A4"/>
        <path d="M3.22683 4.27809C2.6088 5.92946 3.30622 7.78583 4.80973 8.60757L5.74923 8.95918L7.99999 8.00013L8.99999 4.00013L8.19939 2.40199L7.26328 2.05165C5.5897 1.68436 3.84485 2.62671 3.22683 4.27809Z" fill="#AEDDFF"/>
        <path d="M22.8343 8.94678L27.5555 10.7137L29 13.0001L28 15.0001L25.7687 15.3837L21.0817 13.6296L20 10.5001L22.8343 8.94678Z" fill="#D3D3D3"/>
        <path d="M8.59557 3.94216L11.9373 3.80078L23.1846 8.01009L20.731 14.566L9.48157 10.3559L7.48633 7.72365L8.59557 3.94216Z" fill="#BEBEBE"/>
        <path d="M11.9459 3.80389L8.19965 2.40186L5.74609 8.95777L9.49233 10.3598L11.9459 3.80389Z" fill="#5235A6"/>
        <path d="M29.39 11.4001L27.5169 10.6991L25.7644 15.3819L27.6375 16.0829C28.1547 16.2765 28.731 16.0141 28.9246 15.4969L29.9761 12.6872C30.1697 12.1699 29.9073 11.5937 29.39 11.4001Z" fill="#5235A6"/>
      </g>
    </g>
    <text id="ITEM_2_HEAD" x="0.0" y="138.0" text-anchor="middle" font-size="44" font-weight="800" fill="var(--accent-4)" data-bg-id="ITEM_2_BG" fill-opacity="1.0" stroke="none" style="font-size: 30px; font-family: Inter, Segoe UI, Kalam, Roboto, Helvetica, Arial, sans-serif; font-weight: 700; letter-spacing:-0.4px;" data-final-font-size="30">
      <tspan x="0.0" dy="42.25px">Strategic Advantage</tspan>
    </text>
    <rect id="ITEM_2_HEAD_FRAME" x="-165.0" y="138" width="330.0" height="68" fill="none"/>
    <text id="ITEM_2_BODY" x="0.0" y="206.0" text-anchor="middle" font-size="27" fill="var(--primary-text)" data-bg-id="ITEM_2_BG" style="font-size: 26px; font-family: Inter, Segoe UI, Kalam, Roboto, Helvetica, Arial, sans-serif; font-weight: 400;" data-final-font-size="26">
      <tspan x="0.0" dy="33.66px">Accelerated American</tspan>
      <tspan x="0.0" dy="29.90px">spaceflight and ballistic</tspan>
      <tspan x="0.0" dy="29.90px">missile programs</tspan>
    </text>
    <rect id="ITEM_2_BODY_FRAME" x="-190.0" y="206" width="380" height="154" fill="none"/>
  </g>
  <g transform="translate(1425.0, 280.0)" filter="url(#svg681ca954-soft-shadow)">
    <rect id="ITEM_3_BG" x="-200.0" y="0" width="400.0" height="360" rx="26" fill="var(--panel)" fill-opacity="0.95" stroke="var(--accent-3)" stroke-width="3"/>
    <rect x="-184.0" y="12" width="368.0" height="8" rx="4" fill="var(--accent-3)" fill-opacity="0.55"/>
    <circle id="ITEM_3_PAD" cx="0" cy="74" r="46" fill="var(--icon-pad-bg)" stroke="var(--primary-text)" opacity="0.9" fill-opacity="0.9" stroke-width="2"/>
    <circle id="ITEM_3_PAD_INNER" cx="0" cy="74" r="35.88" fill="var(--accent-5)" fill-opacity="0.22"/>
    <circle cx="0" cy="74" r="36" fill="none" stroke="var(--accent-3)" stroke-width="3" stroke-dasharray="6 4"/>
    <g id="ITEM_3_ICON" transform="translate(-34, 40)" data-icon-size="68" stroke-dasharray="6 4">
      <g transform="translate(-7.005714285714289,-19.820000000000007) scale(2.562857142857143)">
        <path d="M27.8 30H4.2C3 30 2 29 2 27.8V14.2C2 13 3 12 4.2 12H27.7C29 12 30 13 30 14.2V27.7C30 29 29 30 27.8 30Z" fill="#26C9FC"/>
        <path d="M26.4046 28H14.5954C14.2977 28 14 27.8065 14 27.4194V25.5806C14 25.2903 14.1985 25 14.5954 25H26.4046C26.7023 25 27 25.1935 27 25.5806V27.4194C27 27.7097 26.7023 28 26.4046 28Z" fill="#F4F4F4"/>
        <path d="M11.0244 23H8H4.97561C4.5834 23 4.19119 23.7414 4.05253 23.3282C4.01873 23.2275 4 23.1176 4 23V15C4 14.5 4.39024 14 4.97561 14H11.0244C11.5122 14 12 14.4 12 15V23C12 23.0723 11.9943 23.1417 11.9833 23.2078C11.9031 23.6906 11.5392 23 11.0244 23Z" fill="white"/>
        <path d="M14.5 15C14.2239 15 14 15.2239 14 15.5C14 15.7761 14.2239 16 14.5 16H26.5C26.7762 16 27 15.7761 27 15.5C27 15.2239 26.7762 15 26.5 15H14.5ZM14 18.5C14 18.2239 14.2239 18 14.5 18H26.5C26.7762 18 27 18.2239 27 18.5C27 18.7761 26.7762 19 26.5 19H14.5C14.2239 19 14 18.7761 14 18.5ZM14 21.5C14 21.2239 14.2239 21 14.5 21H26.5C26.7762 21 27 21.2239 27 21.5C27 21.7761 26.7762 22 26.5 22H14.5C14.2239 22 14 21.7761 14 21.5Z" fill="#0074BA"/>
        <path d="M8.47558 15H7.49655C6.41961 15 5.63639 15.9204 5.73429 17.0454L5.77487 17.5752C5.47114 17.6487 5.24476 17.9331 5.24476 18.2727C5.24476 18.6516 5.52646 18.9617 5.88298 18.9869L5.9301 19.6022C6.00705 20.2453 6.4469 20.8252 7.05949 21.044C5.78604 21.3272 4.69582 22.1278 4 23.225C4.11056 23.6986 4.53077 24 4.95098 24H11.021C11.6084 24 12 23.5909 12 22.9773C11.2826 21.9798 10.2241 21.2648 9.00547 21.0223C9.56938 20.8044 9.96902 20.2886 10.042 19.6022L10.0891 18.9869C10.4457 18.9617 10.7273 18.6515 10.7273 18.2727C10.7273 17.9331 10.501 17.6487 10.1973 17.5752L10.2378 17.0454C10.3357 15.9204 9.45461 15 8.47558 15Z" fill="#321B41"/>
        <path d="M15.5 27H25.5C25.7 27 26 26.8 26 26.5C26 26.2 25.8 26 25.5 26H15.5C15.2 26 15 26.2 15 26.5C15 26.8 15.2 27 15.5 27Z" fill="#321B41"/>
      </g>
    </g>
    <text id="ITEM_3_HEAD" x="0.0" y="138.0" text-anchor="middle" font-size="44" font-weight="800" fill="var(--accent-5)" data-bg-id="ITEM_3_BG" fill-opacity="1.0" stroke="none" style="font-size: 30px; font-family: Inter, Segoe UI, Kalam, Roboto, Helvetica, Arial, sans-serif; font-weight: 700; letter-spacing:-0.4px;" data-final-font-size="30">
      <tspan x="0.0" dy="42.25px">Moral Liability</tspan>
    </text>
    <rect id="ITEM_3_HEAD_FRAME" x="-165.0" y="138" width="330.0" height="68" fill="none"/>
    <text id="ITEM_3_BODY" x="0.0" y="206.0" text-anchor="middle" font-size="27" fill="var(--primary-text)" data-bg-id="ITEM_3_BG" style="font-size: 26px; font-family: Inter, Segoe UI, Kalam, Roboto, Helvetica, Arial, sans-serif; font-weight: 400;" data-final-font-size="26">
      <tspan x="0.0" dy="33.66px">Recruited specialists with</tspan>
      <tspan x="0.0" dy="29.90px">records of Nazi party</tspan>
      <tspan x="0.0" dy="29.90px">affiliation</tspan>
    </text>
    <rect id="ITEM_3_BODY_FRAME" x="-190.0" y="206" width="380" height="154" fill="none"/>
  </g>
  <g transform="translate(690.0, 670.0)" filter="url(#svg681ca954-soft-shadow)">
    <rect id="ITEM_4_BG" x="-200.0" y="0" width="400.0" height="360" rx="26" fill="var(--panel)" fill-opacity="0.95" stroke="var(--accent-4)" stroke-width="3"/>
    <rect x="-184.0" y="12" width="368.0" height="8" rx="4" fill="var(--accent-4)" fill-opacity="0.55"/>
    <circle id="ITEM_4_PAD" cx="0" cy="74" r="46" fill="var(--icon-pad-bg)" stroke="var(--primary-text)" opacity="0.9" fill-opacity="0.9" stroke-width="2"/>
    <circle id="ITEM_4_PAD_INNER" cx="0" cy="74" r="35.88" fill="var(--accent-6)" fill-opacity="0.22"/>
    <circle cx="0" cy="74" r="36" fill="none" stroke="var(--accent-4)" stroke-width="3" stroke-dasharray="6 4"/>
    <g id="ITEM_4_ICON" transform="translate(-34, 40)" data-icon-size="68" stroke-dasharray="6 4">
      <g transform="translate(-4.272000000000004,-4.870000000000003) scale(0.14950000000000002)" vector-effect="non-scaling-stroke" fill="#f1f5f9" fill-opacity="1.0" stroke="none">
        <path fill="#f1f5f9" d="m109.813 23.5l1.468 24.844c-7.493 3.44-14.667 7.408-21.436 11.968C77.932 54.117 29.25 24.376 29.25 24.376l26.438 68.563c-18.827 25.903-24.476 56.148-20.5 87.5a139.4 139.4 0 0 0-8.157 32.75c-4.28 34.82 4.443 73.208 29.564 111.78c-11.01 17.4-35.188 53.344-35.188 53.344l61.22-19.875c1.98 2.18 3.998 4.36 6.093 6.532c31.825 33.022 64.816 56.735 97.343 72.436c-1.357 21.98-4.532 59.906-4.532 59.906l40.532-45.656c34.34 10.635 67.452 12.538 97.282 7.22c8.957 1.915 17.79 3.232 26.437 3.874c26.46 1.964 51.463-2.464 72.283-15.5a93 93 0 0 0 5.687-3.844c15.444 4.942 64.094 23.25 64.094 23.25l-34.906-57.062c4.48-8.064 8.3-17.044 11.375-26.97c9.51-30.692 13.66-59.886 13.375-87.374c.002-.02-.003-.042 0-.063c4.158-29.67.89-60.38-8.282-89.562a238 238 0 0 0-12.375-31.344c15.212-13.58 32.595-28.75 32.595-28.75l-47.5 2.032c-8.474-13.175-18.222-25.552-29.094-36.843c5.347-17.464 21.908-64.907 21.908-64.907l-55.25 36.343c-.262-.183-.52-.38-.782-.562c-24.558-17.015-52.748-28.888-83.125-33.25c.924-11.743 1.72-21.625 1.72-21.625l-17.406 19.593c-31.27-10.284-63.304-15.307-93.656-14.47c-21.283.588-41.732 4.05-60.532 10.595C117.282 32.32 109.812 23.5 109.812 23.5zm84.75 28.28c8.26.09 16.652.658 25.125 1.626c-23.352 6.245-43.81 15.013-61.438 25.75c-1.82-1.457-9.677-10.352-18.53-20.594c15.102-4.23 31.386-6.447 48.31-6.75c2.168-.038 4.345-.055 6.532-.03zm68.687 13.5l-11.938 13.44a214 214 0 0 0-35.562-4.75c4.397-1.344 8.9-2.63 13.563-3.782c11.515-2.845 22.86-4.438 33.937-4.907zM112.5 69.126l1.53 26.344a182 182 0 0 0-11.624 6.5c-19.415 11.843-36.164 27.058-49 44.843c2.444-17.23 9.253-33.295 21.157-47.72C84.933 86.528 97.823 76.6 112.5 69.126m181.438 3.406a304 304 0 0 1 30.53 14.345l-4.562 19.28c-8.983-5.375-18.067-10.048-27.22-14.03c.283-5.274.724-12.21 1.252-19.594zm-81.782 19.69c33.724 1.065 69.257 11.17 103.25 32.874l-4.656 19.594s6.89-5.636 15.22-12.438c21.385 15.353 42.013 35.488 61 61.094c6.913 9.325 12.885 18.596 18.03 27.75c-11.63 10.287-22.28 19.594-22.28 19.594l31.5-1.344c7.023 15.705 11.562 31.02 13.905 45.72c-16.35 8.71-59 29.373-59 29.373l59.625 13.875c-3.29 23.663-12.567 44.827-26.53 62.375c-19.992 15.673-45.71 28.626-78.095 37.625c-14.812-16.555-37.688-43.125-37.688-43.125l2.594 45.032c-31.706-11.987-64.888-30.877-95.874-54.283c6.14-19.402 20.97-61.843 20.97-61.843l-53.314 35.062c-26.48-23.94-50.176-50.712-68.562-78.156c-.16-.976-.29-1.96-.438-2.938c21.096-4.256 50.813-9.75 50.813-9.75l-52.938-28.75c.747-17.35 3.87-34.413 9.532-50.625l24.186 7.75l-17.625-23.718c.764-1.607 1.526-3.2 2.345-4.782c12.316-23.79 30.94-45.024 57.156-61.563c1.988-.446 3.987-.868 6-1.25c15.965 10.75 53.22 37.75 53.22 37.75L212.156 92.22zm144.844 15c31.624 22.824 58.832 52.246 77.188 87.5c-3.304 3.178-8.728 8.14-14.907 13.686c-5.072-8.723-10.825-17.47-17.31-26.22c-18.905-25.494-39.566-45.996-61.158-62.03c5.793-4.68 11.46-9.222 16.188-12.937zm-243.78 10.093a172 172 0 0 0-19.876 28.906l-6.688-9c7.668-7.166 16.218-13.62 25.5-19.282c.35-.214.71-.414 1.063-.626zm-50.876 49.843l19.062 6.094c-6.742 19.452-10.13 39.89-10.53 60.47c-.04-.085-.086-.168-.126-.25c-8.156-17.232-13.81-34.135-16.53-50.376c2.316-5.497 5.046-10.808 8.124-15.938m-17.25 53.188a239 239 0 0 0 8.78 21.125c5.833 12.32 12.784 24.582 20.657 36.655a236 236 0 0 0 3.72 16.844a239.5 239.5 0 0 0 21.72 54.655c-43.19-45.79-58.08-90.447-54.876-129.28zm406.03 17.437c4.823 17.464 7.594 36 7.938 55.532c-2.115 14.63-6.24 28.865-12.562 42.375c.395-2.295.74-4.602 1.03-6.937c3.503-28.023-.497-58.67-13.374-90.25l16.97-.72zM106.72 320.688c21.512 24.926 46.452 48.21 73 68.5c24.674 18.86 50.713 35.157 76.81 47.625c-32.876-2.213-62.096-14.434-86.81-33.28c-27.445-20.928-49.14-50.188-63-82.844zM449 368.47a318 318 0 0 1-2.53 8.624c-8.284 26.728-21.605 43.83-38.345 54.312c-12.555 7.862-27.34 12.04-43.875 12.906a158 158 0 0 0 17.313-9.875c12.958-8.522 24.402-18.87 34.03-30.687c13.3-10.688 24.41-22.53 33.407-35.28" vector-effect="non-scaling-stroke" stroke="none"/>
      </g>
    </g>
    <text id="ITEM_4_HEAD" x="0.0" y="138.0" text-anchor="middle" font-size="44" font-weight="800" fill="var(--accent-6)" data-bg-id="ITEM_4_BG" fill-opacity="1.0" stroke="none" style="font-size: 30px; font-family: Inter, Segoe UI, Kalam, Roboto, Helvetica, Arial, sans-serif; font-weight: 700; letter-spacing:-0.4px;" data-final-font-size="30">
      <tspan x="0.0" dy="42.25px">Forced Labor Deaths</tspan>
    </text>
    <rect id="ITEM_4_HEAD_FRAME" x="-165.0" y="138" width="330.0" height="68" fill="none"/>
    <text id="ITEM_4_BODY" x="0.0" y="206.0" text-anchor="middle" font-size="27" fill="var(--primary-text)" data-bg-id="ITEM_4_BG" style="font-size: 26px; font-family: Inter, Segoe UI, Kalam, Roboto, Helvetica, Arial, sans-serif; font-weight: 400;" data-final-font-size="26">
      <tspan x="0.0" dy="33.66px">Thousands of concentration-</tspan>
      <tspan x="0.0" dy="29.90px">camp workers died</tspan>
      <tspan x="0.0" dy="29.90px">during production</tspan>
    </text>
    <rect id="ITEM_4_BODY_FRAME" x="-190.0" y="206" width="380" height="154" fill="none"/>
  </g>
  <g transform="translate(1230.0, 670.0)" filter="url(#svg681ca954-soft-shadow)">
    <rect id="ITEM_5_BG" x="-200.0" y="0" width="400.0" height="360" rx="26" fill="var(--panel)" fill-opacity="0.95" stroke="var(--accent-5)" stroke-width="3"/>
    <rect x="-184.0" y="12" width="368.0" height="8" rx="4" fill="var(--accent-5)" fill-opacity="0.55"/>
    <circle id="ITEM_5_PAD" cx="0" cy="74" r="46" fill="var(--icon-pad-bg)" stroke="var(--primary-text)" opacity="0.9" fill-opacity="0.9" stroke-width="2"/>
    <circle id="ITEM_5_PAD_INNER" cx="0" cy="74" r="35.88" fill="var(--accent-1)" fill-opacity="0.22"/>
    <circle cx="0" cy="74" r="36" fill="none" stroke="var(--accent-5)" stroke-width="3" stroke-dasharray="6 4"/>
    <g id="ITEM_5_ICON" transform="translate(-34, 40)" data-icon-size="68" stroke-dasharray="6 4">
      <g transform="translate(-7.245233644859816,-10.5985046728972) scale(2.6826168224299067)">
        <path d="M21.5715 9.48787L28.1504 3.5643C28.3876 3.36098 28.7105 3.68388 28.5072 3.92109L22.5837 10.5L21.5715 9.48787Z" fill="#9B9B9B"/>
        <path d="M8.28525 26.6396L5.38351 23.7379L3.25928 25.8621L6.16102 28.7638L8.28525 26.6396Z" fill="#9B9B9B"/>
        <path d="M18.8605 7.70696C18.47 7.31643 17.8368 7.31643 17.4463 7.70696L16.1014 9.05191L15.9682 9.9551L15.0612 10.0921L14.0829 11.0704L13.9362 11.9871L13.0156 12.1377L12.103 13.0502L11.968 13.9554L11.059 14.0943L5.70696 19.4463C5.31643 19.8368 5.31643 20.47 5.70696 20.8605L11.1392 26.2927C11.5297 26.6833 12.1629 26.6833 12.5534 26.2927L24.2927 14.5534C24.6833 14.1629 24.6833 13.5297 24.2927 13.1392L23.0747 11.9212L23.9604 11.0355C24.3509 10.645 24.3509 10.0118 23.9604 9.62129L22.5462 8.20708C22.1557 7.81655 21.5225 7.81655 21.132 8.20708L20.2463 9.09274L18.8605 7.70696Z" fill="#AEDDFF"/>
        <path d="M16.107 9.04639L15.0464 10.107L16.2373 11.298C16.5302 11.5909 17.0051 11.5909 17.298 11.298C17.5909 11.0051 17.5909 10.5302 17.298 10.2373L16.107 9.04639Z" fill="#0074BA"/>
        <path d="M14.0767 11.0767L15.2373 12.2373C15.5302 12.5302 15.5302 13.0051 15.2373 13.298C14.9444 13.5909 14.4696 13.5909 14.1767 13.298L13.0161 12.1374L14.0767 11.0767Z" fill="#0074BA"/>
        <path d="M12.107 13.0464L13.298 14.2373C13.5909 14.5302 13.5909 15.0051 13.298 15.298C13.0051 15.5909 12.5302 15.5909 12.2373 15.298L11.0464 14.107L12.107 13.0464Z" fill="#0074BA"/>
        <path d="M5.39339 19.5356C5.00286 19.145 4.3697 19.145 3.97917 19.5356L3.27207 20.2427C2.88154 20.6332 2.88154 21.2664 3.27207 21.6569L10.3431 28.728C10.7337 29.1185 11.3668 29.1185 11.7573 28.728L12.4645 28.0209C12.855 27.6303 12.855 26.9972 12.4645 26.6066L5.39339 19.5356Z" fill="#5092FF"/>
        <path d="M3.50933 25.2585C3.21644 24.9656 2.74157 24.9656 2.44867 25.2585C2.15578 25.5513 2.15578 26.0262 2.44867 26.3191L5.63065 29.5011C5.92355 29.794 6.39842 29.794 6.69131 29.5011C6.98421 29.2082 6.98421 28.7333 6.69131 28.4404L3.50933 25.2585Z" fill="#5092FF"/>
      </g>
    </g>
    <text id="ITEM_5_HEAD" x="0.0" y="138.0" text-anchor="middle" font-size="44" font-weight="800" fill="var(--accent-1)" data-bg-id="ITEM_5_BG" fill-opacity="1.0" stroke="none" style="font-size: 30px; font-family: Inter, Segoe UI, Kalam, Roboto, Helvetica, Arial, sans-serif; font-weight: 700; letter-spacing:-0.4px;" data-final-font-size="30">
      <tspan x="0.0" dy="42.25px">Criminal Experiments</tspan>
    </text>
    <rect id="ITEM_5_HEAD_FRAME" x="-165.0" y="138" width="330.0" height="68" fill="none"/>
    <text id="ITEM_5_BODY" x="0.0" y="206.0" text-anchor="middle" font-size="27" fill="var(--primary-text)" data-bg-id="ITEM_5_BG" style="font-size: 26px; font-family: Inter, Segoe UI, Kalam, Roboto, Helvetica, Arial, sans-serif; font-weight: 400;" data-final-font-size="26">
      <tspan x="0.0" dy="33.66px">Aviation medicine entangled</tspan>
      <tspan x="0.0" dy="29.90px">with unethical</tspan>
      <tspan x="0.0" dy="29.90px">prisoner testing</tspan>
    </text>
    <rect id="ITEM_5_BODY_FRAME" x="-190.0" y="206" width="380" height="154" fill="none"/>
  </g>
</svg>
