<?xml version='1.0' encoding='utf-8'?>
<svg xmlns="http://www.w3.org/2000/svg" width="1920" height="1080" viewBox="0 0 1920 1080" data-theme="dark">
  <style>
        @font-face {
            font-family: 'Inter';
            src: url('assets/fonts/Inter-Regular.ttf') format('truetype');
            font-weight: 400;
            font-style: normal;
            font-display: swap;
        }
        @font-face {
            font-family: 'Inter';
            src: url('assets/fonts/Inter-Bold.ttf') format('truetype');
            font-weight: 600;
            font-style: normal;
            font-display: swap;
        }
        @font-face {
            font-family: 'Inter';
            src: url('assets/fonts/Inter-Bold.ttf') format('truetype');
            font-weight: 800;
            font-style: normal;
            font-display: swap;
        }
        
:root {
    --background: #0f172a;
    --panel: #1e293b;
    --primary-text: #f1f5f9;
    --muted-text: #94a3b8;
    --inverse-text: #0f172a;
    --border: #334155;
    --shadow-color: #000000;
    --icon-pad-bg: #1e293b;
    --art-glow: #7dd3fc;
    --art-glow-opacity: 0.18;
    --art-sheen: #ffffff;
    --art-sheen-opacity: 0.18;
    --art-shadow: #000000;
    --art-shadow-opacity: 0.28;
    --art-muted-line: #64748b;
    --art-panel-tint: #1e293b;
    --font-family: 'Inter', 'Segoe UI', 'Kalam', Roboto, Helvetica, Arial, sans-serif;
    --radius-xl: 16px;
    --font-family-headline: 'Inter', 'Segoe UI', 'Kalam', Roboto, Helvetica, Arial, sans-serif;
    --font-family-body: 'Inter', 'Segoe UI', 'Kalam', Roboto, Helvetica, Arial, sans-serif;
    --font-heading: 'Inter', 'Segoe UI', 'Kalam', Roboto, Helvetica, Arial, sans-serif;
    --font-body: 'Inter', 'Segoe UI', 'Kalam', Roboto, Helvetica, Arial, sans-serif;
    --font-size-h1: 56px;
    --font-size-h2: 40px;
    --font-size-h3: 28px;
    --font-size-body: 24px;
    --font-size-caption: 18px;
    --secondary-text: var(--muted-text);
    --panel-border: var(--border);
    --font-weight-normal: 400;
    --font-weight-medium: 500;
    --font-weight-semibold: 600;
    --font-weight-bold: 700;
    --spacing-gutter-pct: 0.07;
    --spacing-top-pct: 0.15;
    --spacing-bottom-pct: 0.07;
    --spacing-title-y-pct: 0.055;
    --accent-1: #93c5fd;
    --accent-2: #86efac;
    --accent-3: #fcd34d;
    --accent-4: #f9a8d4;
    --accent-5: #c4b5fd;
    --accent-6: #a5f3fc;
}
:root[data-theme="dark"] {
    --background: #0f172a;
    --panel: #1e293b;
    --primary-text: #f1f5f9;
    --muted-text: #94a3b8;
    --inverse-text: #0f172a;
    --border: #334155;
    --shadow-color: #000000;
    --icon-pad-bg: #1e293b;
    --art-glow: #7dd3fc;
    --art-glow-opacity: 0.18;
    --art-sheen: #ffffff;
    --art-sheen-opacity: 0.18;
    --art-shadow: #000000;
    --art-shadow-opacity: 0.28;
    --art-muted-line: #64748b;
    --art-panel-tint: #1e293b;
    --accent-1: #93c5fd;
    --accent-2: #86efac;
    --accent-3: #fcd34d;
    --accent-4: #f9a8d4;
    --accent-5: #c4b5fd;
    --accent-6: #a5f3fc;
}
:root[data-theme="light"] {
    --background: #f8fafc;
    --panel: #ffffff;
    --primary-text: #0f172a;
    --muted-text: #64748b;
    --inverse-text: #ffffff;
    --border: #e2e8f0;
    --shadow-color: #000000;
    --icon-pad-bg: #1e293b;
    --art-glow: #0891b2;
    --art-glow-opacity: 0.10;
    --art-sheen: #ffffff;
    --art-sheen-opacity: 0.34;
    --art-shadow: #0f172a;
    --art-shadow-opacity: 0.14;
    --art-muted-line: #94a3b8;
    --art-panel-tint: #f1f5f9;
    --accent-1: #3b82f6;
    --accent-2: #22c55e;
    --accent-3: #f59e0b;
    --accent-4: #ec4899;
    --accent-5: #8b5cf6;
    --accent-6: #06b6d4;
}</style>
  <rect x="0" y="0" width="1.92E+3" height="1.08E+3" fill="#252a34" stroke="none" id="programmatic_background"/>
  <line id="HEADER_DECOR" x1="960.0" x2="1080.0" y1="105.0" y2="105.0" stroke="var(--accent-1)" stroke-width="6" stroke-linecap="round"/>
  <defs>
    <pattern id="svg529b9bff-napkin-hatch" patternUnits="userSpaceOnUse" width="12" height="12">
      <path d="M -3 12 L 12 -3 M 0 15 L 15 0" fill="none" stroke="var(--primary-text)" stroke-width="1" stroke-opacity="0.05"/>
    </pattern>
    <filter id="svg529b9bff-shadow" x="-30%" y="-30%" width="160%" height="160%">
      <feDropShadow dx="0" dy="3" stdDeviation="6" flood-color="#000000" flood-opacity="0.10"/>
      <feDropShadow dx="0" dy="8" stdDeviation="12" flood-color="#000000" flood-opacity="0.16"/>
    </filter>
    <radialGradient id="svg529b9bff-universal-edge-vignette" cx="50%" cy="50%" r="72%">
      <stop offset="0%" stop-color="var(--background)" stop-opacity="0"/>
      <stop offset="72%" stop-color="var(--background)" stop-opacity="0.12"/>
      <stop offset="100%" stop-color="var(--primary-text)" stop-opacity="0.08"/>
    </radialGradient>
    <linearGradient id="svg529b9bff-universal-surface-sheen" x1="0%" y1="0%" x2="100%" y2="100%">
      <stop offset="0%" stop-color="var(--art-sheen)" stop-opacity="var(--art-sheen-opacity)"/>
      <stop offset="46%" stop-color="var(--art-sheen)" stop-opacity="0.035"/>
      <stop offset="100%" stop-color="var(--art-panel-tint)" stop-opacity="0.14"/>
    </linearGradient>
    <radialGradient id="svg529b9bff-universal-icon-aura" cx="50%" cy="42%" r="64%">
      <stop offset="0%" stop-color="var(--art-glow)" stop-opacity="var(--art-glow-opacity)"/>
      <stop offset="100%" stop-color="var(--background)" stop-opacity="0"/>
    </radialGradient>
    <linearGradient id="svg529b9bff-card-panel-sheen" x1="0%" y1="0%" x2="100%" y2="100%">
      <stop offset="0%" stop-color="var(--inverse-text)" stop-opacity="0.20"/>
      <stop offset="48%" stop-color="var(--inverse-text)" stop-opacity="0.04"/>
      <stop offset="100%" stop-color="var(--background)" stop-opacity="0.16"/>
    </linearGradient>
    <radialGradient id="svg529b9bff-card-icon-glow" cx="50%" cy="35%" r="62%">
      <stop offset="0%" stop-color="var(--inverse-text)" stop-opacity="0.22"/>
      <stop offset="100%" stop-color="var(--background)" stop-opacity="0"/>
    </radialGradient>
    <filter id="svg529b9bff-text-glow" x="-20%" y="-20%" width="140%" height="140%">
      <feDropShadow dx="0" dy="0" stdDeviation="2" flood-color="#000000" flood-opacity="0.4"/>
    </filter>
    <marker id="svg529b9bff-arrowhead" markerWidth="10" markerHeight="7" refX="9" refY="3.5" orient="auto" markerUnits="strokeWidth">
      <polygon points="0 0, 10 3.5, 0 7" fill="var(--muted-text)" opacity="0.6"/>
    </marker>
  </defs>
  <rect width="100%" height="100%" fill="var(--background)" id="CANVAS_BG"/>
  <rect width="100%" height="100%" fill="url(#svg529b9bff-napkin-hatch)"/>
  <rect id="UNIVERSAL_EDGE_VIGNETTE" width="100%" height="100%" fill="url(#svg529b9bff-universal-edge-vignette)" opacity="0.62"/>
  <text id="TITLE" x="960.0" y="59" font-size="54" font-weight="800" fill="#f1f5f9" text-anchor="middle" style="font-size: 60px; font-family: Inter, Segoe UI, Kalam, Roboto, Helvetica, Arial, sans-serif; font-weight: 700; letter-spacing:-1.2px;" data-final-font-size="60">
    <tspan x="960.0" dy="68.00px">The MiG-25 Foxbat Perception Gap</tspan>
  </text>
  <rect id="TITLE_FRAME" x="134" y="35" width="1652" height="78" fill="none"/>
  <rect x="120" y="150" width="1680" height="830" rx="40" fill="var(--panel)" fill-opacity="0.24" stroke="var(--muted-text)" stroke-width="2" opacity="0.94"/>
  <g id="DIAGRAM_MAIN">
    <g filter="url(#svg529b9bff-shadow)">
      <rect id="ITEM_1_BG" x="170" y="180" width="480" height="388" rx="28" fill="var(--panel)" fill-opacity="0.98" stroke="var(--accent-1)" stroke-width="3"/>
      <rect x="170" y="180" width="480" height="18" rx="9" fill="var(--accent-1)" fill-opacity="0.55"/>
      <rect x="295" y="216" width="230" height="30" rx="15" fill="var(--accent-1)" fill-opacity="0.10"/>
      <circle id="ITEM_1_PAD" cx="410" cy="262" r="54" fill="var(--icon-pad-bg)" opacity="0.95" fill-opacity="0.9" stroke-width="2" stroke="var(--primary-text)"/>
      <circle id="ITEM_1_PAD_INNER" cx="410" cy="262" r="42.12" fill="var(--accent-2)" fill-opacity="0.22"/>
      <circle cx="410" cy="262" r="42" fill="none" stroke="var(--accent-1)" stroke-width="3" stroke-dasharray="6 4"/>
      <g id="ITEM_1_ICON" transform="translate(373, 225)" data-icon-size="74">
        <g transform="translate(-12.920000000000005,-12.920000000000005) scale(4.16)" vector-effect="non-scaling-stroke" fill="#f1f5f9" fill-opacity="1.0" stroke="none">
          <path fill="#f1f5f9" d="M2 12c0 5.5 4.5 10 10 10s10-4.5 10-10S17.5 2 12 2S2 6.5 2 12m18 0c0 4.4-3.6 8-8 8s-8-3.6-8-8s3.6-8 8-8s8 3.6 8 8m-7.5-5l-.3 1.3l-.9-3.3c-1 .3-1.6 1.3-1.4 2.4l.3 1.3l-2.3-2.4c-.7.7-.7 2 0 2.7l1 1l-3.3-.9c-.3 1 .3 2.1 1.4 2.4l1.3.3l-3.3.9c.3 1 1.3 1.6 2.4 1.4l1.3-.3l-2.4 2.4c.8.7 2 .7 2.7 0l.9-.9l-.9 3.3c1 .3 2.1-.3 2.4-1.4l.3-1.3l.9 3.3c1-.3 1.6-1.3 1.4-2.4l-.3-1.3l2.4 2.4c.7-.8.7-2 0-2.7l-1-1.2l3.3.9c.3-1-.3-2.1-1.4-2.4l-1.3-.3l3.3-.9c-.3-1-1.3-1.6-2.4-1.4l-1.3.3l2.4-2.4c-.8-.7-2-.7-2.7 0l-.9 1l.9-3.3c-1.1-.2-2.2.4-2.5 1.5m1 5c0 .8-.7 1.5-1.5 1.5s-1.5-.7-1.5-1.5s.7-1.5 1.5-1.5s1.5.7 1.5 1.5" vector-effect="non-scaling-stroke" stroke="none"/>
        </g>
      </g>
      <text id="ITEM_1_HEAD" x="410.0" y="328.0" font-weight="800" font-size="28" fill="var(--accent-2)" text-anchor="middle" data-bg-id="ITEM_1_BG" fill-opacity="1.0" stroke="none" style="font-size: 30px; font-family: Inter, Segoe UI, Kalam, Roboto, Helvetica, Arial, sans-serif; font-weight: 700; letter-spacing:-0.4px;" data-final-font-size="30">
        <tspan x="410.0" dy="42.97px">Visible Performance</tspan>
      </text>
      <rect id="ITEM_1_HEAD_FRAME" x="230" y="328" width="360" height="56" fill="none"/>
      <text id="ITEM_1_BODY" x="410.0" y="378.0" font-size="18" fill="var(--primary-text)" text-anchor="middle" data-bg-id="ITEM_1_BG" style="font-size: 26px; font-family: Inter, Segoe UI, Kalam, Roboto, Helvetica, Arial, sans-serif; font-weight: 400;" data-final-font-size="26">
        <tspan x="410.0" dy="47.53px">Observers saw massive engines</tspan>
        <tspan x="410.0" dy="29.90px">and Mach 2.5 speeds</tspan>
      </text>
      <rect id="ITEM_1_BODY_FRAME" x="195" y="378" width="430" height="156" fill="none"/>
    </g>
    <g filter="url(#svg529b9bff-shadow)">
      <rect id="ITEM_2_BG" x="720" y="180" width="480" height="388" rx="28" fill="var(--panel)" fill-opacity="0.98" stroke="var(--accent-2)" stroke-width="3"/>
      <rect x="720" y="180" width="480" height="18" rx="9" fill="var(--accent-2)" fill-opacity="0.55"/>
      <rect x="845" y="216" width="230" height="30" rx="15" fill="var(--accent-2)" fill-opacity="0.10"/>
      <circle id="ITEM_2_PAD" cx="960" cy="262" r="54" fill="var(--icon-pad-bg)" opacity="0.95" fill-opacity="0.9" stroke-width="2" stroke="var(--primary-text)"/>
      <circle id="ITEM_2_PAD_INNER" cx="960" cy="262" r="42.12" fill="var(--accent-3)" fill-opacity="0.22"/>
      <circle cx="960" cy="262" r="42" fill="none" stroke="var(--accent-2)" stroke-width="3" stroke-dasharray="6 4"/>
      <g id="ITEM_2_ICON" transform="translate(923, 225)" data-icon-size="74">
        <g transform="translate(-12.574867256637173,-11.083893805309739) scale(2.9819469026548675)">
          <path d="M6.93848 21.5947C6.3135 22.0949 5.18873 25.8774 6.12647 28.5348" stroke="#636363" stroke-width="3" stroke-linecap="round"/>
          <path d="M6.93839 21.5953C6.31341 22.0954 7.22006 26.8785 9.31405 28.5355" stroke="#9B9B9B" stroke-width="3" stroke-linecap="round"/>
          <path d="M7.73309 16.2824C8.20206 18.2207 7.12015 23.1172 13.4027 27.9945" stroke="#636363" stroke-width="4" stroke-linecap="round"/>
          <path d="M7.73257 16.2823C8.2015 18.2207 10.4836 23.6608 18.2364 26.1932" stroke="#9B9B9B" stroke-width="4" stroke-linecap="round"/>
          <path d="M7.98283 13.3125C8.10107 13.7403 12.3282 23.3797 21.7378 22.8482" stroke="#636363" stroke-width="4" stroke-linecap="round"/>
          <path d="M10.7657 14.0619C11.1721 13.2178 15.2674 19.3769 24.0831 18.7204" stroke="#9B9B9B" stroke-width="5" stroke-linecap="round"/>
          <path d="M11.0156 10.9668C11.1734 11.294 17.8835 16.1066 26.4289 13.8909" stroke="#636363" stroke-width="5" stroke-linecap="round"/>
          <path d="M10.0459 9.21986C10.4373 9.38674 19.4466 12.3523 27.0429 8.15768" stroke="#9B9B9B" stroke-width="6" stroke-linecap="round"/>
          <path fill-rule="evenodd" clip-rule="evenodd" d="M29.3283 4.7537C30.0202 4.29805 30.2116 3.3678 29.756 2.67594C29.3003 1.98408 28.3701 1.7926 27.6782 2.24825C21.2659 6.47136 12.4631 6.07384 10.8778 6.00225C10.7648 5.99715 10.6885 5.9937 10.6523 5.9937C10.6275 5.9937 10.6028 5.99431 10.5783 5.9955C10.5531 5.99509 10.5279 5.99488 10.5026 5.99488C8.0838 5.99488 6.1106 7.90282 6.00556 10.296L3.0168 28.8407C2.92892 29.3859 3.29969 29.8992 3.84494 29.987C4.39019 30.0749 4.90344 29.7041 4.99132 29.1589L6.84852 17.6353C6.9997 18.166 7.23188 18.7105 7.57425 19.2455C7.77008 19.5516 8.17696 19.6408 8.48305 19.4448C8.78914 19.2488 8.87852 18.8418 8.68269 18.5358C8.35147 18.0181 8.15029 17.4862 8.03831 16.9718C8.41843 17.4142 8.8877 17.8321 9.46663 18.1835C9.77713 18.3719 10.1815 18.2726 10.3699 17.9616C10.5583 17.6507 10.4592 17.2458 10.1487 17.0573C9.59603 16.7218 9.16786 16.3057 8.83625 15.865C9.42589 16.2747 10.1377 16.6206 10.9831 16.8058C11.3379 16.8836 11.6884 16.6587 11.7659 16.3034C11.8434 15.9482 11.6186 15.5972 11.2638 15.5195C10.7258 15.4016 10.2541 15.1993 9.84373 14.9508C10.0588 14.9824 10.2788 14.9987 10.5026 14.9987C12.9887 14.9987 15.004 12.9831 15.004 10.4968C15.004 9.96987 14.9135 9.4641 14.7472 8.99417C15.4775 8.95609 16.2784 8.89451 17.1291 8.79865C20.7428 8.39146 25.3828 7.35217 29.3283 4.7537Z" fill="#BEBEBE"/>
          <path d="M9.50267 13.9648C11.9887 13.9648 14.0041 11.9492 14.0041 9.4629C14.0041 9.05725 13.9504 8.66412 13.8499 8.29024C13.7761 8.01602 14.1011 7.77661 14.2579 8.01334C14.7295 8.72514 15.0041 9.57879 15.0041 10.4966C15.0041 12.9829 12.9887 14.9985 10.5027 14.9985C9.5314 14.9985 8.63198 14.6909 7.89651 14.1677C7.66512 14.0031 7.91502 13.6864 8.18662 13.7694C8.6029 13.8964 9.0448 13.9648 9.50267 13.9648Z" fill="#DADADA"/>
        </g>
      </g>
      <text id="ITEM_2_HEAD" x="960.0" y="328.0" font-weight="800" font-size="28" fill="var(--accent-3)" text-anchor="middle" data-bg-id="ITEM_2_BG" fill-opacity="1.0" stroke="none" style="font-size: 30px; font-family: Inter, Segoe UI, Kalam, Roboto, Helvetica, Arial, sans-serif; font-weight: 700; letter-spacing:-0.4px;" data-final-font-size="30">
        <tspan x="960.0" dy="42.97px">External Dimensions</tspan>
      </text>
      <rect id="ITEM_2_HEAD_FRAME" x="780" y="328" width="360" height="56" fill="none"/>
      <text id="ITEM_2_BODY" x="960.0" y="378.0" font-size="18" fill="var(--primary-text)" text-anchor="middle" data-bg-id="ITEM_2_BG" style="font-size: 26px; font-family: Inter, Segoe UI, Kalam, Roboto, Helvetica, Arial, sans-serif; font-weight: 400;" data-final-font-size="26">
        <tspan x="960.0" dy="47.53px">Broad wings suggested high</tspan>
        <tspan x="960.0" dy="29.90px">maneuverability and fuel capacity</tspan>
      </text>
      <rect id="ITEM_2_BODY_FRAME" x="745" y="378" width="430" height="156" fill="none"/>
    </g>
    <g filter="url(#svg529b9bff-shadow)">
      <rect id="ITEM_3_BG" x="1270" y="180" width="480" height="388" rx="28" fill="var(--panel)" fill-opacity="0.98" stroke="var(--accent-3)" stroke-width="3"/>
      <rect x="1270" y="180" width="480" height="18" rx="9" fill="var(--accent-3)" fill-opacity="0.55"/>
      <rect x="1395" y="216" width="230" height="30" rx="15" fill="var(--accent-3)" fill-opacity="0.10"/>
      <circle id="ITEM_3_PAD" cx="1510" cy="262" r="54" fill="var(--icon-pad-bg)" opacity="0.95" fill-opacity="0.9" stroke-width="2" stroke="var(--primary-text)"/>
      <circle id="ITEM_3_PAD_INNER" cx="1510" cy="262" r="42.12" fill="var(--accent-4)" fill-opacity="0.22"/>
      <circle cx="1510" cy="262" r="42" fill="none" stroke="var(--accent-3)" stroke-width="3" stroke-dasharray="6 4"/>
      <g id="ITEM_3_ICON" transform="translate(1473, 225)" data-icon-size="74">
        <g transform="translate(-14.394128440366977,-11.302752293577987) scale(3.091376146788991)">
          <path d="M12.3136 12.7574L20.4999 11L25.7487 13.4646L11.6065 27.6067C9.6539 29.5593 6.48807 29.5593 4.53545 27.6067C2.58283 25.6541 2.58283 22.4882 4.53545 20.5356L5.59212 19.479L6.64879 19.5664V18.4223L9.84605 15.225L10.8949 15.1953V14.1762L12.3136 12.7574Z" fill="#C3EF3C"/>
          <path d="M21.8596 2.50428C21.2738 1.91849 20.3241 1.91849 19.7383 2.50428C19.1525 3.09007 19.1525 4.03982 19.7383 4.6256L20.0918 4.97916L15.1174 9.95364L15.5 11L14.1038 10.9672L12.3136 12.7574L25.7486 13.4645L27.1629 12.0502L27.5165 12.4038C28.1023 12.9896 29.052 12.9896 29.6378 12.4038C30.2236 11.818 30.2236 10.8682 29.6378 10.2825L21.8596 2.50428Z" fill="#AEDDFF"/>
          <path d="M15.1421 9.92896L17.4402 12.2271C17.7331 12.5199 17.7331 12.9948 17.4402 13.2877C17.1473 13.5806 16.6724 13.5806 16.3795 13.2877L14.0814 10.9896L15.1421 9.92896Z" fill="#008463"/>
          <path d="M10.8994 14.1716L13.1975 16.4697C13.4904 16.7626 13.4904 17.2375 13.1975 17.5304C12.9046 17.8233 12.4297 17.8233 12.1368 17.5304L9.83875 15.2323L10.8994 14.1716Z" fill="#008463"/>
          <path d="M8.95495 20.7123L6.65685 18.4142L5.59619 19.4748L7.89429 21.7729C8.18718 22.0658 8.66206 22.0658 8.95495 21.7729C9.24784 21.48 9.24784 21.0052 8.95495 20.7123Z" fill="#008463"/>
        </g>
      </g>
      <text id="ITEM_3_HEAD" x="1510.0" y="328.0" font-weight="800" font-size="28" fill="var(--accent-4)" text-anchor="middle" data-bg-id="ITEM_3_BG" fill-opacity="1.0" stroke="none" style="font-size: 30px; font-family: Inter, Segoe UI, Kalam, Roboto, Helvetica, Arial, sans-serif; font-weight: 700; letter-spacing:-0.4px;" data-final-font-size="30">
        <tspan x="1510.0" dy="42.97px">Hidden Limitations</tspan>
      </text>
      <rect id="ITEM_3_HEAD_FRAME" x="1330" y="328" width="360" height="56" fill="none"/>
      <text id="ITEM_3_BODY" x="1510.0" y="378.0" font-size="18" fill="var(--primary-text)" text-anchor="middle" data-bg-id="ITEM_3_BG" style="font-size: 26px; font-family: Inter, Segoe UI, Kalam, Roboto, Helvetica, Arial, sans-serif; font-weight: 400;" data-final-font-size="26">
        <tspan x="1510.0" dy="47.53px">Vacuum-tube electronics limited</tspan>
        <tspan x="1510.0" dy="29.90px">advanced electronic capabilities</tspan>
      </text>
      <rect id="ITEM_3_BODY_FRAME" x="1295" y="378" width="430" height="156" fill="none"/>
    </g>
    <g filter="url(#svg529b9bff-shadow)">
      <rect id="ITEM_4_BG" x="260" y="580" width="660" height="370" rx="30" fill="var(--panel)" fill-opacity="0.98" stroke="var(--accent-4)" stroke-width="3"/>
      <rect x="260" y="590" width="660" height="18" rx="9" fill="var(--accent-4)" fill-opacity="0.55"/>
      <rect x="430" y="628" width="320" height="32" rx="16" fill="var(--accent-4)" fill-opacity="0.10"/>
      <circle id="ITEM_4_PAD" cx="590" cy="684" r="54" fill="var(--icon-pad-bg)" opacity="0.95" fill-opacity="0.9" stroke-width="2" stroke="var(--primary-text)"/>
      <circle id="ITEM_4_PAD_INNER" cx="590" cy="684" r="42.12" fill="var(--accent-5)" fill-opacity="0.22"/>
      <circle cx="590" cy="684" r="42" fill="none" stroke="var(--accent-4)" stroke-width="3" stroke-dasharray="6 4"/>
      <g id="ITEM_4_ICON" transform="translate(551, 645)" data-icon-size="78">
        <g transform="translate(-6.689491525423733,-4.904745762711869) scale(3.8074576271186444)" vector-effect="non-scaling-stroke" stroke-width="2.65" stroke-linecap="round" stroke-linejoin="round" stroke-opacity="1.0">
          <path d="m12 14 4-4" vector-effect="non-scaling-stroke" fill="none" stroke="#f1f5f9"/>
          <path d="M3.34 19a10 10 0 1 1 17.32 0" vector-effect="non-scaling-stroke" fill="none" stroke="#f1f5f9"/>
        </g>
      </g>
      <text id="ITEM_4_HEAD" x="590.0" y="754.0" font-weight="800" font-size="30" fill="var(--accent-5)" text-anchor="middle" data-bg-id="ITEM_4_BG" fill-opacity="1.0" stroke="none" style="font-size: 30px; font-family: Inter, Segoe UI, Kalam, Roboto, Helvetica, Arial, sans-serif; font-weight: 700; letter-spacing:-0.4px;" data-final-font-size="30">
        <tspan x="590.0" dy="44.21px">Operational Constraints</tspan>
      </text>
      <rect id="ITEM_4_HEAD_FRAME" x="380" y="754" width="420" height="58" fill="none"/>
      <text id="ITEM_4_BODY" x="595.0" y="798.0" font-size="18" fill="var(--primary-text)" text-anchor="middle" data-bg-id="ITEM_4_BG" style="font-size: 26px; font-family: Inter, Segoe UI, Kalam, Roboto, Helvetica, Arial, sans-serif; font-weight: 400;" data-final-font-size="26">
        <tspan x="595.0" dy="45.54px">Sustained flight above limits risked severe</tspan>
        <tspan x="595.0" dy="29.90px">engine damage</tspan>
      </text>
      <rect id="ITEM_4_BODY_FRAME" x="360" y="798" width="470" height="148" fill="none"/>
    </g>
    <g filter="url(#svg529b9bff-shadow)">
      <rect id="ITEM_5_BG" x="1000" y="580" width="660" height="370" rx="30" fill="var(--panel)" fill-opacity="0.98" stroke="var(--accent-5)" stroke-width="3"/>
      <rect x="1000" y="590" width="660" height="18" rx="9" fill="var(--accent-5)" fill-opacity="0.55"/>
      <rect x="1170" y="628" width="320" height="32" rx="16" fill="var(--accent-5)" fill-opacity="0.10"/>
      <circle id="ITEM_5_PAD" cx="1330" cy="684" r="54" fill="var(--icon-pad-bg)" opacity="0.95" fill-opacity="0.9" stroke-width="2" stroke="var(--primary-text)"/>
      <circle id="ITEM_5_PAD_INNER" cx="1330" cy="684" r="42.12" fill="var(--accent-6)" fill-opacity="0.22"/>
      <circle cx="1330" cy="684" r="42" fill="none" stroke="var(--accent-5)" stroke-width="3" stroke-dasharray="6 4"/>
      <g id="ITEM_5_ICON" transform="translate(1291, 645)" data-icon-size="78">
        <g transform="translate(-9.137142857142862,-9.137142857142862) scale(3.008571428571429)">
          <path fill-rule="evenodd" clip-rule="evenodd" d="M11.0288 18.7533C11.5295 16.6032 13.5621 15 15.9953 15C18.4284 15 20.4611 16.6032 20.9718 18.7533C21.1019 19.3285 20.7715 19.9132 20.2008 20.1583C17.5273 21.2806 14.4733 21.2806 11.7998 20.1583C11.2191 19.9132 10.8986 19.3285 11.0288 18.7533ZM4 23.0493V19.0001C4.00002 19.3563 4.1858 19.7125 4.55732 19.8855L15.0912 24.8015L15.0912 24.8015C15.6636 25.0662 16.3364 25.0662 16.9088 24.8015L27.4427 19.8855C27.8142 19.7125 28 19.3563 28 19V23.0493C28 24.2312 27.2968 25.2968 26.1817 25.7908L17.311 29.7239C16.4772 30.092 15.5228 30.092 14.689 29.7239L5.81833 25.7908C4.71327 25.2968 4 24.2312 4 23.0493Z" fill="#533566"/>
          <path d="M4.55732 18.1145L15.0912 13.1985C15.6636 12.9338 16.3264 12.9338 16.9088 13.1985L27.4427 18.1145C28.1858 18.4606 28.1858 19.5395 27.4427 19.8855L16.9088 24.8015C16.3364 25.0662 15.6636 25.0662 15.0912 24.8015L4.55732 19.8855C3.81423 19.5395 3.81423 18.4606 4.55732 18.1145ZM11.0288 18.7533C10.8986 19.3285 11.2191 19.9132 11.7998 20.1583C14.4733 21.2806 17.5273 21.2806 20.2008 20.1583C20.7715 19.9132 21.1019 19.3285 20.9718 18.7533C20.4611 16.6032 18.4284 15 15.9953 15C13.5621 15 11.5295 16.6032 11.0288 18.7533Z" fill="#635994"/>
          <path d="M4.13259 18.5C4.22542 18.6602 4.367 18.7969 4.55732 18.8855L15.0912 23.8015C15.6636 24.0661 16.3364 24.0661 16.9088 23.8015L27.4427 18.8855C27.633 18.7969 27.7746 18.6602 27.8674 18.5C28.137 18.9651 27.9954 19.6281 27.4427 19.8855L16.9088 24.8015C16.3364 25.0661 15.6636 25.0661 15.0912 24.8015L4.55732 19.8855C4.00455 19.6281 3.86297 18.9651 4.13259 18.5Z" fill="#6B438B"/>
          <path d="M16 6C16.5523 6 17 6.44772 17 7V15.25C17 15.8023 16.5523 16 16 16C15.4477 16 15 15.8023 15 15.25V7C15 6.44772 15.4477 6 16 6Z" fill="#D3D3D3"/>
          <path d="M20.68 6.67999C20.68 9.26469 18.5847 11.36 16 11.36C13.4153 11.36 11.32 9.26469 11.32 6.67999C11.32 4.0953 13.4153 2 16 2C18.5847 2 20.68 4.0953 20.68 6.67999ZM6.45498 18.76C6.59498 18.12 7.17498 17.63 7.86498 17.63C8.55498 17.63 9.13498 18.12 9.28498 18.76C9.32498 18.93 9.22498 19.11 9.06498 19.18C8.30498 19.52 7.43498 19.52 6.67498 19.18C6.50498 19.11 6.41498 18.93 6.45498 18.76Z" fill="#F8312F"/>
        </g>
      </g>
      <text id="ITEM_5_HEAD" x="1330.0" y="754.0" font-weight="800" font-size="30" fill="var(--accent-6)" text-anchor="middle" data-bg-id="ITEM_5_BG" fill-opacity="1.0" stroke="none" style="font-size: 30px; font-family: Inter, Segoe UI, Kalam, Roboto, Helvetica, Arial, sans-serif; font-weight: 700; letter-spacing:-0.4px;" data-final-font-size="30">
        <tspan x="1330.0" dy="44.21px">Design Priority</tspan>
      </text>
      <rect id="ITEM_5_HEAD_FRAME" x="1120" y="754" width="420" height="58" fill="none"/>
      <text id="ITEM_5_BODY" x="1335.0" y="798.0" font-size="18" fill="var(--primary-text)" text-anchor="middle" data-bg-id="ITEM_5_BG" style="font-size: 26px; font-family: Inter, Segoe UI, Kalam, Roboto, Helvetica, Arial, sans-serif; font-weight: 400;" data-final-font-size="26">
        <tspan x="1335.0" dy="45.54px">Optimized for rapid climbs rather</tspan>
        <tspan x="1335.0" dy="29.90px">than close-in maneuvering</tspan>
      </text>
      <rect id="ITEM_5_BODY_FRAME" x="1100" y="798" width="470" height="148" fill="none"/>
    </g>
  </g>
</svg>
