<?xml version='1.0' encoding='utf-8'?>
<svg xmlns="http://www.w3.org/2000/svg" width="1920" height="1080" viewBox="0 0 1920 1080" data-theme="dark">
  <style>
        @font-face {
            font-family: 'Inter';
            src: url('assets/fonts/Inter-Regular.ttf') format('truetype');
            font-weight: 400;
            font-style: normal;
            font-display: swap;
        }
        @font-face {
            font-family: 'Inter';
            src: url('assets/fonts/Inter-Bold.ttf') format('truetype');
            font-weight: 600;
            font-style: normal;
            font-display: swap;
        }
        @font-face {
            font-family: 'Inter';
            src: url('assets/fonts/Inter-Bold.ttf') format('truetype');
            font-weight: 800;
            font-style: normal;
            font-display: swap;
        }
        
:root {
    --background: #0f172a;
    --panel: #1e293b;
    --primary-text: #f1f5f9;
    --muted-text: #94a3b8;
    --inverse-text: #0f172a;
    --border: #334155;
    --shadow-color: #000000;
    --icon-pad-bg: #1e293b;
    --art-glow: #7dd3fc;
    --art-glow-opacity: 0.18;
    --art-sheen: #ffffff;
    --art-sheen-opacity: 0.18;
    --art-shadow: #000000;
    --art-shadow-opacity: 0.28;
    --art-muted-line: #64748b;
    --art-panel-tint: #1e293b;
    --font-family: 'Inter', 'Segoe UI', 'Kalam', Roboto, Helvetica, Arial, sans-serif;
    --radius-xl: 16px;
    --font-family-headline: 'Inter', 'Segoe UI', 'Kalam', Roboto, Helvetica, Arial, sans-serif;
    --font-family-body: 'Inter', 'Segoe UI', 'Kalam', Roboto, Helvetica, Arial, sans-serif;
    --font-heading: 'Inter', 'Segoe UI', 'Kalam', Roboto, Helvetica, Arial, sans-serif;
    --font-body: 'Inter', 'Segoe UI', 'Kalam', Roboto, Helvetica, Arial, sans-serif;
    --font-size-h1: 56px;
    --font-size-h2: 40px;
    --font-size-h3: 28px;
    --font-size-body: 24px;
    --font-size-caption: 18px;
    --secondary-text: var(--muted-text);
    --panel-border: var(--border);
    --font-weight-normal: 400;
    --font-weight-medium: 500;
    --font-weight-semibold: 600;
    --font-weight-bold: 700;
    --spacing-gutter-pct: 0.07;
    --spacing-top-pct: 0.15;
    --spacing-bottom-pct: 0.07;
    --spacing-title-y-pct: 0.055;
    --accent-1: #fbbf24;
    --accent-2: #fb923c;
    --accent-3: #f87171;
    --accent-4: #a3e635;
    --accent-5: #4ade80;
    --accent-6: #d4a574;
}
:root[data-theme="dark"] {
    --background: #0f172a;
    --panel: #1e293b;
    --primary-text: #f1f5f9;
    --muted-text: #94a3b8;
    --inverse-text: #0f172a;
    --border: #334155;
    --shadow-color: #000000;
    --icon-pad-bg: #1e293b;
    --art-glow: #7dd3fc;
    --art-glow-opacity: 0.18;
    --art-sheen: #ffffff;
    --art-sheen-opacity: 0.18;
    --art-shadow: #000000;
    --art-shadow-opacity: 0.28;
    --art-muted-line: #64748b;
    --art-panel-tint: #1e293b;
    --accent-1: #fbbf24;
    --accent-2: #fb923c;
    --accent-3: #f87171;
    --accent-4: #a3e635;
    --accent-5: #4ade80;
    --accent-6: #d4a574;
}
:root[data-theme="light"] {
    --background: #f8fafc;
    --panel: #ffffff;
    --primary-text: #0f172a;
    --muted-text: #64748b;
    --inverse-text: #ffffff;
    --border: #e2e8f0;
    --shadow-color: #000000;
    --icon-pad-bg: #1e293b;
    --art-glow: #0891b2;
    --art-glow-opacity: 0.10;
    --art-sheen: #ffffff;
    --art-sheen-opacity: 0.34;
    --art-shadow: #0f172a;
    --art-shadow-opacity: 0.14;
    --art-muted-line: #94a3b8;
    --art-panel-tint: #f1f5f9;
    --accent-1: #d97706;
    --accent-2: #ea580c;
    --accent-3: #dc2626;
    --accent-4: #65a30d;
    --accent-5: #16a34a;
    --accent-6: #92400e;
}</style>
  <rect x="0" y="0" width="1.92E+3" height="1.08E+3" fill="#252a34" stroke="none" id="programmatic_background"/>
  <line id="HEADER_DECOR" x1="960.0" x2="1080.0" y1="135.0" y2="135.0" stroke="var(--accent-1)" stroke-width="6" stroke-linecap="round"/>
  <defs>
    <pattern id="svged5b923a-napkin-hatch" patternUnits="userSpaceOnUse" width="12" height="12">
      <path d="M -3 12 L 12 -3 M 0 15 L 15 0" fill="none" stroke="var(--primary-text)" stroke-width="1" stroke-opacity="0.05"/>
    </pattern>
    <filter id="svged5b923a-shadow" x="-30%" y="-30%" width="160%" height="160%">
      <feDropShadow dx="0" dy="3" stdDeviation="4" flood-color="#000000" flood-opacity="0.10"/>
      <feDropShadow dx="0" dy="10" stdDeviation="16" flood-color="#000000" flood-opacity="0.12"/>
    </filter>
    <radialGradient id="svged5b923a-universal-edge-vignette" cx="50%" cy="50%" r="72%">
      <stop offset="0%" stop-color="var(--background)" stop-opacity="0"/>
      <stop offset="72%" stop-color="var(--background)" stop-opacity="0.12"/>
      <stop offset="100%" stop-color="var(--primary-text)" stop-opacity="0.08"/>
    </radialGradient>
    <linearGradient id="svged5b923a-universal-surface-sheen" x1="0%" y1="0%" x2="100%" y2="100%">
      <stop offset="0%" stop-color="var(--art-sheen)" stop-opacity="var(--art-sheen-opacity)"/>
      <stop offset="46%" stop-color="var(--art-sheen)" stop-opacity="0.035"/>
      <stop offset="100%" stop-color="var(--art-panel-tint)" stop-opacity="0.14"/>
    </linearGradient>
    <radialGradient id="svged5b923a-universal-icon-aura" cx="50%" cy="42%" r="64%">
      <stop offset="0%" stop-color="var(--art-glow)" stop-opacity="var(--art-glow-opacity)"/>
      <stop offset="100%" stop-color="var(--background)" stop-opacity="0"/>
    </radialGradient>
    <filter id="svged5b923a-text-glow" x="-20%" y="-20%" width="140%" height="140%">
      <feDropShadow dx="0" dy="0" stdDeviation="2" flood-color="#000000" flood-opacity="0.4"/>
    </filter>
    <marker id="svged5b923a-arrowhead" markerWidth="10" markerHeight="7" refX="9" refY="3.5" orient="auto" markerUnits="strokeWidth">
      <polygon points="0 0, 10 3.5, 0 7" fill="var(--muted-text)" opacity="0.6"/>
    </marker>
  </defs>
  <rect id="CANVAS_BG" width="100%" height="100%" fill="var(--background)"/>
  <rect width="100%" height="100%" fill="url(#svged5b923a-napkin-hatch)"/>
  <rect id="UNIVERSAL_EDGE_VIGNETTE" width="100%" height="100%" fill="url(#svged5b923a-universal-edge-vignette)" opacity="0.62"/>
  <text id="TITLE" x="960.0" y="59" text-anchor="middle" font-weight="800" font-size="56" fill="#f1f5f9" style="font-size: 60px; font-family: Inter, Segoe UI, Kalam, Roboto, Helvetica, Arial, sans-serif; font-weight: 700; letter-spacing:-1.2px;" data-final-font-size="60">
    <tspan x="960.0" dy="68.00px">Traditional vs Modern Intelligence</tspan>
  </text>
  <rect id="TITLE_FRAME" x="134" y="59" width="1652" height="103" fill="none"/>
  <g id="FIELD">
    <rect x="170" y="250" width="700" height="280" rx="34" fill="var(--accent-1)" fill-opacity="0.08" stroke="var(--accent-1)" stroke-width="2" stroke-opacity="0.22"/>
    <rect x="1050" y="250" width="700" height="280" rx="34" fill="var(--accent-3)" fill-opacity="0.08" stroke="var(--accent-3)" stroke-width="2" stroke-opacity="0.22"/>
    <rect x="170" y="670" width="700" height="280" rx="34" fill="var(--accent-4)" fill-opacity="0.08" stroke="var(--accent-4)" stroke-width="2" stroke-opacity="0.18"/>
    <rect x="1050" y="670" width="700" height="280" rx="34" fill="var(--accent-6)" fill-opacity="0.08" stroke="var(--accent-6)" stroke-width="2" stroke-opacity="0.18"/>
    <line x1="960" y1="226" x2="960" y2="974" stroke="var(--primary-text)" stroke-width="11" stroke-opacity="0.20"/>
    <line x1="176" y1="600" x2="1744" y2="600" stroke="var(--primary-text)" stroke-width="11" stroke-opacity="0.20"/>
    <path d="M 960 534 L 1028 600 L 960 666 L 892 600 Z" fill="var(--panel)" fill-opacity="0.94" stroke="var(--primary-text)" stroke-width="4" stroke-opacity="0.28"/>
    <circle cx="960" cy="600" r="38" fill="var(--background)" stroke="var(--primary-text)" stroke-width="4"/>
    <g transform="translate(350, 384)">
      <rect id="ITEM_1_BG" x="-250" y="-110" width="500" height="220" rx="30" fill="var(--panel)" fill-opacity="0.95" stroke="var(--accent-1)" stroke-width="3" filter="url(#svged5b923a-shadow)"/>
      <rect x="-250" y="-110" width="500" height="220" rx="18" fill="url(#svged5b923a-universal-surface-sheen)" opacity="0.84"/>
      <rect x="204" y="-82" width="16" height="164" rx="8" fill="var(--accent-1)" fill-opacity="0.22"/>
      <circle cx="176" cy="-16" r="72" fill="none" stroke="var(--accent-1)" stroke-width="2.5" stroke-opacity="0.14"/>
      <text id="ITEM_1_HEAD" x="-204.0" y="-82.0" text-anchor="start" font-weight="700" font-size="28" fill="var(--accent-4)" data-bg-id="ITEM_1_BG" fill-opacity="1.0" stroke="none" style="font-size: 30px; font-family: Inter, Segoe UI, Kalam, Roboto, Helvetica, Arial, sans-serif; font-weight: 700; letter-spacing:-0.4px;" data-final-font-size="30">
        <tspan x="-204.0" dy="27.25px">Legacy Focus</tspan>
      </text>
      <rect id="ITEM_1_HEAD_FRAME" x="-204" y="-82" width="310" height="38" fill="none"/>
      <text id="ITEM_1_BODY" x="-204.0" y="-32.0" text-anchor="start" font-size="19" fill="var(--primary-text)" data-bg-id="ITEM_1_BG" style="font-size: 26px; font-family: Inter, Segoe UI, Kalam, Roboto, Helvetica, Arial, sans-serif; font-weight: 400;" data-final-font-size="26">
        <tspan x="-204.0" dy="28.46px">Analysis centered on</tspan>
        <tspan x="-204.0" dy="29.90px">physical examination of</tspan>
        <tspan x="-204.0" dy="29.90px">captured missiles</tspan>
      </text>
      <rect id="ITEM_1_BODY_FRAME" x="-204" y="-32" width="320" height="128" fill="none"/>
      <circle id="ITEM_1_PAD" cx="176" cy="-16" r="44" fill="var(--icon-pad-bg)" opacity="0.96" fill-opacity="0.9" stroke-width="2" stroke="var(--primary-text)"/>
      <circle id="ITEM_1_PAD_INNER" cx="176" cy="-16" r="34.32" fill="var(--accent-4)" fill-opacity="0.22"/>
      <circle cx="176" cy="-16" r="35" fill="none" stroke="var(--accent-1)" stroke-width="2.5" stroke-dasharray="6 4"/>
      <g id="ITEM_1_ICON" transform="translate(141, -51)" data-icon-size="70" stroke-dasharray="6 4">
        <g transform="translate(-5.0,-5.3125) scale(2.5)">
          <path d="M4.71839 18.0233C5.11525 17.458 5.8952 17.3215 6.46045 17.7184L18.5318 26.1936L17.0946 28.2406L5.02328 19.7653C4.45803 19.3685 4.32152 18.5885 4.71839 18.0233Z" fill="#5092FF"/>
          <path d="M18.5013 2.80347C18.8302 2.3598 19.4615 2.25982 19.9114 2.58017L21.5841 3.77124C22.034 4.09158 22.1321 4.71094 21.8032 5.15461L13.1102 16.8809C12.4436 17.7801 11.1641 17.9827 10.2523 17.3335C9.34053 16.6842 9.14176 15.429 9.80835 14.5298L18.5013 2.80347Z" fill="#636363"/>
          <path d="M18.0472 3.66594C16.8384 3.31432 15.3804 3.86071 14.5971 4.91739L11.7749 8.7243L11.9999 10.0001L10.6024 10.306L10.3989 10.5805C9.07399 12.3677 9.47824 14.8692 11.3018 16.1677C13.1254 17.4662 15.6778 17.07 17.0027 15.2828L17.1623 15.0675L16.9999 13.5001H18.3242L18.4883 13.2787C21.992 13.9302 23.8684 16.851 23.963 19.8545C24.0149 21.5041 23.5209 23.1307 22.4806 24.3899C21.4537 25.6329 19.8112 26.6185 17.3793 26.8486C16.5451 26.9276 15.9304 27.6956 16.0062 28.564C16.082 29.4325 16.8197 30.0725 17.6539 29.9935C20.7829 29.6974 23.1847 28.3804 24.7802 26.4491C26.3624 24.5339 27.069 22.1145 26.9946 19.751C26.8719 15.8564 24.6058 11.9837 20.5048 10.5586L21.2008 9.61967C21.9842 8.56299 22.0639 7.03517 21.3491 6.01708L18.0472 3.66594Z" fill="#BEBEBE"/>
          <path d="M2 29.2C2 27.4327 3.43269 26 5.2 26H26.8C28.5673 26 30 27.4327 30 29.2C30 29.6418 29.6418 30 29.2 30H2.8C2.35817 30 2 29.6418 2 29.2Z" fill="#9B9B9B"/>
          <path d="M11.7757 8.70947L18.3343 13.4746L17.1588 15.0927L10.6001 10.3275L11.7757 8.70947Z" fill="#D3D3D3"/>
        </g>
      </g>
    </g>
    <g transform="translate(960, 384)">
      <rect id="ITEM_2_BG" x="-250" y="-100" width="500" height="200" rx="30" fill="var(--panel)" fill-opacity="0.96" stroke="var(--accent-2)" stroke-width="3" filter="url(#svged5b923a-shadow)"/>
      <rect x="-198" y="-70" width="396" height="12" rx="6" fill="var(--accent-2)" fill-opacity="0.18"/>
      <circle cx="0" cy="-12" r="76" fill="none" stroke="var(--accent-2)" stroke-width="2.5" stroke-opacity="0.14"/>
      <text id="ITEM_2_HEAD" x="-204.0" y="-72.0" text-anchor="start" font-weight="700" font-size="28" fill="var(--accent-5)" data-bg-id="ITEM_2_BG" fill-opacity="1.0" stroke="none" style="font-size: 30px; font-family: Inter, Segoe UI, Kalam, Roboto, Helvetica, Arial, sans-serif; font-weight: 700; letter-spacing:-0.4px;" data-final-font-size="30">
        <tspan x="-204.0" dy="27.25px">Modern Scope</tspan>
      </text>
      <rect id="ITEM_2_HEAD_FRAME" x="-204" y="-72" width="310" height="38" fill="none"/>
      <text id="ITEM_2_BODY" x="-204.0" y="-32.0" text-anchor="start" font-size="19" fill="var(--primary-text)" data-bg-id="ITEM_2_BG" style="font-size: 26px; font-family: Inter, Segoe UI, Kalam, Roboto, Helvetica, Arial, sans-serif; font-weight: 400;" data-final-font-size="26">
        <tspan x="-204.0" dy="28.46px">Assessment includes</tspan>
        <tspan x="-204.0" dy="29.90px">software, networks, and</tspan>
        <tspan x="-204.0" dy="29.90px">sensor fusion data</tspan>
      </text>
      <rect id="ITEM_2_BODY_FRAME" x="-204" y="-32" width="320" height="128" fill="none"/>
      <circle id="ITEM_2_PAD" cx="176" cy="-12" r="45" fill="var(--icon-pad-bg)" opacity="0.96" fill-opacity="0.9" stroke-width="2" stroke="var(--primary-text)"/>
      <circle id="ITEM_2_PAD_INNER" cx="176" cy="-12" r="35.10" fill="var(--accent-5)" fill-opacity="0.22"/>
      <circle cx="176" cy="-12" r="36" fill="none" stroke="var(--accent-2)" stroke-width="2.5" stroke-dasharray="6 4"/>
      <g id="ITEM_2_ICON" transform="translate(140, -48)" data-icon-size="72" stroke-dasharray="6 4">
        <g transform="translate(-3.8571428571428577,-4.8214285714285765) scale(2.5714285714285716)">
          <path d="M14.3675 5.87431L10.6615 3.30015C10.2652 3.02489 9.72534 3.12861 9.44275 3.51981L1.77125 14.5646C1.496 14.9609 1.59462 15.5081 1.99091 15.7833L5.69698 18.3575C6.09327 18.6328 6.64046 18.5341 6.91571 18.1378L14.5872 7.09304C14.8625 6.69675 14.7638 6.14956 14.3675 5.87431ZM16.6809 25.9761L20.3869 28.5502C20.7832 28.8255 21.3253 28.7342 21.6006 28.3379L29.272 17.2931C29.5473 16.8968 29.4487 16.3496 29.0524 16.0744L25.3463 13.5002C24.95 13.225 24.4028 13.3236 24.1276 13.7199L16.4612 24.7573C16.1859 25.1536 16.2846 25.7008 16.6809 25.9761Z" fill="#635994"/>
          <path d="M21.4869 12.9951L19.3688 10.6316L16.2031 9.32501L15.1836 10.7928L17.5195 13.2275L20.4675 14.4628L21.4869 12.9951Z" fill="#998EA4"/>
          <path d="M12.4766 13.2646L11.0088 12.2451L10.4991 12.979L11.9668 13.9985L12.4766 13.2646ZM19.0888 17.8571L20.5566 18.8765L20.0468 19.6104L18.5791 18.5909L19.0888 17.8571ZM13.5848 19.4848L12.8509 18.9751L11.3217 21.1767L12.0556 21.6865L13.5848 19.4848ZM9.29531 24.1097L10.0365 24.6246L8.50732 26.8262L7.76611 26.3114L9.29531 24.1097Z" fill="#1C1C1C"/>
          <path d="M12.5996 6.82217L10.3979 5.29297L8.86874 7.49459L11.0704 9.02379L12.5996 6.82217ZM7.84939 8.96277L10.051 10.492L8.52181 12.6936L6.32019 11.1644L7.84939 8.96277ZM7.50231 14.1613L5.30069 12.6321L3.77148 14.8337L5.97311 16.3629L7.50231 14.1613ZM25.0828 15.4929L27.2844 17.0221L25.7552 19.2237L23.5536 17.6945L25.0828 15.4929ZM22.5342 19.1624L24.7358 20.6916L23.2066 22.8932L21.005 21.364L22.5342 19.1624ZM22.1872 24.3606L19.9855 22.8314L18.4563 25.033L20.658 26.5622L22.1872 24.3606Z" fill="#BCA4EB"/>
          <path d="M16.1371 9.27938L21.5458 13.0361C21.876 13.2655 22.3311 13.1899 22.5531 12.8546L23.2514 11.8492C23.4808 11.5189 23.4001 11.0712 23.0699 10.8418L17.6612 7.0851C17.331 6.85572 16.8833 6.9364 16.6539 7.26665L15.9556 8.27206C15.7262 8.6023 15.8069 9.05 16.1371 9.27938ZM8.98669 27.7029C8.56441 28.3108 7.72923 28.4613 7.12127 28.0391C6.51331 27.6168 6.36279 26.7816 6.78506 26.1737C7.20734 25.5657 8.04251 25.4152 8.65048 25.8374C9.25844 26.2597 9.40896 27.0949 8.98669 27.7029ZM12.3559 26.2356L6.9766 22.4993C6.40418 22.1017 6.3806 21.2585 6.9266 20.8327C8.43104 19.6691 10.5674 19.5537 12.2112 20.6955C13.8551 21.8373 14.4928 23.8795 13.9278 25.6955C13.7216 26.3683 12.9283 26.6332 12.3559 26.2356ZM10.5301 17.3519L15.9387 21.1087C16.269 21.3381 16.724 21.2625 16.946 20.9271L20.7028 15.5185C20.9322 15.1882 20.8515 14.7405 20.5212 14.5111L15.1126 10.7544C14.7823 10.525 14.3346 10.6057 14.1053 10.936L10.3485 16.3446C10.1191 16.6749 10.1998 17.1226 10.5301 17.3519Z" fill="#B4ACBC"/>
        </g>
      </g>
    </g>
    <g transform="translate(1570, 384)">
      <rect id="ITEM_3_BG" x="-250" y="-110" width="500" height="220" rx="30" fill="var(--panel)" fill-opacity="0.95" stroke="var(--accent-3)" stroke-width="3" filter="url(#svged5b923a-shadow)"/>
      <rect x="-250" y="-110" width="500" height="220" rx="18" fill="url(#svged5b923a-universal-surface-sheen)" opacity="0.84"/>
      <rect x="-220" y="-82" width="16" height="164" rx="8" fill="var(--accent-3)" fill-opacity="0.22"/>
      <circle cx="-176" cy="-16" r="72" fill="none" stroke="var(--accent-3)" stroke-width="2.5" stroke-opacity="0.14"/>
      <text id="ITEM_3_HEAD" x="204.0" y="-82.0" text-anchor="end" font-weight="700" font-size="28" fill="var(--accent-6)" data-bg-id="ITEM_3_BG" fill-opacity="1.0" stroke="none" style="font-size: 30px; font-family: Inter, Segoe UI, Kalam, Roboto, Helvetica, Arial, sans-serif; font-weight: 700; letter-spacing:-0.4px;" data-final-font-size="30">
        <tspan x="204.0" dy="27.25px">Static Testing</tspan>
      </text>
      <rect id="ITEM_3_HEAD_FRAME" x="-106" y="-82" width="310" height="38" fill="none"/>
      <text id="ITEM_3_BODY" x="204.0" y="-32.0" text-anchor="end" font-size="19" fill="var(--primary-text)" data-bg-id="ITEM_3_BG" style="font-size: 26px; font-family: Inter, Segoe UI, Kalam, Roboto, Helvetica, Arial, sans-serif; font-weight: 400;" data-final-font-size="26">
        <tspan x="204.0" dy="28.46px">Physical tests reveal</tspan>
        <tspan x="204.0" dy="29.90px">component materials and</tspan>
        <tspan x="204.0" dy="29.90px">engineering choices</tspan>
      </text>
      <rect id="ITEM_3_BODY_FRAME" x="-116" y="-32" width="320" height="128" fill="none"/>
      <circle id="ITEM_3_PAD" cx="-176" cy="-16" r="44" fill="var(--icon-pad-bg)" opacity="0.96" fill-opacity="0.9" stroke-width="2" stroke="var(--primary-text)"/>
      <circle id="ITEM_3_PAD_INNER" cx="-176" cy="-16" r="34.32" fill="var(--accent-6)" fill-opacity="0.22"/>
      <circle cx="-176" cy="-16" r="35" fill="none" stroke="var(--accent-3)" stroke-width="2.5" stroke-dasharray="6 4"/>
      <g id="ITEM_3_ICON" transform="translate(-211, -51)" data-icon-size="70" stroke-dasharray="6 4">
        <g transform="translate(-13.125000000000005,-8.076923076923077) scale(2.6923076923076925)">
          <path d="M7.47728 24.9005C6.87034 25.7633 6.3564 26.4938 6.29139 26.6067C6.26995 26.644 6.24652 26.6826 6.22232 26.7224C6.04002 27.0225 5.81376 27.3951 6.06029 27.8201C6.32658 28.2792 6.90808 28.2743 7.07841 28.2728C7.0867 28.2728 7.09402 28.2727 7.10028 28.2727H21.9105C22.2283 28.2727 22.6135 28.2534 22.8638 27.926C23.1142 27.5986 23.1335 27.2038 22.7964 26.6646C22.6415 26.4167 21.8364 25.2153 21.0643 24.0631C20.4925 23.2098 19.9388 22.3835 19.6807 21.9916L9.49536 21.9916C9.14209 22.534 8.23685 23.8208 7.47728 24.9005ZM9.30886 24.9961C9.36985 24.8934 9.55196 24.59 9.61359 24.4898C9.69063 24.3647 10.0461 23.9893 10.4987 23.9893H18.515C18.9098 23.9893 19.2046 24.2202 19.3876 24.4898C19.4886 24.6387 19.5716 24.7973 19.625 24.8992L19.625 24.8992L19.625 24.8992C19.649 24.9449 19.667 24.9792 19.6779 24.9961H9.30886ZM8.00639 26.9869C8.06417 26.9098 8.20091 26.7211 8.28565 26.5825C8.39157 26.4091 8.90313 25.9863 9.35572 25.9863H19.9045C20.1163 25.9863 20.4292 26.1041 20.5689 26.3137C20.646 26.4293 20.9431 26.8777 21.0137 26.9869H8.00639Z" fill="#321B41"/>
          <path d="M8.98 3C8.44 3 8 3.44898 8 4L7.92887 4C6.85949 4 6 4.85 6 5.91V16C6 18.22 7.81893 20.01 10.0676 20.01H18.9324C21.1811 20.01 23 18.22 23 16V5.91C23 4.85 22.1305 4 21.0611 4L21 4C21 3.44898 20.56 3 20.02 3H8.98Z" fill="#D3D3D3"/>
          <path d="M24.4306 20.01C23.1607 20.01 22.5208 21.55 23.4207 22.45L30 29V25.95V20L24.4306 20.01Z" fill="#EFD5FF"/>
          <path d="M30 12.02V8.98C30 8.44 29.56 8 29.02 8H25.98C25.44 8 25 8.44 25 8.98V12.02C25 12.56 25.44 13 25.98 13H29.02C29.56 13 30 12.56 30 12.02ZM23 18.99V16H6V18.99C6 21.21 7.81893 23 10.0676 23H18.9324C21.1811 23 23 21.21 23 18.99Z" fill="#00A6ED"/>
          <path d="M21 8.45V16.55C21 17.9 19.9 19 18.55 19H10.45C9.1 19 8 17.9 8 16.55V8.45C8 7.1 9.1 6 10.45 6H18.55C19.9 6 21 7.1 21 8.45Z" fill="#26EAFC"/>
          <path d="M21 8.45V9H8V8.45C8 7.1 9.1 6 10.45 6H18.55C19.9 6 21 7.1 21 8.45ZM27.5 21C27.22 21 27 20.78 27 20.5V12.9961H28V20.5C28 20.78 27.78 21 27.5 21ZM8 16V18.55C8 19.9 9.1 21 10.45 21H18.55C19.9 21 21 19.9 21 18.55V16H8Z" fill="#636363"/>
          <path d="M18.5 8H10.5C10.22 8 10 7.78 10 7.5C10 7.22 10.22 7 10.5 7H18.5C18.78 7 19 7.22 19 7.5C19 7.78 18.78 8 18.5 8Z" fill="#D3D3D3"/>
          <path d="M30 6.98V9H25V6.98C25 6.44 25.44 6 25.98 6H29.02C29.56 6 30 6.44 30 6.98ZM13 19H11C10.45 19 10 18.55 10 18C10 17.45 10.45 17 11 17H13C13.55 17 14 17.45 14 18C14 18.56 13.56 19 13 19ZM16 19H18C18.56 19 19 18.56 19 18C19 17.45 18.55 17 18 17H16C15.45 17 15 17.45 15 18C15 18.55 15.45 19 16 19Z" fill="#ED9200"/>
        </g>
      </g>
    </g>
    <g transform="translate(350, 816)">
      <rect id="ITEM_4_BG" x="-250" y="-110" width="500" height="220" rx="30" fill="var(--panel)" fill-opacity="0.95" stroke="var(--accent-4)" stroke-width="3" filter="url(#svged5b923a-shadow)"/>
      <rect x="-250" y="-110" width="500" height="220" rx="18" fill="url(#svged5b923a-universal-surface-sheen)" opacity="0.84"/>
      <rect x="204" y="-82" width="16" height="164" rx="8" fill="var(--accent-4)" fill-opacity="0.22"/>
      <circle cx="176" cy="-16" r="72" fill="none" stroke="var(--accent-4)" stroke-width="2.5" stroke-opacity="0.14"/>
      <text id="ITEM_4_HEAD" x="-204.0" y="-82.0" text-anchor="start" font-weight="700" font-size="28" fill="var(--accent-1)" data-bg-id="ITEM_4_BG" fill-opacity="1.0" stroke="none" style="font-size: 30px; font-family: Inter, Segoe UI, Kalam, Roboto, Helvetica, Arial, sans-serif; font-weight: 700; letter-spacing:-0.4px;" data-final-font-size="30">
        <tspan x="-204.0" dy="27.25px">Dynamic Modeling</tspan>
      </text>
      <rect id="ITEM_4_HEAD_FRAME" x="-204" y="-82" width="310" height="38" fill="none"/>
      <text id="ITEM_4_BODY" x="-204.0" y="-32.0" text-anchor="start" font-size="19" fill="var(--primary-text)" data-bg-id="ITEM_4_BG" style="font-size: 26px; font-family: Inter, Segoe UI, Kalam, Roboto, Helvetica, Arial, sans-serif; font-weight: 400;" data-final-font-size="26">
        <tspan x="-204.0" dy="28.46px">Simulations explore</tspan>
        <tspan x="-204.0" dy="29.90px">performance limits under</tspan>
        <tspan x="-204.0" dy="29.90px">thousands of conditions</tspan>
      </text>
      <rect id="ITEM_4_BODY_FRAME" x="-204" y="-32" width="320" height="128" fill="none"/>
      <circle id="ITEM_4_PAD" cx="176" cy="-16" r="44" fill="var(--icon-pad-bg)" opacity="0.96" fill-opacity="0.9" stroke-width="2" stroke="var(--primary-text)"/>
      <circle id="ITEM_4_PAD_INNER" cx="176" cy="-16" r="34.32" fill="var(--accent-1)" fill-opacity="0.22"/>
      <circle cx="176" cy="-16" r="35" fill="none" stroke="var(--accent-4)" stroke-width="2.5" stroke-dasharray="6 4"/>
      <g id="ITEM_4_ICON" transform="translate(141, -51)" data-icon-size="70" stroke-dasharray="6 4">
        <g transform="translate(-2.966101694915256,-2.9661016949152543) scale(3.1638418079096047)" vector-effect="non-scaling-stroke" stroke-width="2.55" stroke-linecap="round" stroke-linejoin="round" stroke-opacity="1.0">
          <rect width="16" height="20" x="4" y="2" rx="2" vector-effect="non-scaling-stroke" fill="none" stroke="#f1f5f9"/>
          <line x1="8" x2="16" y1="6" y2="6" vector-effect="non-scaling-stroke" fill="none" stroke="#f1f5f9"/>
          <line x1="16" x2="16" y1="14" y2="18" vector-effect="non-scaling-stroke" fill="none" stroke="#f1f5f9"/>
          <path d="M16 10h.01" vector-effect="non-scaling-stroke" fill="none" stroke="#f1f5f9"/>
          <path d="M12 10h.01" vector-effect="non-scaling-stroke" fill="none" stroke="#f1f5f9"/>
          <path d="M8 10h.01" vector-effect="non-scaling-stroke" fill="none" stroke="#f1f5f9"/>
          <path d="M12 14h.01" vector-effect="non-scaling-stroke" fill="none" stroke="#f1f5f9"/>
          <path d="M8 14h.01" vector-effect="non-scaling-stroke" fill="none" stroke="#f1f5f9"/>
          <path d="M12 18h.01" vector-effect="non-scaling-stroke" fill="none" stroke="#f1f5f9"/>
          <path d="M8 18h.01" vector-effect="non-scaling-stroke" fill="none" stroke="#f1f5f9"/>
        </g>
      </g>
    </g>
    <g transform="translate(960, 816)">
      <rect id="ITEM_5_BG" x="-250" y="-100" width="500" height="200" rx="30" fill="var(--panel)" fill-opacity="0.96" stroke="var(--accent-5)" stroke-width="3" filter="url(#svged5b923a-shadow)"/>
      <rect x="-198" y="-70" width="396" height="12" rx="6" fill="var(--accent-5)" fill-opacity="0.18"/>
      <circle cx="0" cy="-12" r="76" fill="none" stroke="var(--accent-5)" stroke-width="2.5" stroke-opacity="0.14"/>
      <text id="ITEM_5_HEAD" x="-204.0" y="-72.0" text-anchor="start" font-weight="700" font-size="28" fill="var(--accent-2)" data-bg-id="ITEM_5_BG" fill-opacity="1.0" stroke="none" style="font-size: 30px; font-family: Inter, Segoe UI, Kalam, Roboto, Helvetica, Arial, sans-serif; font-weight: 700; letter-spacing:-0.4px;" data-final-font-size="30">
        <tspan x="-204.0" dy="27.25px">Isolated Analysis</tspan>
      </text>
      <rect id="ITEM_5_HEAD_FRAME" x="-204" y="-72" width="310" height="38" fill="none"/>
      <text id="ITEM_5_BODY" x="-204.0" y="-32.0" text-anchor="start" font-size="19" fill="var(--primary-text)" data-bg-id="ITEM_5_BG" style="font-size: 26px; font-family: Inter, Segoe UI, Kalam, Roboto, Helvetica, Arial, sans-serif; font-weight: 400;" data-final-font-size="26">
        <tspan x="-204.0" dy="34.44px">Evaluation of a single</tspan>
        <tspan x="-204.0" dy="29.90px">seeker or guidance unit</tspan>
      </text>
      <rect id="ITEM_5_BODY_FRAME" x="-204" y="-32" width="320" height="128" fill="none"/>
      <circle id="ITEM_5_PAD" cx="176" cy="-12" r="45" fill="var(--icon-pad-bg)" opacity="0.96" fill-opacity="0.9" stroke-width="2" stroke="var(--primary-text)"/>
      <circle id="ITEM_5_PAD_INNER" cx="176" cy="-12" r="35.10" fill="var(--accent-2)" fill-opacity="0.22"/>
      <circle cx="176" cy="-12" r="36" fill="none" stroke="var(--accent-5)" stroke-width="2.5" stroke-dasharray="6 4"/>
      <g id="ITEM_5_ICON" transform="translate(140, -48)" data-icon-size="72" stroke-dasharray="6 4">
        <g transform="translate(-6.666666666666666,-6.666666666666666) scale(3.5555555555555554)" vector-effect="non-scaling-stroke" stroke-width="2.58" stroke-linecap="round" stroke-linejoin="round" stroke-opacity="1.0">
          <rect width="18" height="18" x="3" y="3" rx="2" vector-effect="non-scaling-stroke" fill="none" stroke="#f1f5f9"/>
          <path d="M11 9h4a2 2 0 0 0 2-2V3" vector-effect="non-scaling-stroke" fill="none" stroke="#f1f5f9"/>
          <circle cx="9" cy="9" r="2" vector-effect="non-scaling-stroke" fill="none" stroke="#f1f5f9"/>
          <path d="M7 21v-4a2 2 0 0 1 2-2h4" vector-effect="non-scaling-stroke" fill="none" stroke="#f1f5f9"/>
          <circle cx="15" cy="15" r="2" vector-effect="non-scaling-stroke" fill="none" stroke="#f1f5f9"/>
        </g>
      </g>
    </g>
    <g transform="translate(1570, 816)">
      <rect id="ITEM_6_BG" x="-250" y="-110" width="500" height="220" rx="30" fill="var(--panel)" fill-opacity="0.95" stroke="var(--accent-6)" stroke-width="3" filter="url(#svged5b923a-shadow)"/>
      <rect x="-250" y="-110" width="500" height="220" rx="18" fill="url(#svged5b923a-universal-surface-sheen)" opacity="0.84"/>
      <rect x="-220" y="-82" width="16" height="164" rx="8" fill="var(--accent-6)" fill-opacity="0.22"/>
      <circle cx="-176" cy="-16" r="72" fill="none" stroke="var(--accent-6)" stroke-width="2.5" stroke-opacity="0.14"/>
      <text id="ITEM_6_HEAD" x="204.0" y="-82.0" text-anchor="end" font-weight="700" font-size="28" fill="var(--accent-3)" data-bg-id="ITEM_6_BG" fill-opacity="1.0" stroke="none" style="font-size: 30px; font-family: Inter, Segoe UI, Kalam, Roboto, Helvetica, Arial, sans-serif; font-weight: 700; letter-spacing:-0.4px;" data-final-font-size="30">
        <tspan x="204.0" dy="27.25px">System of Systems</tspan>
      </text>
      <rect id="ITEM_6_HEAD_FRAME" x="-106" y="-82" width="310" height="38" fill="none"/>
      <text id="ITEM_6_BODY" x="204.0" y="-32.0" text-anchor="end" font-size="19" fill="var(--primary-text)" data-bg-id="ITEM_6_BG" style="font-size: 26px; font-family: Inter, Segoe UI, Kalam, Roboto, Helvetica, Arial, sans-serif; font-weight: 400;" data-final-font-size="26">
        <tspan x="204.0" dy="28.46px">Analysis of integrated</tspan>
        <tspan x="204.0" dy="29.90px">command structures and</tspan>
        <tspan x="204.0" dy="29.90px">countermeasures</tspan>
      </text>
      <rect id="ITEM_6_BODY_FRAME" x="-116" y="-32" width="320" height="128" fill="none"/>
      <circle id="ITEM_6_PAD" cx="-176" cy="-16" r="44" fill="var(--icon-pad-bg)" opacity="0.96" fill-opacity="0.9" stroke-width="2" stroke="var(--primary-text)"/>
      <circle id="ITEM_6_PAD_INNER" cx="-176" cy="-16" r="34.32" fill="var(--accent-3)" fill-opacity="0.22"/>
      <circle cx="-176" cy="-16" r="35" fill="none" stroke="var(--accent-6)" stroke-width="2.5" stroke-dasharray="6 4"/>
      <g id="ITEM_6_ICON" transform="translate(-211, -51)" data-icon-size="70" stroke-dasharray="6 4">
        <g transform="translate(-2.647058823529409,-2.3529411764705883) scale(3.1372549019607843)" vector-effect="non-scaling-stroke" stroke-width="2.55" stroke-linecap="round" stroke-linejoin="round" stroke-opacity="1.0">
          <path d="M4.9 16.1C1 12.2 1 5.8 4.9 1.9" vector-effect="non-scaling-stroke" fill="none" stroke="#f1f5f9"/>
          <path d="M7.8 4.7a6.14 6.14 0 0 0-.8 7.5" vector-effect="non-scaling-stroke" fill="none" stroke="#f1f5f9"/>
          <circle cx="12" cy="9" r="2" vector-effect="non-scaling-stroke" fill="none" stroke="#f1f5f9"/>
          <path d="M16.2 4.8c2 2 2.26 5.11.8 7.47" vector-effect="non-scaling-stroke" fill="none" stroke="#f1f5f9"/>
          <path d="M19.1 1.9a9.96 9.96 0 0 1 0 14.1" vector-effect="non-scaling-stroke" fill="none" stroke="#f1f5f9"/>
          <path d="M9.5 18h5" vector-effect="non-scaling-stroke" fill="none" stroke="#f1f5f9"/>
          <path d="m8 22 4-11 4 11" vector-effect="non-scaling-stroke" fill="none" stroke="#f1f5f9"/>
        </g>
      </g>
    </g>
  </g>
</svg>
