<?xml version='1.0' encoding='utf-8'?>
<svg xmlns="http://www.w3.org/2000/svg" width="1920" height="1080" viewBox="0 0 1920 1080" data-theme="dark">
  <style>
        @font-face {
            font-family: 'Inter';
            src: url('assets/fonts/Inter-Regular.ttf') format('truetype');
            font-weight: 400;
            font-style: normal;
            font-display: swap;
        }
        @font-face {
            font-family: 'Inter';
            src: url('assets/fonts/Inter-Bold.ttf') format('truetype');
            font-weight: 600;
            font-style: normal;
            font-display: swap;
        }
        @font-face {
            font-family: 'Inter';
            src: url('assets/fonts/Inter-Bold.ttf') format('truetype');
            font-weight: 800;
            font-style: normal;
            font-display: swap;
        }
        
:root {
    --background: #0f172a;
    --panel: #1e293b;
    --primary-text: #f1f5f9;
    --muted-text: #94a3b8;
    --inverse-text: #0f172a;
    --border: #334155;
    --shadow-color: #000000;
    --icon-pad-bg: #1e293b;
    --art-glow: #7dd3fc;
    --art-glow-opacity: 0.18;
    --art-sheen: #ffffff;
    --art-sheen-opacity: 0.18;
    --art-shadow: #000000;
    --art-shadow-opacity: 0.28;
    --art-muted-line: #64748b;
    --art-panel-tint: #1e293b;
    --font-family: 'Inter', 'Segoe UI', 'Kalam', Roboto, Helvetica, Arial, sans-serif;
    --radius-xl: 16px;
    --font-family-headline: 'Inter', 'Segoe UI', 'Kalam', Roboto, Helvetica, Arial, sans-serif;
    --font-family-body: 'Inter', 'Segoe UI', 'Kalam', Roboto, Helvetica, Arial, sans-serif;
    --font-heading: 'Inter', 'Segoe UI', 'Kalam', Roboto, Helvetica, Arial, sans-serif;
    --font-body: 'Inter', 'Segoe UI', 'Kalam', Roboto, Helvetica, Arial, sans-serif;
    --font-size-h1: 56px;
    --font-size-h2: 40px;
    --font-size-h3: 28px;
    --font-size-body: 24px;
    --font-size-caption: 18px;
    --secondary-text: var(--muted-text);
    --panel-border: var(--border);
    --font-weight-normal: 400;
    --font-weight-medium: 500;
    --font-weight-semibold: 600;
    --font-weight-bold: 700;
    --spacing-gutter-pct: 0.07;
    --spacing-top-pct: 0.15;
    --spacing-bottom-pct: 0.07;
    --spacing-title-y-pct: 0.055;
    --accent-1: #22d3ee;
    --accent-2: #38bdf8;
    --accent-3: #60a5fa;
    --accent-4: #818cf8;
    --accent-5: #a78bfa;
    --accent-6: #2dd4bf;
}
:root[data-theme="dark"] {
    --background: #0f172a;
    --panel: #1e293b;
    --primary-text: #f1f5f9;
    --muted-text: #94a3b8;
    --inverse-text: #0f172a;
    --border: #334155;
    --shadow-color: #000000;
    --icon-pad-bg: #1e293b;
    --art-glow: #7dd3fc;
    --art-glow-opacity: 0.18;
    --art-sheen: #ffffff;
    --art-sheen-opacity: 0.18;
    --art-shadow: #000000;
    --art-shadow-opacity: 0.28;
    --art-muted-line: #64748b;
    --art-panel-tint: #1e293b;
    --accent-1: #22d3ee;
    --accent-2: #38bdf8;
    --accent-3: #60a5fa;
    --accent-4: #818cf8;
    --accent-5: #a78bfa;
    --accent-6: #2dd4bf;
}
:root[data-theme="light"] {
    --background: #f8fafc;
    --panel: #ffffff;
    --primary-text: #0f172a;
    --muted-text: #64748b;
    --inverse-text: #ffffff;
    --border: #e2e8f0;
    --shadow-color: #000000;
    --icon-pad-bg: #1e293b;
    --art-glow: #0891b2;
    --art-glow-opacity: 0.10;
    --art-sheen: #ffffff;
    --art-sheen-opacity: 0.34;
    --art-shadow: #0f172a;
    --art-shadow-opacity: 0.14;
    --art-muted-line: #94a3b8;
    --art-panel-tint: #f1f5f9;
    --accent-1: #0891b2;
    --accent-2: #0284c7;
    --accent-3: #2563eb;
    --accent-4: #4f46e5;
    --accent-5: #7c3aed;
    --accent-6: #0d9488;
}</style>
  <rect x="0" y="0" width="1.92E+3" height="1.08E+3" fill="#252a34" stroke="none" id="programmatic_background"/>
  <line id="HEADER_DECOR" x1="960.0" x2="1080.0" y1="135.0" y2="135.0" stroke="var(--accent-1)" stroke-width="6" stroke-linecap="round"/>
  <defs>
    <pattern id="svgc3438c2d-napkin-hatch" patternUnits="userSpaceOnUse" width="12" height="12">
      <path d="M -3 12 L 12 -3 M 0 15 L 15 0" fill="none" stroke="var(--primary-text)" stroke-width="1" stroke-opacity="0.035"/>
    </pattern>
    <filter id="svgc3438c2d-soft-shadow" x="-30%" y="-30%" width="160%" height="160%">
      <feDropShadow dx="0" dy="3" stdDeviation="6" flood-color="#000000" flood-opacity="0.16"/>
    </filter>
    <radialGradient id="svgc3438c2d-universal-edge-vignette" cx="50%" cy="50%" r="72%">
      <stop offset="0%" stop-color="var(--background)" stop-opacity="0"/>
      <stop offset="72%" stop-color="var(--background)" stop-opacity="0.12"/>
      <stop offset="100%" stop-color="var(--primary-text)" stop-opacity="0.08"/>
    </radialGradient>
    <linearGradient id="svgc3438c2d-universal-surface-sheen" x1="0%" y1="0%" x2="100%" y2="100%">
      <stop offset="0%" stop-color="var(--art-sheen)" stop-opacity="var(--art-sheen-opacity)"/>
      <stop offset="46%" stop-color="var(--art-sheen)" stop-opacity="0.035"/>
      <stop offset="100%" stop-color="var(--art-panel-tint)" stop-opacity="0.14"/>
    </linearGradient>
    <radialGradient id="svgc3438c2d-universal-icon-aura" cx="50%" cy="42%" r="64%">
      <stop offset="0%" stop-color="var(--art-glow)" stop-opacity="var(--art-glow-opacity)"/>
      <stop offset="100%" stop-color="var(--background)" stop-opacity="0"/>
    </radialGradient>
    <filter id="svgc3438c2d-text-glow" x="-20%" y="-20%" width="140%" height="140%">
      <feDropShadow dx="0" dy="0" stdDeviation="2" flood-color="#000000" flood-opacity="0.4"/>
    </filter>
    <filter id="svgc3438c2d-shadow" x="-30%" y="-30%" width="160%" height="160%">
      <feDropShadow dx="0" dy="2" stdDeviation="3" flood-color="#000000" flood-opacity="0.08"/>
      <feDropShadow dx="0" dy="6" stdDeviation="10" flood-color="#000000" flood-opacity="0.12"/>
    </filter>
    <marker id="svgc3438c2d-arrowhead" markerWidth="10" markerHeight="7" refX="9" refY="3.5" orient="auto" markerUnits="strokeWidth">
      <polygon points="0 0, 10 3.5, 0 7" fill="var(--muted-text)" opacity="0.6"/>
    </marker>
  </defs>
  <rect id="CANVAS_BG" width="100%" height="100%" fill="var(--background)"/>
  <rect width="100%" height="100%" fill="url(#svgc3438c2d-napkin-hatch)"/>
  <rect id="UNIVERSAL_EDGE_VIGNETTE" width="100%" height="100%" fill="url(#svgc3438c2d-universal-edge-vignette)" opacity="0.62"/>
  <text id="TITLE" x="960.0" y="59" text-anchor="middle" font-size="56" font-weight="800" fill="#f1f5f9" style="font-size: 60px; font-family: Inter, Segoe UI, Kalam, Roboto, Helvetica, Arial, sans-serif; font-weight: 700; letter-spacing:-1.2px;" data-final-font-size="60">
    <tspan x="960.0" dy="68.00px">Lawful War Booty vs. Pillage</tspan>
  </text>
  <rect id="TITLE_FRAME" x="134" y="59" width="1652" height="103" fill="none"/>
  <rect x="120" y="205" width="1680" height="500" rx="40" fill="var(--panel)" fill-opacity="0.10" stroke="var(--muted-text)" stroke-width="1.5" opacity="0.68"/>
  <line x1="520.0" y1="468.0" x2="560.0" y2="468.0" stroke="var(--muted-text)" stroke-width="1.5" stroke-dasharray="8 9" opacity="0.42" stroke-linecap="round"/>
  <circle cx="540.0" cy="468.0" r="22" fill="var(--panel)" fill-opacity="0.86" stroke="var(--muted-text)" stroke-width="1.5" opacity="0.82"/>
  <text x="540.0" y="476.0" text-anchor="middle" font-size="22" font-weight="800" fill="var(--muted-text)" opacity="0.72">VS</text>
  <line x1="940.0" y1="468.0" x2="980.0" y2="468.0" stroke="var(--muted-text)" stroke-width="1.5" stroke-dasharray="8 9" opacity="0.42" stroke-linecap="round"/>
  <circle cx="960.0" cy="468.0" r="22" fill="var(--panel)" fill-opacity="0.86" stroke="var(--muted-text)" stroke-width="1.5" opacity="0.82"/>
  <text x="960.0" y="476.0" text-anchor="middle" font-size="22" font-weight="800" fill="var(--muted-text)" opacity="0.72">VS</text>
  <line x1="1360.0" y1="468.0" x2="1400.0" y2="468.0" stroke="var(--muted-text)" stroke-width="1.5" stroke-dasharray="8 9" opacity="0.42" stroke-linecap="round"/>
  <circle cx="1380.0" cy="468.0" r="22" fill="var(--panel)" fill-opacity="0.86" stroke="var(--muted-text)" stroke-width="1.5" opacity="0.82"/>
  <text x="1380.0" y="476.0" text-anchor="middle" font-size="22" font-weight="800" fill="var(--muted-text)" opacity="0.72">VS</text>
  <g transform="translate(322.5, 255.0)" filter="url(#svgc3438c2d-soft-shadow)">
    <rect id="ITEM_1_BG" x="-200.0" y="0" width="400.0" height="360" rx="28" fill="var(--panel)" fill-opacity="0.92" stroke="var(--accent-1)" stroke-width="2.5"/>
    <rect x="-200.0" y="0" width="400.0" height="360" rx="18" fill="url(#svgc3438c2d-universal-surface-sheen)" opacity="0.86"/>
    <rect x="-184.0" y="12" width="368.0" height="8" rx="4" fill="var(--accent-1)" fill-opacity="0.42"/>
    <circle id="ITEM_1_PAD" cx="0" cy="74" r="46" fill="var(--icon-pad-bg)" stroke="var(--primary-text)" opacity="0.9" fill-opacity="0.9" stroke-width="2"/>
    <circle id="ITEM_1_PAD_INNER" cx="0" cy="74" r="35.88" fill="var(--accent-6)" fill-opacity="0.22"/>
    <circle cx="0" cy="74" r="36" fill="none" stroke="var(--accent-1)" stroke-width="2.25" stroke-dasharray="4 4" opacity="0.8"/>
    <g id="ITEM_1_ICON" transform="translate(-34, 40)" data-icon-size="68" stroke-dasharray="4 4">
      <g transform="translate(-5.055221238938056,-8.547964601769916) scale(3.386902654867257)" vector-effect="non-scaling-stroke" stroke-width="2.53" stroke-linecap="round" stroke-linejoin="round" stroke-opacity="1.0">
        <path d="M2 12m0 3a3 3 0 0 1 3 -3h12a3 3 0 0 1 3 3v0a3 3 0 0 1 -3 3h-12a3 3 0 0 1 -3 -3z" vector-effect="non-scaling-stroke" fill="none" stroke="#f1f5f9"/>
        <path d="M6 12l1 -5h5l3 5" vector-effect="non-scaling-stroke" fill="none" stroke="#f1f5f9"/>
        <path d="M21 9l-7.8 0" vector-effect="non-scaling-stroke" fill="none" stroke="#f1f5f9"/>
      </g>
    </g>
    <text id="ITEM_1_HEAD" x="0.0" y="138.0" text-anchor="middle" font-size="44" font-weight="800" fill="var(--accent-6)" data-bg-id="ITEM_1_BG" fill-opacity="1.0" stroke="none" style="font-size: 30px; font-family: Inter, Segoe UI, Kalam, Roboto, Helvetica, Arial, sans-serif; font-weight: 700; letter-spacing:-0.4px;" data-final-font-size="30">
      <tspan x="0.0" dy="42.25px">Military Equipment</tspan>
    </text>
    <rect id="ITEM_1_HEAD_FRAME" x="-166.0" y="138" width="332.0" height="68" fill="none"/>
    <text id="ITEM_1_BODY" x="0.0" y="206.0" text-anchor="middle" font-size="27" fill="var(--primary-text)" data-bg-id="ITEM_1_BG" style="font-size: 26px; font-family: Inter, Segoe UI, Kalam, Roboto, Helvetica, Arial, sans-serif; font-weight: 400;" data-final-font-size="26">
      <tspan x="0.0" dy="40.04px">State-owned vehicles and</tspan>
      <tspan x="0.0" dy="29.90px">weapons are lawfully seized</tspan>
    </text>
    <rect id="ITEM_1_BODY_FRAME" x="-190.0" y="206" width="380" height="156" fill="none"/>
  </g>
  <g transform="translate(747.5, 255.0)" filter="url(#svgc3438c2d-soft-shadow)">
    <rect id="ITEM_2_BG" x="-200.0" y="0" width="400.0" height="360" rx="28" fill="var(--panel)" fill-opacity="0.92" stroke="var(--accent-2)" stroke-width="2.5"/>
    <rect x="-200.0" y="0" width="400.0" height="360" rx="18" fill="url(#svgc3438c2d-universal-surface-sheen)" opacity="0.86"/>
    <rect x="-184.0" y="12" width="368.0" height="8" rx="4" fill="var(--accent-2)" fill-opacity="0.42"/>
    <circle id="ITEM_2_PAD" cx="0" cy="74" r="46" fill="var(--icon-pad-bg)" stroke="var(--primary-text)" opacity="0.9" fill-opacity="0.9" stroke-width="2"/>
    <circle id="ITEM_2_PAD_INNER" cx="0" cy="74" r="35.88" fill="var(--accent-1)" fill-opacity="0.22"/>
    <circle cx="0" cy="74" r="36" fill="none" stroke="var(--accent-2)" stroke-width="2.25" stroke-dasharray="4 4" opacity="0.8"/>
    <g id="ITEM_2_ICON" transform="translate(-34, 40)" data-icon-size="68" stroke-dasharray="4 4">
      <g transform="translate(-7.005714285714291,-7.005714285714289) scale(2.562857142857143)">
        <path d="M8 26H27V4C27 2.89543 26.1046 2 25 2H8V26Z" fill="#533566"/>
        <path d="M6 27H27V29H6V27Z" fill="#D3D3D3"/>
        <path d="M12.5 7C12.5 6.44772 12.9477 6 13.5 6H18.5C19.0523 6 19.5 6.44772 19.5 7V9C19.5 9.55228 19.0523 10 18.5 10H13.5C12.9477 10 12.5 9.55228 12.5 9V7Z" fill="white"/>
        <path d="M6.5 2C5.67157 2 5 2.67157 5 3.5V28H6C6 27.4477 6.44772 27 7 27H8V2H6.5Z" fill="#321B41"/>
        <path d="M6.5 26C5.67157 26 5 26.6716 5 27.5V28.5C5 29.3284 5.67157 30 6.5 30H25.5C26.1531 30 26.7087 29.5826 26.9146 29H7C6.44772 29 6 28.5523 6 28C6 27.4477 6.44772 27 7 27H27V26H6.5Z" fill="#6B438B"/>
        <path d="M23 2H24V30H23V2Z" fill="#6B438B"/>
      </g>
    </g>
    <text id="ITEM_2_HEAD" x="0.0" y="138.0" text-anchor="middle" font-size="44" font-weight="800" fill="var(--accent-1)" data-bg-id="ITEM_2_BG" fill-opacity="1.0" stroke="none" style="font-size: 30px; font-family: Inter, Segoe UI, Kalam, Roboto, Helvetica, Arial, sans-serif; font-weight: 700; letter-spacing:-0.4px;" data-final-font-size="30">
      <tspan x="0.0" dy="42.25px">Private Property</tspan>
    </text>
    <rect id="ITEM_2_HEAD_FRAME" x="-166.0" y="138" width="332.0" height="68" fill="none"/>
    <text id="ITEM_2_BODY" x="0.0" y="206.0" text-anchor="middle" font-size="27" fill="var(--primary-text)" data-bg-id="ITEM_2_BG" style="font-size: 26px; font-family: Inter, Segoe UI, Kalam, Roboto, Helvetica, Arial, sans-serif; font-weight: 400;" data-final-font-size="26">
      <tspan x="0.0" dy="40.04px">Civilian possessions remain</tspan>
      <tspan x="0.0" dy="29.90px">protected from confiscation</tspan>
    </text>
    <rect id="ITEM_2_BODY_FRAME" x="-190.0" y="206" width="380" height="156" fill="none"/>
  </g>
  <g transform="translate(1172.5, 255.0)" filter="url(#svgc3438c2d-soft-shadow)">
    <rect id="ITEM_3_BG" x="-200.0" y="0" width="400.0" height="360" rx="28" fill="var(--panel)" fill-opacity="0.92" stroke="var(--accent-3)" stroke-width="2.5"/>
    <rect x="-200.0" y="0" width="400.0" height="360" rx="18" fill="url(#svgc3438c2d-universal-surface-sheen)" opacity="0.86"/>
    <rect x="-184.0" y="12" width="368.0" height="8" rx="4" fill="var(--accent-3)" fill-opacity="0.42"/>
    <circle id="ITEM_3_PAD" cx="0" cy="74" r="46" fill="var(--icon-pad-bg)" stroke="var(--primary-text)" opacity="0.9" fill-opacity="0.9" stroke-width="2"/>
    <circle id="ITEM_3_PAD_INNER" cx="0" cy="74" r="35.88" fill="var(--accent-2)" fill-opacity="0.22"/>
    <circle cx="0" cy="74" r="36" fill="none" stroke="var(--accent-3)" stroke-width="2.25" stroke-dasharray="4 4" opacity="0.8"/>
    <g id="ITEM_3_ICON" transform="translate(-34, 40)" data-icon-size="68" stroke-dasharray="4 4">
      <g transform="translate(-8.524444444444448,-8.524444444444448) scale(3.543703703703704)" vector-effect="non-scaling-stroke" stroke-width="2.53" stroke-linecap="round" stroke-linejoin="round" stroke-opacity="1.0">
        <path d="M7 7v10l5 3l5 -3m0 -4v-9l-5 3l-2.496 -1.497" vector-effect="non-scaling-stroke" fill="none" stroke="#f1f5f9"/>
        <path d="M3 3l18 18" vector-effect="non-scaling-stroke" fill="none" stroke="#f1f5f9"/>
      </g>
    </g>
    <text id="ITEM_3_HEAD" x="0.0" y="138.0" text-anchor="middle" font-size="44" font-weight="800" fill="var(--accent-2)" data-bg-id="ITEM_3_BG" fill-opacity="1.0" stroke="none" style="font-size: 30px; font-family: Inter, Segoe UI, Kalam, Roboto, Helvetica, Arial, sans-serif; font-weight: 700; letter-spacing:-0.4px;" data-final-font-size="30">
      <tspan x="0.0" dy="42.25px">Official Seizure</tspan>
    </text>
    <rect id="ITEM_3_HEAD_FRAME" x="-166.0" y="138" width="332.0" height="68" fill="none"/>
    <text id="ITEM_3_BODY" x="0.0" y="206.0" text-anchor="middle" font-size="27" fill="var(--primary-text)" data-bg-id="ITEM_3_BG" style="font-size: 26px; font-family: Inter, Segoe UI, Kalam, Roboto, Helvetica, Arial, sans-serif; font-weight: 400;" data-final-font-size="26">
      <tspan x="0.0" dy="40.04px">Capture occurs through</tspan>
      <tspan x="0.0" dy="29.90px">authorized military channels</tspan>
    </text>
    <rect id="ITEM_3_BODY_FRAME" x="-190.0" y="206" width="380" height="156" fill="none"/>
  </g>
  <g transform="translate(1597.5, 255.0)" filter="url(#svgc3438c2d-soft-shadow)">
    <rect id="ITEM_4_BG" x="-200.0" y="0" width="400.0" height="360" rx="28" fill="var(--panel)" fill-opacity="0.92" stroke="var(--accent-4)" stroke-width="2.5"/>
    <rect x="-200.0" y="0" width="400.0" height="360" rx="18" fill="url(#svgc3438c2d-universal-surface-sheen)" opacity="0.86"/>
    <rect x="-184.0" y="12" width="368.0" height="8" rx="4" fill="var(--accent-4)" fill-opacity="0.42"/>
    <circle id="ITEM_4_PAD" cx="0" cy="74" r="46" fill="var(--icon-pad-bg)" stroke="var(--primary-text)" opacity="0.9" fill-opacity="0.9" stroke-width="2"/>
    <circle id="ITEM_4_PAD_INNER" cx="0" cy="74" r="35.88" fill="var(--accent-3)" fill-opacity="0.22"/>
    <circle cx="0" cy="74" r="36" fill="none" stroke="var(--accent-4)" stroke-width="2.25" stroke-dasharray="4 4" opacity="0.8"/>
    <g id="ITEM_4_ICON" transform="translate(-34, 40)" data-icon-size="68" stroke-dasharray="4 4">
      <g transform="translate(-4.920677966101698,-4.920677966101698) scale(0.15203389830508476)" vector-effect="non-scaling-stroke" fill="#f1f5f9" fill-opacity="1.0" stroke="none">
        <path fill="#f1f5f9" d="M324.9 22.5c-5.1 0-10 .36-14.6 1.22c-.7 3.02-.1 3.89 2.5 6.38c2.8 2.82 8.7 6.14 15.8 9.17c7 3.03 15 5.92 22.4 9.44c4.7 2.28 9.4 4.73 13.2 8.26c12.3 1.11 23.6 4.95 35.5 10.9c-.6-3.96-.9-7.81-1.2-11.24c-.5-5.39-1.1-10.07-2-12.93c-1-2.86-1.6-3.52-3.3-4.27h-.1c-12.3-5.3-32.8-12.94-53.2-15.78c-5.1-.72-10.1-1.15-15-1.15m-31.8 7.71c-1.9 1.2-3.7 2.54-5.3 4.06h-.1S179.2 132 135.1 186.6c-15.7 19.3-24.9 45.3-43.38 67.6c-19.38 23.4-59.28 57.3-63.68 61.1c-2.04 16.5 4.19 37 17.04 58.1c13.58 22.3 34.09 45.1 57.02 64.3c22.9 19.3 48.3 35.1 71.3 43.9c22.4 8.7 42 10.2 54.5 4.6c42.6-36.4 78.7-79.2 113.1-124.1c17-22.2 22.6-32.9 26.4-41.1s6.4-15.4 15.6-26.2c28.7-33.8 94.5-83 97-84.9c.3-.3.7-.9 1.1-1.6c-.6-.1-1.2-.2-1.7-.3c-4.8-1.2-8.7-3.9-12-7c-6.6-6.1-11.7-14.4-16.6-22.9c-4.8-8.5-9.4-17.3-13.6-23.9c-1.1-1.7-2.2-3.2-3.2-4.5c-7.2 2-24.8 7.4-41 16.6c-10.6 6-20.3 13.5-26.2 21.7c-5.8 8.3-8.3 16.7-5.3 28v-.1c10.6 39.2-20.4 85.7-73.4 100l-4.6-17.4c45-12.1 67.8-51.4 60.6-77.8v-.1c-4.3-16.3-.2-31.4 8.1-43c8.2-11.6 20-20.2 31.9-26.9c8.5-4.8 17.1-8.6 24.8-11.6c-11.3-2.8-22.6-6.7-32.8-16.1c-8.3-7.7-11.7-17.6-14.3-26.7c-1.5-5.09-2.7-9.99-4.2-14.44c-4.7 7.38-11.3 17.28-19.1 27.64c-15.6 20.9-34.8 44-56.2 52.4h-.1c-17.3 6.7-36.3 4.9-53.1 7.2s-30.4 7-41 25.4l-15.6-9c13.5-23.5 34.8-31.5 54.1-34.2s37.6-1.8 49.1-6.2c13.5-5.3 33.5-26.5 48.4-46.41c9.7-13.04 17.6-25.28 21.9-32.27c-.8-.5-1.8-1-2.8-1.49c-6.1-2.94-14-5.81-21.7-9.14c-7.8-3.33-15.4-6.96-21.5-12.98c-3.2-3.26-5.7-7.69-6.9-12.6m123.6 27.26c1 9.74 2.4 17.24 6.8 20.87c3.4 2.86 10.8 3.32 20.1 3.31c-2.2-3.55-4.8-6.88-7.1-9.3c-4.6-4.91-12.5-11.24-19.8-14.88m-233.8 8.24c-4.6.01-9 .37-13.2 1.02c-22.5 3.49-40.5 15.55-53.7 32.91C94.29 128.3 86.93 171.2 98.9 209.7c6.1-10.8 12.4-21.9 20.6-32.4c-1.6-23.9 1.6-47 13.9-63.9c8.3-11.4 21.2-19.35 37.5-21q12-1.2 26.4 1.95c7.8-7.59 15.4-14.92 22.7-21.89c-11.6-4.08-22.4-6.2-32.5-6.66c-1.6-.07-3.1-.1-4.6-.09m192.2 11.43c1.6 4.97 2.7 9.79 4 14.18c2.4 8.24 5 14.58 9.2 18.48c7.7 7.2 17.6 9.8 29.5 12.7c-2.3-10.8-6.7-21.9-12.4-30.8c-11.6-7.06-21-11.89-30.3-14.56m54.6 22.31c3.7 9.15 6.4 18.85 7.4 28.65c7 3.4 11 9.7 15.3 16.4c4.9 7.7 9.4 16.6 14 24.6c4.7 8.1 9.4 15.2 13.2 18.7c1.9 1.8 3.4 2.5 4.2 2.7c.2.1.4.1.5.1c0-6-.5-12.9-1.6-20.4c-3.1-20.8-10.5-45.5-19.9-65.9c-1.1-2.3-1.9-2.8-4.4-3.6c-2.5-.75-6.7-1.01-11.7-1.01s-11 .51-17-.24M175.4 247l6.3 9.1c26.8 38.5 59.7 69.9 104.4 89.8l11.5 5l-68.6 74.9l-48.9 13.9l-3.5-2.3c-24.9-16.6-56.3-30-74.4-68.7L101 366l11.1-52l55.7-59zm-2 28.2l-44.7 47.4l-8.8 40.9c14.8 29.5 38.3 40.7 63.1 56.6l36.2-10.3l48.5-52.9c-39.1-19.8-69.5-48.3-94.3-81.7" vector-effect="non-scaling-stroke" stroke="none"/>
      </g>
    </g>
    <text id="ITEM_4_HEAD" x="0.0" y="138.0" text-anchor="middle" font-size="44" font-weight="800" fill="var(--accent-3)" data-bg-id="ITEM_4_BG" fill-opacity="1.0" stroke="none" style="font-size: 30px; font-family: Inter, Segoe UI, Kalam, Roboto, Helvetica, Arial, sans-serif; font-weight: 700; letter-spacing:-0.4px;" data-final-font-size="30">
      <tspan x="0.0" dy="42.25px">Pillage Acts</tspan>
    </text>
    <rect id="ITEM_4_HEAD_FRAME" x="-166.0" y="138" width="332.0" height="68" fill="none"/>
    <text id="ITEM_4_BODY" x="0.0" y="206.0" text-anchor="middle" font-size="27" fill="var(--primary-text)" data-bg-id="ITEM_4_BG" style="font-size: 26px; font-family: Inter, Segoe UI, Kalam, Roboto, Helvetica, Arial, sans-serif; font-weight: 400;" data-final-font-size="26">
      <tspan x="0.0" dy="40.04px">Taking property for private</tspan>
      <tspan x="0.0" dy="29.90px">gain is prohibited</tspan>
    </text>
    <rect id="ITEM_4_BODY_FRAME" x="-190.0" y="206" width="380" height="156" fill="none"/>
  </g>
</svg>
