<?xml version='1.0' encoding='utf-8'?>
<svg xmlns="http://www.w3.org/2000/svg" width="1920" height="1080" viewBox="0 0 1920 1080" data-theme="light">
  <style>
        @font-face {
            font-family: 'Inter';
            src: url('assets/fonts/Inter-Regular.ttf') format('truetype');
            font-weight: 400;
            font-style: normal;
            font-display: swap;
        }
        @font-face {
            font-family: 'Inter';
            src: url('assets/fonts/Inter-Bold.ttf') format('truetype');
            font-weight: 600;
            font-style: normal;
            font-display: swap;
        }
        @font-face {
            font-family: 'Inter';
            src: url('assets/fonts/Inter-Bold.ttf') format('truetype');
            font-weight: 800;
            font-style: normal;
            font-display: swap;
        }
        
:root {
    --background: #f8fafc;
    --panel: #ffffff;
    --primary-text: #0f172a;
    --muted-text: #64748b;
    --inverse-text: #ffffff;
    --border: #e2e8f0;
    --shadow-color: #000000;
    --icon-pad-bg: #1e293b;
    --art-glow: #0891b2;
    --art-glow-opacity: 0.10;
    --art-sheen: #ffffff;
    --art-sheen-opacity: 0.34;
    --art-shadow: #0f172a;
    --art-shadow-opacity: 0.14;
    --art-muted-line: #94a3b8;
    --art-panel-tint: #f1f5f9;
    --font-family: 'Inter', 'Segoe UI', 'Kalam', Roboto, Helvetica, Arial, sans-serif;
    --radius-xl: 16px;
    --font-family-headline: 'Inter', 'Segoe UI', 'Kalam', Roboto, Helvetica, Arial, sans-serif;
    --font-family-body: 'Inter', 'Segoe UI', 'Kalam', Roboto, Helvetica, Arial, sans-serif;
    --font-heading: 'Inter', 'Segoe UI', 'Kalam', Roboto, Helvetica, Arial, sans-serif;
    --font-body: 'Inter', 'Segoe UI', 'Kalam', Roboto, Helvetica, Arial, sans-serif;
    --font-size-h1: 56px;
    --font-size-h2: 40px;
    --font-size-h3: 28px;
    --font-size-body: 24px;
    --font-size-caption: 18px;
    --secondary-text: var(--muted-text);
    --panel-border: var(--border);
    --font-weight-normal: 400;
    --font-weight-medium: 500;
    --font-weight-semibold: 600;
    --font-weight-bold: 700;
    --spacing-gutter-pct: 0.07;
    --spacing-top-pct: 0.15;
    --spacing-bottom-pct: 0.07;
    --spacing-title-y-pct: 0.055;
    --accent-1: #d97706;
    --accent-2: #ea580c;
    --accent-3: #dc2626;
    --accent-4: #65a30d;
    --accent-5: #16a34a;
    --accent-6: #92400e;
}
:root[data-theme="dark"] {
    --background: #0f172a;
    --panel: #1e293b;
    --primary-text: #f1f5f9;
    --muted-text: #94a3b8;
    --inverse-text: #0f172a;
    --border: #334155;
    --shadow-color: #000000;
    --icon-pad-bg: #1e293b;
    --art-glow: #7dd3fc;
    --art-glow-opacity: 0.18;
    --art-sheen: #ffffff;
    --art-sheen-opacity: 0.18;
    --art-shadow: #000000;
    --art-shadow-opacity: 0.28;
    --art-muted-line: #64748b;
    --art-panel-tint: #1e293b;
    --accent-1: #fbbf24;
    --accent-2: #fb923c;
    --accent-3: #f87171;
    --accent-4: #a3e635;
    --accent-5: #4ade80;
    --accent-6: #d4a574;
}
:root[data-theme="light"] {
    --background: #f8fafc;
    --panel: #ffffff;
    --primary-text: #0f172a;
    --muted-text: #64748b;
    --inverse-text: #ffffff;
    --border: #e2e8f0;
    --shadow-color: #000000;
    --icon-pad-bg: #1e293b;
    --art-glow: #0891b2;
    --art-glow-opacity: 0.10;
    --art-sheen: #ffffff;
    --art-sheen-opacity: 0.34;
    --art-shadow: #0f172a;
    --art-shadow-opacity: 0.14;
    --art-muted-line: #94a3b8;
    --art-panel-tint: #f1f5f9;
    --accent-1: #d97706;
    --accent-2: #ea580c;
    --accent-3: #dc2626;
    --accent-4: #65a30d;
    --accent-5: #16a34a;
    --accent-6: #92400e;
}</style>
  <rect x="0" y="0" width="1.92E+3" height="1.08E+3" fill="#252a34" stroke="none" id="programmatic_background"/>
  <line id="HEADER_DECOR" x1="960.0" x2="1080.0" y1="95.0" y2="95.0" stroke="var(--accent-1)" stroke-width="6" stroke-linecap="round"/>
  <defs>
    <pattern id="svg155dacda-napkin-hatch" patternUnits="userSpaceOnUse" width="12" height="12">
      <path d="M -3 12 L 12 -3 M 0 15 L 15 0" fill="none" stroke="var(--primary-text)" stroke-width="1" stroke-opacity="0.05"/>
    </pattern>
    <radialGradient id="svg155dacda-core-glow" cx="50%" cy="50%" r="50%">
      <stop offset="0%" stop-color="var(--accent-1)" stop-opacity="0.9"/>
      <stop offset="70%" stop-color="var(--accent-1)" stop-opacity="0.4"/>
      <stop offset="100%" stop-color="var(--background)" stop-opacity="0"/>
    </radialGradient>
    <radialGradient id="svg155dacda-universal-edge-vignette" cx="50%" cy="50%" r="72%">
      <stop offset="0%" stop-color="var(--background)" stop-opacity="0"/>
      <stop offset="72%" stop-color="var(--background)" stop-opacity="0.12"/>
      <stop offset="100%" stop-color="var(--primary-text)" stop-opacity="0.08"/>
    </radialGradient>
    <linearGradient id="svg155dacda-universal-surface-sheen" x1="0%" y1="0%" x2="100%" y2="100%">
      <stop offset="0%" stop-color="var(--art-sheen)" stop-opacity="var(--art-sheen-opacity)"/>
      <stop offset="46%" stop-color="var(--art-sheen)" stop-opacity="0.035"/>
      <stop offset="100%" stop-color="var(--art-panel-tint)" stop-opacity="0.14"/>
    </linearGradient>
    <radialGradient id="svg155dacda-universal-icon-aura" cx="50%" cy="42%" r="64%">
      <stop offset="0%" stop-color="var(--art-glow)" stop-opacity="var(--art-glow-opacity)"/>
      <stop offset="100%" stop-color="var(--background)" stop-opacity="0"/>
    </radialGradient>
    <radialGradient id="svg155dacda-geode-cavity-glow" cx="48%" cy="50%" r="34%">
      <stop offset="0%" stop-color="var(--inverse-text)" stop-opacity="0.34"/>
      <stop offset="58%" stop-color="var(--accent-2)" stop-opacity="0.12"/>
      <stop offset="100%" stop-color="var(--background)" stop-opacity="0"/>
    </radialGradient>
    <filter id="svg155dacda-text-glow" x="-20%" y="-20%" width="140%" height="140%">
      <feDropShadow dx="0" dy="0" stdDeviation="2" flood-color="#000000" flood-opacity="0.4"/>
    </filter>
    <filter id="svg155dacda-shadow" x="-30%" y="-30%" width="160%" height="160%">
      <feDropShadow dx="0" dy="2" stdDeviation="3" flood-color="#000000" flood-opacity="0.08"/>
      <feDropShadow dx="0" dy="6" stdDeviation="10" flood-color="#000000" flood-opacity="0.12"/>
    </filter>
    <marker id="svg155dacda-arrowhead" markerWidth="10" markerHeight="7" refX="9" refY="3.5" orient="auto" markerUnits="strokeWidth">
      <polygon points="0 0, 10 3.5, 0 7" fill="var(--muted-text)" opacity="0.6"/>
    </marker>
  </defs>
  <rect width="100%" height="100%" fill="var(--background)" id="CANVAS_BG"/>
  <rect width="100%" height="100%" fill="url(#svg155dacda-napkin-hatch)"/>
  <rect id="UNIVERSAL_EDGE_VIGNETTE" width="100%" height="100%" fill="url(#svg155dacda-universal-edge-vignette)" opacity="0.62"/>
  <rect id="TITLE_FRAME" x="134" y="30" width="1652" height="70" fill="none"/>
  <text id="TITLE" x="960.0" y="59" font-size="48" font-weight="700" fill="#0f172a" text-anchor="middle" style="font-size: 60px; font-family: Inter, Segoe UI, Kalam, Roboto, Helvetica, Arial, sans-serif; font-weight: 700; letter-spacing:-1.2px;" data-final-font-size="60">
    <tspan x="960.0" dy="68.00px">Hidden Cues in Foreign Materiel</tspan>
  </text>
  <g id="DIAGRAM_MAIN">
    <ellipse id="GEODE_CAST_SHADOW" cx="970" cy="830" rx="330" ry="54" fill="var(--primary-text)" opacity="0.06"/>
    <polygon points="1329.365607907473,590.0 1273.1799599989595,740.8195198546559 1155.3026032894898,834.9017183672936 1023.3803905662265,867.687634818802 888.625959298386,902.7101043844532 778.0265995981124,818.1874266135815 729.8674247744904,700.8260071894198 737.783670042235,590.0 648.2189947270696,439.8541812342605 709.8324607708777,276.2998280360022 880.8643548035036,243.2840844280828 1012.4720460339722,360.104945281902 1053.612262324886,472.6139359257163 1175.5070317732368,486.21728332346146" fill="var(--background)" stroke="var(--primary-text)" stroke-width="4" stroke-opacity="0.3"/>
    <polygon points="1329.365607907473,590.0 1273.1799599989595,740.8195198546559 1227.0127834971343,718.5865794293695 1276.9584554769426,590.0" fill="var(--accent-1)" fill-opacity="0.18" stroke="var(--primary-text)" stroke-width="1.5" stroke-opacity="0.2"/>
    <polygon points="1273.1799599989595,740.8195198546559 1155.3026032894898,834.9017183672936 1122.5211643726343,793.7950941540444 1227.0127834971343,718.5865794293695" fill="var(--accent-2)" fill-opacity="0.14" stroke="var(--primary-text)" stroke-width="1.5" stroke-opacity="0.2"/>
    <polygon points="1155.3026032894898,834.9017183672936 1023.3803905662265,867.687634818802 1014.2706016482189,827.7750417321942 1122.5211643726343,793.7950941540444" fill="var(--accent-3)" fill-opacity="0.30" stroke="var(--primary-text)" stroke-width="1.5" stroke-opacity="0.2"/>
    <polygon points="1023.3803905662265,867.687634818802 888.625959298386,902.7101043844532 897.9549703193385,861.8370365086728 1014.2706016482189,827.7750417321942" fill="var(--accent-4)" fill-opacity="0.20" stroke="var(--primary-text)" stroke-width="1.5" stroke-opacity="0.2"/>
    <polygon points="888.625959298386,902.7101043844532 778.0265995981124,818.1874266135815 811.4764694693029,776.2426164951299 897.9549703193385,861.8370365086728" fill="var(--accent-5)" fill-opacity="0.12" stroke="var(--primary-text)" stroke-width="1.5" stroke-opacity="0.2"/>
    <polygon points="778.0265995981124,818.1874266135815 729.8674247744904,700.8260071894198 758.8766385561854,686.8559061205939 811.4764694693029,776.2426164951299" fill="var(--accent-6)" fill-opacity="0.11" stroke="var(--primary-text)" stroke-width="1.5" stroke-opacity="0.2"/>
    <polygon points="729.8674247744904,700.8260071894198 737.783670042235,590.0 767.1533316361352,590.0 758.8766385561854,686.8559061205939" fill="var(--accent-1)" fill-opacity="0.12" stroke="var(--primary-text)" stroke-width="1.5" stroke-opacity="0.2"/>
    <polygon points="737.783670042235,590.0 648.2189947270696,439.8541812342605 697.8647317436248,463.7623081134269 767.1533316361352,590.0" fill="var(--accent-2)" fill-opacity="0.23" stroke="var(--primary-text)" stroke-width="1.5" stroke-opacity="0.2"/>
    <polygon points="648.2189947270696,439.8541812342605 709.8324607708777,276.2998280360022 751.6536920232186,328.7419932986575 697.8647317436248,463.7623081134269" fill="var(--accent-3)" fill-opacity="0.26" stroke="var(--primary-text)" stroke-width="1.5" stroke-opacity="0.2"/>
    <polygon points="709.8324607708777,276.2998280360022 880.8643548035036,243.2840844280828 890.6999119860883,286.37647604569446 751.6536920232186,328.7419932986575" fill="var(--accent-4)" fill-opacity="0.18" stroke="var(--primary-text)" stroke-width="1.5" stroke-opacity="0.2"/>
    <polygon points="880.8643548035036,243.2840844280828 1012.4720460339722,360.104945281902 1003.8740164401745,397.7753742690661 890.6999119860883,286.37647604569446" fill="var(--accent-5)" fill-opacity="0.11" stroke="var(--primary-text)" stroke-width="1.5" stroke-opacity="0.2"/>
    <polygon points="1012.4720460339722,360.104945281902 1053.612262324886,472.6139359257163 1034.492046707812,496.58992795708616 1003.8740164401745,397.7753742690661" fill="var(--accent-6)" fill-opacity="0.18" stroke="var(--primary-text)" stroke-width="1.5" stroke-opacity="0.2"/>
    <polygon points="1053.612262324886,472.6139359257163 1175.5070317732368,486.21728332346146 1135.9140572190925,505.28425495182967 1034.492046707812,496.58992795708616" fill="var(--accent-1)" fill-opacity="0.30" stroke="var(--primary-text)" stroke-width="1.5" stroke-opacity="0.2"/>
    <polygon points="1175.5070317732368,486.21728332346146 1329.365607907473,590.0 1276.9584554769426,590.0 1135.9140572190925,505.28425495182967" fill="var(--accent-2)" fill-opacity="0.21" stroke="var(--primary-text)" stroke-width="1.5" stroke-opacity="0.2"/>
    <polygon points="1276.9584554769426,590.0 1227.0127834971343,718.5865794293695 1181.0950505003243,696.4737646649249 1225.5058128621804,590.0" fill="var(--accent-2)" fill-opacity="0.44" stroke="var(--primary-text)" stroke-width="1.5" stroke-opacity="0.2"/>
    <polygon points="1227.0127834971343,718.5865794293695 1122.5211643726343,793.7950941540444 1100.541649227624,766.2336539211447 1181.0950505003243,696.4737646649249" fill="var(--accent-3)" fill-opacity="0.42" stroke="var(--primary-text)" stroke-width="1.5" stroke-opacity="0.2"/>
    <polygon points="1122.5211643726343,793.7950941540444 1014.2706016482189,827.7750417321942 1005.3886760310498,788.8607829964254 1100.541649227624,766.2336539211447" fill="var(--accent-4)" fill-opacity="0.25" stroke="var(--primary-text)" stroke-width="1.5" stroke-opacity="0.2"/>
    <polygon points="1014.2706016482189,827.7750417321942 897.9549703193385,861.8370365086728 909.8769413339511,809.6034686204025 1005.3886760310498,788.8607829964254" fill="var(--accent-5)" fill-opacity="0.39" stroke="var(--primary-text)" stroke-width="1.5" stroke-opacity="0.2"/>
    <polygon points="897.9549703193385,861.8370365086728 811.4764694693029,776.2426164951299 826.7189626398839,757.1291346121267 909.8769413339511,809.6034686204025" fill="var(--accent-6)" fill-opacity="0.39" stroke="var(--primary-text)" stroke-width="1.5" stroke-opacity="0.2"/>
    <polygon points="811.4764694693029,776.2426164951299 758.8766385561854,686.8559061205939 801.0959322352562,666.5241658607722 826.7189626398839,757.1291346121267" fill="var(--accent-1)" fill-opacity="0.36" stroke="var(--primary-text)" stroke-width="1.5" stroke-opacity="0.2"/>
    <polygon points="758.8766385561854,686.8559061205939 767.1533316361352,590.0 803.4077564040999,590.0 801.0959322352562,666.5241658607722" fill="var(--accent-2)" fill-opacity="0.30" stroke="var(--primary-text)" stroke-width="1.5" stroke-opacity="0.2"/>
    <polygon points="767.1533316361352,590.0 697.8647317436248,463.7623081134269 735.8176293602728,482.0394603158053 803.4077564040999,590.0" fill="var(--accent-3)" fill-opacity="0.38" stroke="var(--primary-text)" stroke-width="1.5" stroke-opacity="0.2"/>
    <polygon points="697.8647317436248,463.7623081134269 751.6536920232186,328.7419932986575 783.4048054012558,368.5566301513479 735.8176293602728,482.0394603158053" fill="var(--accent-4)" fill-opacity="0.27" stroke="var(--primary-text)" stroke-width="1.5" stroke-opacity="0.2"/>
    <polygon points="751.6536920232186,328.7419932986575 890.6999119860883,286.37647604569446 902.9953012169406,340.246096036823 783.4048054012558,368.5566301513479" fill="var(--accent-5)" fill-opacity="0.34" stroke="var(--primary-text)" stroke-width="1.5" stroke-opacity="0.2"/>
    <polygon points="890.6999119860883,286.37647604569446 1003.8740164401745,397.7753742690661 997.0746816559017,427.5652063877722 902.9953012169406,340.246096036823" fill="var(--accent-6)" fill-opacity="0.34" stroke="var(--primary-text)" stroke-width="1.5" stroke-opacity="0.2"/>
    <polygon points="1003.8740164401745,397.7753742690661 1034.492046707812,496.58992795708616 1028.0795526999707,504.630941108419 997.0746816559017,427.5652063877722" fill="var(--accent-1)" fill-opacity="0.44" stroke="var(--primary-text)" stroke-width="1.5" stroke-opacity="0.2"/>
    <polygon points="1034.492046707812,496.58992795708616 1135.9140572190925,505.28425495182967 1102.670960423533,521.2932866191331 1028.0795526999707,504.630941108419" fill="var(--accent-2)" fill-opacity="0.43" stroke="var(--primary-text)" stroke-width="1.5" stroke-opacity="0.2"/>
    <polygon points="1135.9140572190925,505.28425495182967 1276.9584554769426,590.0 1225.5058128621804,590.0 1102.670960423533,521.2932866191331" fill="var(--accent-3)" fill-opacity="0.30" stroke="var(--primary-text)" stroke-width="1.5" stroke-opacity="0.2"/>
    <polygon points="1225.5058128621804,590.0 1181.0950505003243,696.4737646649249 1128.453880239427,671.1231131629511 1157.709049862141,590.0" fill="var(--accent-3)" fill-opacity="0.50" stroke="var(--accent-3)" stroke-width="1.5" stroke-opacity="0.8"/>
    <polygon points="1181.0950505003243,696.4737646649249 1100.541649227624,766.2336539211447 1062.1765234682725,718.1253078694763 1128.453880239427,671.1231131629511" fill="var(--accent-4)" fill-opacity="0.44" stroke="var(--accent-4)" stroke-width="1.5" stroke-opacity="0.8"/>
    <polygon points="1100.541649227624,766.2336539211447 1005.3886760310498,788.8607829964254 993.670022380853,737.5180066848212 1062.1765234682725,718.1253078694763" fill="var(--accent-5)" fill-opacity="0.58" stroke="var(--accent-5)" stroke-width="1.5" stroke-opacity="0.8"/>
    <polygon points="1005.3886760310498,788.8607829964254 909.8769413339511,809.6034686204025 922.519988305612,754.2106605436671 993.670022380853,737.5180066848212" fill="var(--accent-6)" fill-opacity="0.57" stroke="var(--accent-6)" stroke-width="1.5" stroke-opacity="0.8"/>
    <polygon points="909.8769413339511,809.6034686204025 826.7189626398839,757.1291346121267 862.6832536630477,712.0313400969203 922.519988305612,754.2106605436671" fill="var(--accent-1)" fill-opacity="0.46" stroke="var(--accent-1)" stroke-width="1.5" stroke-opacity="0.8"/>
    <polygon points="826.7189626398839,757.1291346121267 801.0959322352562,666.5241658607722 830.9821344231524,652.1317294345314 862.6832536630477,712.0313400969203" fill="var(--accent-2)" fill-opacity="0.53" stroke="var(--accent-2)" stroke-width="1.5" stroke-opacity="0.8"/>
    <polygon points="801.0959322352562,666.5241658607722 803.4077564040999,590.0 840.4843749438276,590.0 830.9821344231524,652.1317294345314" fill="var(--accent-3)" fill-opacity="0.52" stroke="var(--accent-3)" stroke-width="1.5" stroke-opacity="0.8"/>
    <polygon points="803.4077564040999,590.0 735.8176293602728,482.0394603158053 790.859705241666,508.5463270267623 840.4843749438276,590.0" fill="var(--accent-4)" fill-opacity="0.43" stroke="var(--accent-4)" stroke-width="1.5" stroke-opacity="0.8"/>
    <polygon points="735.8176293602728,482.0394603158053 783.4048054012558,368.5566301513479 826.0302415004955,422.00723639537057 790.859705241666,508.5463270267623" fill="var(--accent-5)" fill-opacity="0.55" stroke="var(--accent-5)" stroke-width="1.5" stroke-opacity="0.8"/>
    <polygon points="783.4048054012558,368.5566301513479 902.9953012169406,340.246096036823 917.5124413953304,403.8498429442799 826.0302415004955,422.00723639537057" fill="var(--accent-6)" fill-opacity="0.51" stroke="var(--accent-6)" stroke-width="1.5" stroke-opacity="0.8"/>
    <polygon points="902.9953012169406,340.246096036823 997.0746816559017,427.5652063877722 990.8029210521667,455.043584994183 917.5124413953304,403.8498429442799" fill="var(--accent-1)" fill-opacity="0.56" stroke="var(--accent-1)" stroke-width="1.5" stroke-opacity="0.8"/>
    <polygon points="997.0746816559017,427.5652063877722 1028.0795526999707,504.630941108419 1013.3327153389969,523.1228902650425 990.8029210521667,455.043584994183" fill="var(--accent-2)" fill-opacity="0.51" stroke="var(--accent-2)" stroke-width="1.5" stroke-opacity="0.8"/>
    <polygon points="1028.0795526999707,504.630941108419 1102.670960423533,521.2932866191331 1080.495340247857,531.9725024520548 1013.3327153389969,523.1228902650425" fill="var(--accent-3)" fill-opacity="0.40" stroke="var(--accent-3)" stroke-width="1.5" stroke-opacity="0.8"/>
    <polygon points="1102.670960423533,521.2932866191331 1225.5058128621804,590.0 1157.709049862141,590.0 1080.495340247857,531.9725024520548" fill="var(--accent-4)" fill-opacity="0.46" stroke="var(--accent-4)" stroke-width="1.5" stroke-opacity="0.8"/>
    <polygon points="1157.709049862141,590.0 1128.453880239427,671.1231131629511 1089.4007062346923,652.316095778397 1101.1690161269512,590.0" fill="var(--accent-4)" fill-opacity="0.55" stroke="var(--accent-4)" stroke-width="1.5" stroke-opacity="0.8"/>
    <polygon points="1128.453880239427,671.1231131629511 1062.1765234682725,718.1253078694763 1033.9237390663855,682.6974368009744 1089.4007062346923,652.316095778397" fill="var(--accent-5)" fill-opacity="0.74" stroke="var(--accent-5)" stroke-width="1.5" stroke-opacity="0.8"/>
    <polygon points="1062.1765234682725,718.1253078694763 993.670022380853,737.5180066848212 984.8156824728219,698.7246088376788 1033.9237390663855,682.6974368009744" fill="var(--accent-6)" fill-opacity="0.73" stroke="var(--accent-6)" stroke-width="1.5" stroke-opacity="0.8"/>
    <polygon points="993.670022380853,737.5180066848212 922.519988305612,754.2106605436671 929.2717998558128,724.629041317789 984.8156824728219,698.7246088376788" fill="var(--accent-1)" fill-opacity="0.72" stroke="var(--accent-1)" stroke-width="1.5" stroke-opacity="0.8"/>
    <polygon points="922.519988305612,754.2106605436671 862.6832536630477,712.0313400969203 885.464871388611,683.4640950412704 929.2717998558128,724.629041317789" fill="var(--accent-2)" fill-opacity="0.61" stroke="var(--accent-2)" stroke-width="1.5" stroke-opacity="0.8"/>
    <polygon points="862.6832536630477,712.0313400969203 830.9821344231524,652.1317294345314 866.9207709862766,634.8245942311825 885.464871388611,683.4640950412704" fill="var(--accent-3)" fill-opacity="0.56" stroke="var(--accent-3)" stroke-width="1.5" stroke-opacity="0.8"/>
    <polygon points="830.9821344231524,652.1317294345314 840.4843749438276,590.0 867.4211829970965,590.0 866.9207709862766,634.8245942311825" fill="var(--accent-4)" fill-opacity="0.73" stroke="var(--accent-4)" stroke-width="1.5" stroke-opacity="0.8"/>
    <polygon points="840.4843749438276,590.0 790.859705241666,508.5463270267623 829.1096197629961,526.9665150317924 867.4211829970965,590.0" fill="var(--accent-5)" fill-opacity="0.74" stroke="var(--accent-5)" stroke-width="1.5" stroke-opacity="0.8"/>
    <polygon points="790.859705241666,508.5463270267623 826.0302415004955,422.00723639537057 856.4913217050912,460.204222814296 829.1096197629961,526.9665150317924" fill="var(--accent-6)" fill-opacity="0.57" stroke="var(--accent-6)" stroke-width="1.5" stroke-opacity="0.8"/>
    <polygon points="826.0302415004955,422.00723639537057 917.5124413953304,403.8498429442799 929.5515914430777,456.5968057212666 856.4913217050912,460.204222814296" fill="var(--accent-1)" fill-opacity="0.65" stroke="var(--accent-1)" stroke-width="1.5" stroke-opacity="0.8"/>
    <polygon points="917.5124413953304,403.8498429442799 990.8029210521667,455.043584994183 978.9064685991008,507.1653487591812 929.5515914430777,456.5968057212666" fill="var(--accent-2)" fill-opacity="0.56" stroke="var(--accent-2)" stroke-width="1.5" stroke-opacity="0.8"/>
    <polygon points="990.8029210521667,455.043584994183 1013.3327153389969,523.1228902650425 995.1436420799689,545.931266710705 978.9064685991008,507.1653487591812" fill="var(--accent-3)" fill-opacity="0.70" stroke="var(--accent-3)" stroke-width="1.5" stroke-opacity="0.8"/>
    <polygon points="1013.3327153389969,523.1228902650425 1080.495340247857,531.9725024520548 1042.0176479086513,550.5023824729012 995.1436420799689,545.931266710705" fill="var(--accent-4)" fill-opacity="0.70" stroke="var(--accent-4)" stroke-width="1.5" stroke-opacity="0.8"/>
    <polygon points="1080.495340247857,531.9725024520548 1157.709049862141,590.0 1101.1690161269512,590.0 1042.0176479086513,550.5023824729012" fill="var(--accent-5)" fill-opacity="0.58" stroke="var(--accent-5)" stroke-width="1.5" stroke-opacity="0.8"/>
    <polygon points="1101.1690161269512,590.0 1089.4007062346923,652.316095778397 1046.2759472778887,631.5483064226077 1046.5610588485947,590.0" fill="var(--accent-5)" fill-opacity="0.80" stroke="var(--accent-5)" stroke-width="1.5" stroke-opacity="0.8"/>
    <polygon points="1089.4007062346923,652.316095778397 1033.9237390663855,682.6974368009744 1013.5188783594822,657.1105507789854 1046.2759472778887,631.5483064226077" fill="var(--accent-6)" fill-opacity="0.81" stroke="var(--accent-6)" stroke-width="1.5" stroke-opacity="0.8"/>
    <polygon points="1033.9237390663855,682.6974368009744 984.8156824728219,698.7246088376788 975.0203366206069,655.8083945696155 1013.5188783594822,657.1105507789854" fill="var(--accent-1)" fill-opacity="0.75" stroke="var(--accent-1)" stroke-width="1.5" stroke-opacity="0.8"/>
    <polygon points="984.8156824728219,698.7246088376788 929.2717998558128,724.629041317789 941.4647226851097,671.2083559646786 975.0203366206069,655.8083945696155" fill="var(--accent-2)" fill-opacity="0.87" stroke="var(--accent-2)" stroke-width="1.5" stroke-opacity="0.8"/>
    <polygon points="929.2717998558128,724.629041317789 885.464871388611,683.4640950412704 915.8080988060893,645.4148913430731 941.4647226851097,671.2083559646786" fill="var(--accent-3)" fill-opacity="0.78" stroke="var(--accent-3)" stroke-width="1.5" stroke-opacity="0.8"/>
    <polygon points="885.464871388611,683.4640950412704 866.9207709862766,634.8245942311825 894.9969667412183,621.3038109629309 915.8080988060893,645.4148913430731" fill="var(--accent-4)" fill-opacity="0.74" stroke="var(--accent-4)" stroke-width="1.5" stroke-opacity="0.8"/>
    <polygon points="866.9207709862766,634.8245942311825 867.4211829970965,590.0 905.2688804588108,590.0 894.9969667412183,621.3038109629309" fill="var(--accent-5)" fill-opacity="0.81" stroke="var(--accent-5)" stroke-width="1.5" stroke-opacity="0.8"/>
    <polygon points="867.4211829970965,590.0 829.1096197629961,526.9665150317924 886.2914616860005,554.5038387585756 905.2688804588108,590.0" fill="var(--accent-6)" fill-opacity="0.85" stroke="var(--accent-6)" stroke-width="1.5" stroke-opacity="0.8"/>
    <polygon points="829.1096197629961,526.9665150317924 856.4913217050912,460.204222814296 900.617618493206,515.5368488345252 886.2914616860005,554.5038387585756" fill="var(--accent-1)" fill-opacity="0.74" stroke="var(--accent-1)" stroke-width="1.5" stroke-opacity="0.8"/>
    <polygon points="856.4913217050912,460.204222814296 929.5515914430777,456.5968057212666 939.9429748102931,502.1244309687372 900.617618493206,515.5368488345252" fill="var(--accent-2)" fill-opacity="0.76" stroke="var(--accent-2)" stroke-width="1.5" stroke-opacity="0.8"/>
    <polygon points="929.5515914430777,456.5968057212666 978.9064685991008,507.1653487591812 972.0621123312841,537.1524328854825 939.9429748102931,502.1244309687372" fill="var(--accent-3)" fill-opacity="0.90" stroke="var(--accent-3)" stroke-width="1.5" stroke-opacity="0.8"/>
    <polygon points="978.9064685991008,507.1653487591812 995.1436420799689,545.931266710705 984.4578356269114,559.3308441787791 972.0621123312841,537.1524328854825" fill="var(--accent-4)" fill-opacity="0.83" stroke="var(--accent-4)" stroke-width="1.5" stroke-opacity="0.8"/>
    <polygon points="995.1436420799689,545.931266710705 1042.0176479086513,550.5023824729012 1021.0452786046092,560.602143225986 984.4578356269114,559.3308441787791" fill="var(--accent-5)" fill-opacity="0.79" stroke="var(--accent-5)" stroke-width="1.5" stroke-opacity="0.8"/>
    <polygon points="1042.0176479086513,550.5023824729012 1101.1690161269512,590.0 1046.5610588485947,590.0 1021.0452786046092,560.602143225986" fill="var(--accent-6)" fill-opacity="0.80" stroke="var(--accent-6)" stroke-width="1.5" stroke-opacity="0.8"/>
    <ellipse id="GEODE_CAVITY_GLOW" cx="988" cy="594" rx="156" ry="122" fill="url(#svg155dacda-geode-cavity-glow)" opacity="0.94"/>
    <polygon points="1046.5610588485947,590.0 1046.2759472778887,631.5483064226077 1013.5188783594822,657.1105507789854 975.0203366206069,655.8083945696155 941.4647226851097,671.2083559646786 915.8080988060893,645.4148913430731 894.9969667412183,621.3038109629309 905.2688804588108,590.0 886.2914616860005,554.5038387585756 900.617618493206,515.5368488345252 939.9429748102931,502.1244309687372 972.0621123312841,537.1524328854825 984.4578356269114,559.3308441787791 1021.0452786046092,560.602143225986" fill="url(#svg155dacda-core-glow)" stroke="var(--accent-1)" stroke-width="3"/>
    <!-- Geometry for Node 1 -->
    <path id="ITEM_1_CONN" d="M 700.8769975405189 767.2755838705459 L 600.8769975405189 767.2755838705459 L 300 844.089113027766" fill="transparent" stroke="var(--accent-1)" stroke-width="2" stroke-dasharray="6 4" opacity="0.8" stroke-opacity="1.0"/>
    <circle id="ITEM_1_DOT" cx="700.8769975405189" cy="767.2755838705459" r="8" fill="var(--background)" stroke="var(--accent-1)" stroke-width="3"/>
    <g transform="translate(300, 844.089113027766)">
      <circle id="ITEM_1_BORDER" cx="0" cy="0" r="37" fill="var(--background)" stroke="var(--accent-1)" stroke-width="3"/>
      <circle id="ITEM_1_STROKE" cx="0" cy="0" r="45" fill="transparent" stroke="var(--accent-1)" stroke-width="3" stroke-dasharray="6 4" stroke-opacity="1.0"/>
      <circle id="ITEM_1_PAD" cx="0.00" cy="0.00" r="40.00" fill="var(--icon-pad-bg)" stroke="var(--primary-text)" stroke-width="2" opacity="0.9"/>
      <circle id="ITEM_1_PAD_INNER" cx="0.00" cy="0.00" r="31.20" fill="var(--accent-1)" fill-opacity="0.22"/>
      <g id="ITEM_1_ICON" transform="translate(-25, -25)" data-icon-size="50" stroke-dasharray="6 4">
        <g transform="translate(-15.800000000000004,-15.800000000000004) scale(0.30000000000000004)" vector-effect="non-scaling-stroke" stroke-width="2.31" stroke-linecap="round" stroke-linejoin="round" stroke-opacity="1.0">
          <path d="M112,168V144a32,32,0,0,1,32-32h24" fill="none" stroke="#f1f5f9" vector-effect="non-scaling-stroke"/>
          <path d="M168,48H144a96,96,0,0,0-96,96v24" fill="none" stroke="#f1f5f9" vector-effect="non-scaling-stroke"/>
          <rect x="168" y="40" width="32" height="80" rx="8" fill="none" stroke="#f1f5f9" vector-effect="non-scaling-stroke"/>
          <rect x="40" y="168" width="80" height="32" rx="8" fill="none" stroke="#f1f5f9" vector-effect="non-scaling-stroke"/>
          <line x1="112" y1="200" x2="112" y2="232" fill="none" stroke="#f1f5f9" vector-effect="non-scaling-stroke"/>
          <line x1="48" y1="200" x2="48" y2="232" fill="none" stroke="#f1f5f9" vector-effect="non-scaling-stroke"/>
          <line x1="232" y1="48" x2="200" y2="48" fill="none" stroke="#f1f5f9" vector-effect="non-scaling-stroke"/>
          <line x1="232" y1="112" x2="200" y2="112" fill="none" stroke="#f1f5f9" vector-effect="non-scaling-stroke"/>
        </g>
      </g>
    </g>
    <rect id="ITEM_1_HEAD_FRAME" x="28" y="784.089113027766" width="210" height="40" fill="none" pointer-events="none"/>
    <rect id="ITEM_1_BODY_FRAME" x="26" y="834.089113027766" width="220" height="120" fill="none" pointer-events="none"/>
    <rect id="ITEM_1_TEXT_BG" x="8" y="770.089113027766" width="258" height="202" rx="22" fill="var(--panel)" fill-opacity="0.94" stroke="var(--accent-1)" stroke-width="2"/>
    <text id="ITEM_1_HEAD" x="28.0" y="784.089113027766" font-family="var(--font-heading)" font-size="24" font-weight="bold" fill="var(--primary-text)" text-anchor="start" data-bg-id="ITEM_1_TEXT_BG" fill-opacity="1.0" style="font-size: 22px; font-family: Inter, Segoe UI, Kalam, Roboto, Helvetica, Arial, sans-serif; font-weight: 700; letter-spacing:-0.4px;" data-final-font-size="22">
      <tspan x="28.0" dy="24.95px">Acoustic Signatures</tspan>
    </text>
    <text id="ITEM_1_BODY" x="26.0" y="834.089113027766" font-family="var(--font-body)" font-size="18" fill="var(--primary-text)" text-anchor="start" data-bg-id="ITEM_1_TEXT_BG" style="font-size: 26px; font-family: Inter, Segoe UI, Kalam, Roboto, Helvetica, Arial, sans-serif; font-weight: 400;" data-final-font-size="26">
      <tspan x="26.0" dy="20.88px">Distinctive</tspan>
      <tspan x="26.0" dy="29.90px">engine and track</tspan>
      <tspan x="26.0" dy="29.90px">noises identify</tspan>
      <tspan x="26.0" dy="29.90px">specific models</tspan>
    </text>
    <!-- Geometry for Node 2 -->
    <path id="ITEM_2_CONN" d="M 701.4440744647688 590.0 L 601.4440744647688 590.0 L 300 590.0" fill="transparent" stroke="var(--accent-2)" stroke-width="2" stroke-dasharray="6 4" opacity="0.8" stroke-opacity="1.0"/>
    <circle id="ITEM_2_DOT" cx="701.4440744647688" cy="590.0" r="8" fill="var(--background)" stroke="var(--accent-2)" stroke-width="3"/>
    <g transform="translate(300, 590.0)">
      <circle id="ITEM_2_BORDER" cx="0" cy="0" r="37" fill="var(--background)" stroke="var(--accent-2)" stroke-width="3"/>
      <circle id="ITEM_2_STROKE" cx="0" cy="0" r="45" fill="transparent" stroke="var(--accent-2)" stroke-width="3" stroke-dasharray="6 4" stroke-opacity="1.0"/>
      <circle id="ITEM_2_PAD" cx="0.00" cy="0.00" r="40.00" fill="var(--icon-pad-bg)" stroke="var(--primary-text)" stroke-width="2" opacity="0.9"/>
      <circle id="ITEM_2_PAD_INNER" cx="0.00" cy="0.00" r="31.20" fill="var(--accent-2)" fill-opacity="0.22"/>
      <g id="ITEM_2_ICON" transform="translate(-25, -25)" data-icon-size="50" stroke-dasharray="6 4">
        <g transform="translate(-8.280000000000003,-8.280000000000003) scale(0.13)" vector-effect="non-scaling-stroke" fill="#f1f5f9" fill-opacity="1.0" stroke="none">
          <path fill="#f1f5f9" d="M16.375 17.22v94.28l20.47 14.25l6.374-32.063l50.468 33.22L71.844 37.03l29.53 14.032L91.22 17.22H16.374zm119.72 0l19.843 42.03l-42.032 46.72H155l4.656 39.718L180.686 120l10.408 61.938l38.75-56.72l25.22 32.657l24.186-91.156l33.78 21.124l.595-50.78l47.656 24.436l-3.03 67.5l28.438-41.813l12.78 22.126l60.157-64.25l1.188 44.187l33.875-42.625V17.22H136.094zM85.468 186.03c-16.63.038-34.107 1.616-52.345 4.376l-7.906 1.188l-.064 7.97c-.35 40.24 4.84 67.31 16.125 85.936c11.287 18.627 29.17 27.313 48.626 29.938c6.937.935 14.17 1.266 21.656 1.218v-92.47c-18.67 4.285-32.593 20.996-32.593 40.97c0 12.76 5.68 24.195 14.655 31.906a78 78 0 0 1-1.22-.156c-16.03-2.162-26.822-7.34-35.155-21.094c-7.72-12.74-12.852-34.287-13.313-67.968c14.533-1.918 28.44-3.073 41.47-3.094c25.72-.042 48.403 3.894 67.593 12.78c27.768 12.86 49.145 36.087 63.406 75.626c-23.567-1.313-45.838.293-65.906 1.97c7.748-7.628 12.563-18.238 12.563-29.97c0-20.04-14.044-36.785-32.813-41v91.75c29.98-2.004 63.35-7.024 98.438-3.187l13.968 1.53l-4-13.47c-15.143-51.256-42.066-83.663-77.812-100.217c-22.342-10.347-47.66-14.594-75.375-14.532zm347.624 0c-27.716-.06-53.034 4.186-75.375 14.532c-35.748 16.555-62.67 48.962-77.814 100.22l-3.97 13.468l13.94-1.53c35.57-3.89 69.386 1.335 99.687 3.28v-92.125c-19.397 3.735-34.063 20.795-34.063 41.28c0 11.726 4.822 22.344 12.563 29.97c-20.063-1.682-42.327-3.31-65.875-2c14.26-39.522 35.645-62.737 63.406-75.594c19.19-8.886 41.87-12.822 67.594-12.78c13.038.022 26.924 1.173 41.468 3.094c-.46 33.68-5.624 55.228-13.344 67.97c-8.333 13.753-19.093 18.93-35.125 21.092c-.41.056-.832.107-1.25.156c8.984-7.71 14.688-19.137 14.688-31.906c0-19.525-13.332-35.927-31.375-40.656v92.156c7.04.004 13.86-.335 20.406-1.22c19.458-2.623 37.37-11.31 48.656-29.936c11.287-18.627 16.443-45.695 16.094-85.938l-.062-7.968l-7.875-1.188c-18.24-2.76-35.747-4.338-52.376-4.375zm37.937 139.19l-2.717 35.124l-80.407-4.063l78.375 66.25l-39.874 9.44l68.28 27.03l.002-105.406l-23.657-28.375zm-131.124 12.03L274.5 422.53l-12.28-42.06l-29.19 96.936l-50.218-67.72l-14.593 85.845h257.53l-6.406-34.467l-53.156 19.875l-9.344-53.157l-16.938 13.44zm-300.78 15.188l-22.75 19.843v123.25h130.06l-16.186-76.5l-13.875 16.72l-24.688-54.125l-33.28 54.344l-19.282-83.533z" vector-effect="non-scaling-stroke" stroke="none"/>
        </g>
      </g>
    </g>
    <rect id="ITEM_2_HEAD_FRAME" x="28" y="530.0" width="210" height="40" fill="none" pointer-events="none"/>
    <rect id="ITEM_2_BODY_FRAME" x="26" y="580.0" width="220" height="120" fill="none" pointer-events="none"/>
    <rect id="ITEM_2_TEXT_BG" x="8" y="516" width="258" height="202" rx="22" fill="var(--panel)" fill-opacity="0.94" stroke="var(--accent-2)" stroke-width="2"/>
    <text id="ITEM_2_HEAD" x="28.0" y="530.0" font-family="var(--font-heading)" font-size="24" font-weight="bold" fill="var(--primary-text)" text-anchor="start" data-bg-id="ITEM_2_TEXT_BG" fill-opacity="1.0" style="font-size: 25px; font-family: Inter, Segoe UI, Kalam, Roboto, Helvetica, Arial, sans-serif; font-weight: 700; letter-spacing:-0.4px;" data-final-font-size="25">
      <tspan x="28.0" dy="25.62px">Visual Distortion</tspan>
    </text>
    <text id="ITEM_2_BODY" x="26.0" y="580.0" font-family="var(--font-body)" font-size="18" fill="var(--primary-text)" text-anchor="start" data-bg-id="ITEM_2_TEXT_BG" style="font-size: 23px; font-family: Inter, Segoe UI, Kalam, Roboto, Helvetica, Arial, sans-serif; font-weight: 400;" data-final-font-size="23">
      <tspan x="26.0" dy="21.24px">Camouflage patterns</tspan>
      <tspan x="26.0" dy="26.45px">obscure shapes and</tspan>
      <tspan x="26.0" dy="26.45px">proportions at</tspan>
      <tspan x="26.0" dy="26.45px">distance</tspan>
    </text>
    <!-- Geometry for Node 3 -->
    <path id="ITEM_3_CONN" d="M 792.3321748791592 475.292269260235 L 692.3321748791592 475.292269260235 L 300 335.9108869722341" fill="transparent" stroke="var(--accent-3)" stroke-width="2" stroke-dasharray="6 4" opacity="0.8" stroke-opacity="1.0"/>
    <circle id="ITEM_3_DOT" cx="792.3321748791592" cy="475.292269260235" r="8" fill="var(--background)" stroke="var(--accent-3)" stroke-width="3"/>
    <g transform="translate(300, 335.9108869722341)">
      <circle id="ITEM_3_BORDER" cx="0" cy="0" r="37" fill="var(--background)" stroke="var(--accent-3)" stroke-width="3"/>
      <circle id="ITEM_3_STROKE" cx="0" cy="0" r="45" fill="transparent" stroke="var(--accent-3)" stroke-width="3" stroke-dasharray="6 4" stroke-opacity="1.0"/>
      <circle id="ITEM_3_PAD" cx="0.00" cy="0.00" r="40.00" fill="var(--icon-pad-bg)" stroke="var(--primary-text)" stroke-width="2" opacity="0.9"/>
      <circle id="ITEM_3_PAD_INNER" cx="0.00" cy="0.00" r="31.20" fill="var(--accent-3)" fill-opacity="0.22"/>
      <g id="ITEM_3_ICON" transform="translate(-25, -25)" data-icon-size="50" stroke-dasharray="6 4">
        <g transform="translate(-15.800000000000004,-13.400000000000004) scale(0.30000000000000004)" vector-effect="non-scaling-stroke" stroke-width="2.31" stroke-linecap="round" stroke-linejoin="round" stroke-opacity="1.0">
          <ellipse cx="168" cy="128" rx="16" ry="40" fill="none" stroke="#f1f5f9" vector-effect="non-scaling-stroke"/>
          <ellipse cx="164" cy="128" rx="52" ry="96" fill="none" stroke="#f1f5f9" vector-effect="non-scaling-stroke"/>
          <path d="M232,224H92c-28.72,0-52-43-52-96S63.28,32,92,32h72" fill="none" stroke="#f1f5f9" vector-effect="non-scaling-stroke"/>
          <polyline points="40.38 116.3 80 88 112.77 111.41" fill="none" stroke="#f1f5f9" vector-effect="non-scaling-stroke"/>
          <polyline points="46.85 175.68 80 152 120.65 181.03" fill="none" stroke="#f1f5f9" vector-effect="non-scaling-stroke"/>
        </g>
      </g>
    </g>
    <rect id="ITEM_3_HEAD_FRAME" x="28" y="275.9108869722341" width="210" height="40" fill="none" pointer-events="none"/>
    <rect id="ITEM_3_BODY_FRAME" x="26" y="325.9108869722341" width="220" height="120" fill="none" pointer-events="none"/>
    <rect id="ITEM_3_TEXT_BG" x="8" y="261.9108869722341" width="258" height="202" rx="22" fill="var(--panel)" fill-opacity="0.94" stroke="var(--accent-3)" stroke-width="2"/>
    <text id="ITEM_3_HEAD" x="28.0" y="275.9108869722341" font-family="var(--font-heading)" font-size="24" font-weight="bold" fill="var(--accent-3)" text-anchor="start" data-bg-id="ITEM_3_TEXT_BG" fill-opacity="1.0" style="font-size: 21px; font-family: Inter, Segoe UI, Kalam, Roboto, Helvetica, Arial, sans-serif; font-weight: 700; letter-spacing:-0.4px;" data-final-font-size="21">
      <tspan x="28.0" dy="24.73px">Operational Behavior</tspan>
    </text>
    <text id="ITEM_3_BODY" x="26.0" y="325.9108869722341" font-family="var(--font-body)" font-size="18" fill="var(--primary-text)" text-anchor="start" data-bg-id="ITEM_3_TEXT_BG" style="font-size: 26px; font-family: Inter, Segoe UI, Kalam, Roboto, Helvetica, Arial, sans-serif; font-weight: 400;" data-final-font-size="26">
      <tspan x="26.0" dy="20.88px">Acceleration and</tspan>
      <tspan x="26.0" dy="29.90px">turning radii</tspan>
      <tspan x="26.0" dy="29.90px">define real-world</tspan>
      <tspan x="26.0" dy="29.90px">mobility limits</tspan>
    </text>
    <!-- Geometry for Node 4 -->
    <path id="ITEM_4_CONN" d="M 1096.0833015878948 532.4649029051379 L 1196.0833015878948 532.4649029051379 L 1620 414.7617459611073" fill="transparent" stroke="var(--accent-4)" stroke-width="2" stroke-dasharray="6 4" opacity="0.8" stroke-opacity="1.0"/>
    <circle id="ITEM_4_DOT" cx="1096.0833015878948" cy="532.4649029051379" r="8" fill="var(--background)" stroke="var(--accent-4)" stroke-width="3"/>
    <g transform="translate(1620, 414.7617459611073)">
      <circle id="ITEM_4_BORDER" cx="0" cy="0" r="37" fill="var(--background)" stroke="var(--accent-4)" stroke-width="3"/>
      <circle id="ITEM_4_STROKE" cx="0" cy="0" r="45" fill="transparent" stroke="var(--accent-4)" stroke-width="3" stroke-dasharray="6 4" stroke-opacity="1.0"/>
      <circle id="ITEM_4_PAD" cx="0.00" cy="0.00" r="40.00" fill="var(--icon-pad-bg)" stroke="var(--primary-text)" stroke-width="2" opacity="0.9"/>
      <circle id="ITEM_4_PAD_INNER" cx="0.00" cy="0.00" r="31.20" fill="var(--accent-4)" fill-opacity="0.22"/>
      <g id="ITEM_4_ICON" transform="translate(-25, -25)" data-icon-size="50" stroke-dasharray="6 4">
        <g transform="translate(-8.844067796610172,-8.844067796610172) scale(2.820338983050848)" vector-effect="non-scaling-stroke" stroke-width="2.31" stroke-linecap="round" stroke-linejoin="round" stroke-opacity="1.0">
          <path d="M19.07 4.93A10 10 0 0 0 6.99 3.34" vector-effect="non-scaling-stroke" fill="none" stroke="#f1f5f9"/>
          <path d="M4 6h.01" vector-effect="non-scaling-stroke" fill="none" stroke="#f1f5f9"/>
          <path d="M2.29 9.62A10 10 0 1 0 21.31 8.35" vector-effect="non-scaling-stroke" fill="none" stroke="#f1f5f9"/>
          <path d="M16.24 7.76A6 6 0 1 0 8.23 16.67" vector-effect="non-scaling-stroke" fill="none" stroke="#f1f5f9"/>
          <path d="M12 18h.01" vector-effect="non-scaling-stroke" fill="none" stroke="#f1f5f9"/>
          <path d="M17.99 11.66A6 6 0 0 1 15.77 16.67" vector-effect="non-scaling-stroke" fill="none" stroke="#f1f5f9"/>
          <circle cx="12" cy="12" r="2" vector-effect="non-scaling-stroke" fill="none" stroke="#f1f5f9"/>
          <path d="m13.41 10.59 5.66-5.66" vector-effect="non-scaling-stroke" fill="none" stroke="#f1f5f9"/>
        </g>
      </g>
    </g>
    <rect id="ITEM_4_HEAD_FRAME" x="1320" y="354.7617459611073" width="280" height="40" fill="none" pointer-events="none"/>
    <rect id="ITEM_4_BODY_FRAME" x="1280" y="404.7617459611073" width="320" height="120" fill="none" pointer-events="none"/>
    <rect id="ITEM_4_TEXT_BG" x="1262" y="340.7617459611073" width="356" height="202" rx="22" fill="var(--panel)" fill-opacity="0.94" stroke="var(--accent-4)" stroke-width="2"/>
    <text id="ITEM_4_HEAD" x="1600.0" y="354.7617459611073" font-family="var(--font-heading)" font-size="24" font-weight="bold" fill="var(--primary-text)" text-anchor="end" data-bg-id="ITEM_4_TEXT_BG" fill-opacity="1.0" style="font-size: 30px; font-family: Inter, Segoe UI, Kalam, Roboto, Helvetica, Arial, sans-serif; font-weight: 700; letter-spacing:-0.4px;" data-final-font-size="30">
      <tspan x="1600.0" dy="28.25px">Sensor Signatures</tspan>
    </text>
    <text id="ITEM_4_BODY" x="1600.0" y="404.7617459611073" font-family="var(--font-body)" font-size="18" fill="var(--primary-text)" text-anchor="end" data-bg-id="ITEM_4_TEXT_BG" style="font-size: 26px; font-family: Inter, Segoe UI, Kalam, Roboto, Helvetica, Arial, sans-serif; font-weight: 400;" data-final-font-size="26">
      <tspan x="1600.0" dy="26.86px">Thermal and radar</tspan>
      <tspan x="1600.0" dy="29.90px">profiles differ from</tspan>
      <tspan x="1600.0" dy="29.90px">textbook assumptions</tspan>
    </text>
    <!-- Geometry for Node 5 -->
    <path id="ITEM_5_CONN" d="M 1300.2082539697371 733.8377427371552 L 1400.2082539697371 733.8377427371552 L 1620 765.2382540388927" fill="transparent" stroke="var(--accent-5)" stroke-width="2" stroke-dasharray="6 4" opacity="0.8" stroke-opacity="1.0"/>
    <circle id="ITEM_5_DOT" cx="1300.2082539697371" cy="733.8377427371552" r="8" fill="var(--background)" stroke="var(--accent-5)" stroke-width="3"/>
    <g transform="translate(1620, 765.2382540388927)">
      <circle id="ITEM_5_BORDER" cx="0" cy="0" r="37" fill="var(--background)" stroke="var(--accent-5)" stroke-width="3"/>
      <circle id="ITEM_5_STROKE" cx="0" cy="0" r="45" fill="transparent" stroke="var(--accent-5)" stroke-width="3" stroke-dasharray="6 4" stroke-opacity="1.0"/>
      <circle id="ITEM_5_PAD" cx="0.00" cy="0.00" r="40.00" fill="var(--icon-pad-bg)" stroke="var(--primary-text)" stroke-width="2" opacity="0.9"/>
      <circle id="ITEM_5_PAD_INNER" cx="0.00" cy="0.00" r="31.20" fill="var(--accent-5)" fill-opacity="0.22"/>
      <g id="ITEM_5_ICON" transform="translate(-25, -25)" data-icon-size="50" stroke-dasharray="6 4">
        <g transform="translate(-8.280000000000003,-8.280000000000001) scale(0.13)" vector-effect="non-scaling-stroke" fill="#f1f5f9" fill-opacity="1.0" stroke="none">
          <path fill="#f1f5f9" d="M130.72 61C106 61.11 106 62.875 106 91H76l-15 30v60l15 30h30c0 30 0 30 30 30h120c30 0 30 0 30-30h15l15-30h180v-60H316l-15-30h-15c0-30 0-30-30-30H136c-1.875 0-3.633-.007-5.28 0M166 271a15 15 0 0 0-15 15v45a15 15 0 0 0 15 15h60a15 15 0 0 0 15-15v-45a15 15 0 0 0-15-15zm-15 105c-30 0-45 30-45 30c-15 0-30 0-30 15l-60 15v15h360v-15l-60-15c0-15-15-15-30-15c0 0-15-30-45-30z" vector-effect="non-scaling-stroke" stroke="none"/>
        </g>
      </g>
    </g>
    <rect id="ITEM_5_HEAD_FRAME" x="1320" y="705.2382540388927" width="280" height="40" fill="none" pointer-events="none"/>
    <rect id="ITEM_5_BODY_FRAME" x="1280" y="755.2382540388927" width="320" height="120" fill="none" pointer-events="none"/>
    <rect id="ITEM_5_TEXT_BG" x="1262" y="691.2382540388927" width="356" height="202" rx="22" fill="var(--panel)" fill-opacity="0.94" stroke="var(--accent-5)" stroke-width="2"/>
    <text id="ITEM_5_HEAD" x="1600.0" y="705.2382540388927" font-family="var(--font-heading)" font-size="24" font-weight="bold" fill="var(--primary-text)" text-anchor="end" data-bg-id="ITEM_5_TEXT_BG" fill-opacity="1.0" style="font-size: 30px; font-family: Inter, Segoe UI, Kalam, Roboto, Helvetica, Arial, sans-serif; font-weight: 700; letter-spacing:-0.4px;" data-final-font-size="30">
      <tspan x="1600.0" dy="28.25px">Design Compromises</tspan>
    </text>
    <text id="ITEM_5_BODY" x="1600.0" y="755.2382540388927" font-family="var(--font-body)" font-size="18" fill="var(--primary-text)" text-anchor="end" data-bg-id="ITEM_5_TEXT_BG" style="font-size: 26px; font-family: Inter, Segoe UI, Kalam, Roboto, Helvetica, Arial, sans-serif; font-weight: 400;" data-final-font-size="26">
      <tspan x="1600.0" dy="26.86px">Physical inspection</tspan>
      <tspan x="1600.0" dy="29.90px">reveals blind spots</tspan>
      <tspan x="1600.0" dy="29.90px">and visibility limits</tspan>
    </text>
  </g>
</svg>
