<?xml version='1.0' encoding='utf-8'?>
<svg xmlns="http://www.w3.org/2000/svg" width="1920" height="1080" viewBox="0 0 1920 1080" data-theme="dark">
  <style>
        @font-face {
            font-family: 'Inter';
            src: url('assets/fonts/Inter-Regular.ttf') format('truetype');
            font-weight: 400;
            font-style: normal;
            font-display: swap;
        }
        @font-face {
            font-family: 'Inter';
            src: url('assets/fonts/Inter-Bold.ttf') format('truetype');
            font-weight: 600;
            font-style: normal;
            font-display: swap;
        }
        @font-face {
            font-family: 'Inter';
            src: url('assets/fonts/Inter-Bold.ttf') format('truetype');
            font-weight: 800;
            font-style: normal;
            font-display: swap;
        }
        
:root {
    --background: #0f172a;
    --panel: #1e293b;
    --primary-text: #f1f5f9;
    --muted-text: #94a3b8;
    --inverse-text: #0f172a;
    --border: #334155;
    --shadow-color: #000000;
    --icon-pad-bg: #1e293b;
    --art-glow: #7dd3fc;
    --art-glow-opacity: 0.18;
    --art-sheen: #ffffff;
    --art-sheen-opacity: 0.18;
    --art-shadow: #000000;
    --art-shadow-opacity: 0.28;
    --art-muted-line: #64748b;
    --art-panel-tint: #1e293b;
    --font-family: 'Inter', 'Segoe UI', 'Kalam', Roboto, Helvetica, Arial, sans-serif;
    --radius-xl: 16px;
    --font-family-headline: 'Inter', 'Segoe UI', 'Kalam', Roboto, Helvetica, Arial, sans-serif;
    --font-family-body: 'Inter', 'Segoe UI', 'Kalam', Roboto, Helvetica, Arial, sans-serif;
    --font-heading: 'Inter', 'Segoe UI', 'Kalam', Roboto, Helvetica, Arial, sans-serif;
    --font-body: 'Inter', 'Segoe UI', 'Kalam', Roboto, Helvetica, Arial, sans-serif;
    --font-size-h1: 56px;
    --font-size-h2: 40px;
    --font-size-h3: 28px;
    --font-size-body: 24px;
    --font-size-caption: 18px;
    --secondary-text: var(--muted-text);
    --panel-border: var(--border);
    --font-weight-normal: 400;
    --font-weight-medium: 500;
    --font-weight-semibold: 600;
    --font-weight-bold: 700;
    --spacing-gutter-pct: 0.07;
    --spacing-top-pct: 0.15;
    --spacing-bottom-pct: 0.07;
    --spacing-title-y-pct: 0.055;
    --accent-1: #fbbf24;
    --accent-2: #fb923c;
    --accent-3: #f87171;
    --accent-4: #a3e635;
    --accent-5: #4ade80;
    --accent-6: #d4a574;
}
:root[data-theme="dark"] {
    --background: #0f172a;
    --panel: #1e293b;
    --primary-text: #f1f5f9;
    --muted-text: #94a3b8;
    --inverse-text: #0f172a;
    --border: #334155;
    --shadow-color: #000000;
    --icon-pad-bg: #1e293b;
    --art-glow: #7dd3fc;
    --art-glow-opacity: 0.18;
    --art-sheen: #ffffff;
    --art-sheen-opacity: 0.18;
    --art-shadow: #000000;
    --art-shadow-opacity: 0.28;
    --art-muted-line: #64748b;
    --art-panel-tint: #1e293b;
    --accent-1: #fbbf24;
    --accent-2: #fb923c;
    --accent-3: #f87171;
    --accent-4: #a3e635;
    --accent-5: #4ade80;
    --accent-6: #d4a574;
}
:root[data-theme="light"] {
    --background: #f8fafc;
    --panel: #ffffff;
    --primary-text: #0f172a;
    --muted-text: #64748b;
    --inverse-text: #ffffff;
    --border: #e2e8f0;
    --shadow-color: #000000;
    --icon-pad-bg: #1e293b;
    --art-glow: #0891b2;
    --art-glow-opacity: 0.10;
    --art-sheen: #ffffff;
    --art-sheen-opacity: 0.34;
    --art-shadow: #0f172a;
    --art-shadow-opacity: 0.14;
    --art-muted-line: #94a3b8;
    --art-panel-tint: #f1f5f9;
    --accent-1: #d97706;
    --accent-2: #ea580c;
    --accent-3: #dc2626;
    --accent-4: #65a30d;
    --accent-5: #16a34a;
    --accent-6: #92400e;
}</style>
  <rect x="0" y="0" width="1.92E+3" height="1.08E+3" fill="#252a34" stroke="none" id="programmatic_background"/>
  <line id="HEADER_DECOR" x1="960.0" x2="1080.0" y1="107.0" y2="107.0" stroke="var(--accent-1)" stroke-width="6" stroke-linecap="round"/>
  <defs>
    <pattern id="svgea19390d-napkin-hatch" patternUnits="userSpaceOnUse" width="12" height="12">
      <path d="M -3 12 L 12 -3 M 0 15 L 15 0" fill="none" stroke="var(--primary-text)" stroke-width="1" stroke-opacity="0.05"/>
    </pattern>
    <filter id="svgea19390d-shadow" x="-30%" y="-30%" width="160%" height="160%">
      <feDropShadow dx="0" dy="2" stdDeviation="3" flood-color="#000000" flood-opacity="0.08"/>
      <feDropShadow dx="0" dy="6" stdDeviation="10" flood-color="#000000" flood-opacity="0.12"/>
    </filter>
    <filter id="svgea19390d-soft-glow" x="-40%" y="-40%" width="180%" height="180%">
      <feDropShadow dx="0" dy="0" stdDeviation="6" flood-color="#000000" flood-opacity="0.12"/>
    </filter>
    <radialGradient id="svgea19390d-universal-edge-vignette" cx="50%" cy="50%" r="72%">
      <stop offset="0%" stop-color="var(--background)" stop-opacity="0"/>
      <stop offset="72%" stop-color="var(--background)" stop-opacity="0.12"/>
      <stop offset="100%" stop-color="var(--primary-text)" stop-opacity="0.08"/>
    </radialGradient>
    <linearGradient id="svgea19390d-universal-surface-sheen" x1="0%" y1="0%" x2="100%" y2="100%">
      <stop offset="0%" stop-color="var(--art-sheen)" stop-opacity="var(--art-sheen-opacity)"/>
      <stop offset="46%" stop-color="var(--art-sheen)" stop-opacity="0.035"/>
      <stop offset="100%" stop-color="var(--art-panel-tint)" stop-opacity="0.14"/>
    </linearGradient>
    <radialGradient id="svgea19390d-universal-icon-aura" cx="50%" cy="42%" r="64%">
      <stop offset="0%" stop-color="var(--art-glow)" stop-opacity="var(--art-glow-opacity)"/>
      <stop offset="100%" stop-color="var(--background)" stop-opacity="0"/>
    </radialGradient>
    <filter id="svgea19390d-text-glow" x="-20%" y="-20%" width="140%" height="140%">
      <feDropShadow dx="0" dy="0" stdDeviation="2" flood-color="#000000" flood-opacity="0.4"/>
    </filter>
    <marker id="svgea19390d-arrowhead" markerWidth="10" markerHeight="7" refX="9" refY="3.5" orient="auto" markerUnits="strokeWidth">
      <polygon points="0 0, 10 3.5, 0 7" fill="var(--muted-text)" opacity="0.6"/>
    </marker>
  </defs>
  <rect width="100%" height="100%" fill="var(--background)" id="CANVAS_BG"/>
  <rect width="100%" height="100%" fill="url(#svgea19390d-napkin-hatch)"/>
  <rect id="UNIVERSAL_EDGE_VIGNETTE" width="100%" height="100%" fill="url(#svgea19390d-universal-edge-vignette)" opacity="0.62"/>
  <text id="TITLE" x="960.0" y="59" text-anchor="middle" font-weight="800" font-size="58" fill="#f1f5f9" style="font-size: 60px; font-family: Inter, Segoe UI, Kalam, Roboto, Helvetica, Arial, sans-serif; font-weight: 700; letter-spacing:-1.2px;" data-final-font-size="60">
    <tspan x="960.0" dy="68.00px">Industrial Intelligence Lessons from Jerrycans</tspan>
  </text>
  <rect id="TITLE_FRAME" x="134" y="44" width="1652" height="110" fill="none"/>
  <g id="DIAGRAM_SCALER" transform="translate(0, -24)">
    <line x1="960" y1="220" x2="960" y2="970" stroke="var(--border)" stroke-width="8" stroke-linecap="round" opacity="0.75"/>
    <line x1="960" y1="289.2" x2="914" y2="289.2" stroke="var(--accent-1)" stroke-width="4" stroke-linecap="round" opacity="0.55"/>
    <circle cx="960" cy="289.2" r="9" fill="var(--accent-1)" opacity="0.95" filter="url(#svgea19390d-soft-glow)"/>
    <rect id="ITEM_1_BG" x="254.0" y="228.0" width="660.0" height="122.4" rx="61.2" fill="var(--panel)" stroke="var(--accent-1)" stroke-width="3" filter="url(#svgea19390d-shadow)"/>
    <rect x="894.0" y="228.0" width="20" height="122.4" rx="10" fill="var(--accent-1)" fill-opacity="0.14"/>
    <circle id="ITEM_1_PAD" cx="828.0" cy="289.2" r="42" fill="var(--icon-pad-bg)" stroke="var(--primary-text)" opacity="0.92" fill-opacity="0.9" stroke-width="2"/>
    <circle id="ITEM_1_PAD_INNER" cx="828.0" cy="289.2" r="32.76" fill="var(--accent-3)" fill-opacity="0.22"/>
    <circle cx="828.0" cy="289.2" r="33.6" fill="none" stroke="var(--accent-1)" stroke-width="3" stroke-dasharray="6 4"/>
    <g id="ITEM_1_ICON" transform="translate(802.0, 263.2)" data-icon-size="52" stroke-dasharray="6 4">
      <g transform="translate(-6.759999999999998,-6.759999999999998) scale(4.68)" vector-effect="non-scaling-stroke" stroke-width="2.34" stroke-linecap="round" stroke-linejoin="round" stroke-opacity="1.0">
        <path id="Vector" fill="none" d="M6 11.5a5.5 5.5 0 1 0 0 -11 5.5 5.5 0 0 0 0 11Z" vector-effect="non-scaling-stroke" stroke="#f1f5f9"/>
        <path id="Vector_2" stroke="#f1f5f9" d="M6 11.5a5.5 5.5 0 1 0 0 -11 5.5 5.5 0 0 0 0 11Z" vector-effect="non-scaling-stroke" fill="none"/>
        <path id="Vector_3" stroke="#f1f5f9" d="M13.5 13.5 10 10" vector-effect="non-scaling-stroke" fill="none"/>
      </g>
    </g>
    <text id="ITEM_1_HEAD" x="710.0" y="247.2" text-anchor="end" font-weight="bold" font-size="28" fill="var(--accent-3)" data-bg-id="ITEM_1_BG" fill-opacity="1.0" stroke="none" style="font-size: 30px; font-family: Inter, Segoe UI, Kalam, Roboto, Helvetica, Arial, sans-serif; font-weight: 700; letter-spacing:-0.4px;" data-final-font-size="30">
      <tspan x="710.0" dy="28.25px">Physical Inspection</tspan>
    </text>
    <rect id="ITEM_1_HEAD_FRAME" x="290.0" y="247.2" width="420.0" height="40" fill="none"/>
    <text id="ITEM_1_BODY" x="710.0" y="291.2" text-anchor="end" font-size="20" fill="var(--primary-text)" data-bg-id="ITEM_1_BG" style="font-size: 26px; font-family: Inter, Segoe UI, Kalam, Roboto, Helvetica, Arial, sans-serif; font-weight: 400;" data-final-font-size="26">
      <tspan x="710.0" dy="20.84px">Engineers observed manufacturing</tspan>
      <tspan x="710.0" dy="29.90px">geometry and assembly methods</tspan>
    </text>
    <rect id="ITEM_1_BODY_FRAME" x="290.0" y="291.2" width="420.0" height="60" fill="none"/>
    <line x1="960" y1="439.6" x2="1006" y2="439.6" stroke="var(--accent-2)" stroke-width="4" stroke-linecap="round" opacity="0.55"/>
    <circle cx="960" cy="439.6" r="9" fill="var(--accent-2)" opacity="0.95" filter="url(#svgea19390d-soft-glow)"/>
    <rect id="ITEM_2_BG" x="1006.0" y="378.4" width="660.0" height="122.4" rx="61.2" fill="var(--panel)" stroke="var(--accent-2)" stroke-width="3" filter="url(#svgea19390d-shadow)"/>
    <rect x="1006.0" y="378.4" width="20" height="122.4" rx="10" fill="var(--accent-2)" fill-opacity="0.14"/>
    <circle id="ITEM_2_PAD" cx="1092.0" cy="439.6" r="42" fill="var(--icon-pad-bg)" stroke="var(--primary-text)" opacity="0.92" fill-opacity="0.9" stroke-width="2"/>
    <circle id="ITEM_2_PAD_INNER" cx="1092.0" cy="439.6" r="32.76" fill="var(--accent-4)" fill-opacity="0.22"/>
    <circle cx="1092.0" cy="439.6" r="33.6" fill="none" stroke="var(--accent-2)" stroke-width="3" stroke-dasharray="6 4"/>
    <g id="ITEM_2_ICON" transform="translate(1066.0, 413.6)" data-icon-size="52" stroke-dasharray="6 4">
      <g transform="translate(-11.439999999999998,-11.439999999999998) scale(1.8719999999999999)">
        <path d="m33.476,36.885l-.509-2.068c-.198-.804-.459-1.599-.871-2.318-1.005-1.751-2.591-3.118-4.507-3.846l-3.981-1.512c-.502-.191-1.017-.332-1.537-.441v1.269c0,1.15-.92,2.08-2.07,2.08s-2.07-.93-2.07-2.08v-1.269c-.52.108-1.035.25-1.538.441l-3.981,1.512c-1.916.728-3.502,2.095-4.507,3.846-.412.719-.673,1.514-.871,2.318l-.509,2.068c-.077.312.16.615.482.615h25.988c.322,0,.559-.302.482-.615Z" fill="#5a81ff"/>
        <path d="m9.946,14.835c-.055-.001-.098-.049-.1-.104-.016-.517.021-1.046.086-1.58-1.679.892-2.689,2.009-2.689,3.226,0,1.06.765,2.044,2.07,2.87-.411-.534-.673-1.177-.673-1.887,0-1.021.515-1.929,1.306-2.525Z" fill="#c27700"/>
        <path d="m32.757,16.377c0-1.315-1.175-2.514-3.106-3.437.086.554.143,1.118.134,1.698-.008-.002-.016.003-.024.002.957.579,1.599,1.579,1.599,2.721,0,.701-.244,1.342-.648,1.869,1.288-.822,2.044-1.8,2.044-2.853Z" fill="#c27700"/>
        <path d="m12.08,20.61c-.711-.004-1.371-.209-1.92-.559l.916,3.679c.182.732.84,1.246,1.594,1.246h3.73c-1.922-.878-3.468-2.428-4.321-4.366Z" fill="#ff9000"/>
        <path d="m23.599,24.976h3.69c.808,0,1.496-.588,1.622-1.386l.526-3.331c-.459.216-.97.349-1.517.352-.853,1.937-2.399,3.488-4.321,4.366Z" fill="#ff9000"/>
        <path d="m9.946,14.835s0,0,.001,0c.221.002.787.115,1.339,1.117.083.151.286.185.4.056l5.47-6.12s6.929,5.565,11.502,5.261c.101-.007.217-.042.332-.091.295-.166.544-.462.771-.42.008.001.016-.004.024-.002.009-.579-.048-1.143-.134-1.698-.839-5.384-5.951-9.411-11.754-8.324-3.997.748-7.196,3.984-7.898,7.989-.032.184-.045.364-.067.546-.065.534-.102,1.063-.086,1.58.002.055.045.102.1.104Z" fill="#ff9000"/>
        <path d="m29.761,14.639c-.228-.042-.477.254-.771.42-.115.049-.231.084-.332.091-4.573.304-11.502-5.261-11.502-5.261l-5.47,6.12c-.115.128-.317.094-.4-.056-.552-1.002-1.118-1.115-1.339-1.117,0,0,0,0-.001,0-.791.596-1.306,1.504-1.306,2.525,0,.71.262,1.352.673,1.887.237.309.511.59.847.804.548.349,1.209.555,1.92.559.853,1.937,2.399,3.488,4.321,4.366.489.223.996.414,1.529.544v2.45c0,1.15.92,2.08,2.07,2.08s2.07-.93,2.07-2.08v-2.45c.533-.13,1.04-.321,1.529-.544,1.922-.878,3.468-2.428,4.321-4.366.547-.003,1.058-.136,1.517-.352.511-.24.945-.597,1.275-1.029.403-.528.648-1.168.648-1.869,0-1.142-.642-2.142-1.599-2.721Z" fill="#ffc84d"/>
        <ellipse cx="17.569" cy="16.7" rx=".921" ry="1.105"/>
        <ellipse cx="22.431" cy="16.7" rx=".921" ry="1.105"/>
        <path d="m21.145,21.057c.207,0,.354.199.299.398-.174.634-.755,1.1-1.444,1.1s-1.27-.466-1.444-1.1c-.055-.2.092-.398.299-.398h2.291Z" fill="#5c2f17"/>
        <path d="m30.952,14.113c-.036-6.019-4.924-10.889-10.952-10.889s-10.915,4.869-10.952,10.889c2.449-1.53,6.436-2.531,10.952-2.531s8.503,1,10.952,2.531Z" fill="#ff9d00"/>
        <path d="m32.76,16.38c0,.16-.03.32-.06.47-.58-2.69-6.04-4.79-12.7-4.79s-12.12,2.1-12.7,4.79c-.03-.15-.06-.31-.06-.47,0-2.2,3.26-4.08,7.89-4.88l-.54-5.85c-.1-.98.46-1.9,1.36-2.3,1.25-.55,2.62-.85,4.05-.85s2.8.3,4.05.85c.9.4,1.46,1.32,1.36,2.3l-.54,5.85c4.63.8,7.89,2.68,7.89,4.88Z" fill="#fb0"/>
        <path d="m29.844,29.946l-1.559,7.554h2.945l.754-5.177c-.559-.922-1.293-1.718-2.14-2.377Z" fill="#ff8400"/>
        <polygon points="27.588 28.654 24.731 27.569 22.633 37.5 25.325 37.5 27.301 28.545 27.588 28.654" fill="#ff8400"/>
        <path d="m28.821,29.245c.201.116.386.255.576.386-.191-.131-.375-.27-.576-.386Z" fill="#ff8400"/>
        <path d="m29.846,29.932c-.142-.11-.301-.199-.449-.301-.191-.131-.375-.27-.576-.386-.393-.227-.802-.428-1.233-.591l-.287-.109-1.976,8.955h2.959l1.559-7.554.003-.014Z" fill="#fb0"/>
        <path d="m8.009,32.323l.754,5.177h2.945l-1.559-7.554c-.847.66-1.581,1.455-2.14,2.377Z" fill="#ff8400"/>
        <path d="m10.596,29.631c.191-.131.375-.27.576-.386-.202.115-.385.255-.576.386Z" fill="#ff8400"/>
        <polygon points="12.405 28.654 12.692 28.545 14.668 37.5 17.36 37.5 15.262 27.569 12.405 28.654" fill="#ff8400"/>
        <path d="m12.405,28.654c-.43.164-.84.364-1.233.591-.201.116-.386.255-.576.386-.149.102-.308.19-.45.301l.003.014,1.559,7.554h2.959l-1.976-8.955-.287.109Z" fill="#fb0"/>
      </g>
    </g>
    <text id="ITEM_2_HEAD" x="1162.0" y="397.6" text-anchor="start" font-weight="bold" font-size="28" fill="var(--accent-4)" data-bg-id="ITEM_2_BG" fill-opacity="1.0" stroke="none" style="font-size: 30px; font-family: Inter, Segoe UI, Kalam, Roboto, Helvetica, Arial, sans-serif; font-weight: 700; letter-spacing:-0.4px;" data-final-font-size="30">
      <tspan x="1162.0" dy="28.25px">Design Philosophy</tspan>
    </text>
    <rect id="ITEM_2_HEAD_FRAME" x="1162.0" y="397.6" width="420.0" height="40" fill="none"/>
    <text id="ITEM_2_BODY" x="1162.0" y="441.6" text-anchor="start" font-size="20" fill="var(--primary-text)" data-bg-id="ITEM_2_BG" style="font-size: 26px; font-family: Inter, Segoe UI, Kalam, Roboto, Helvetica, Arial, sans-serif; font-weight: 400;" data-final-font-size="26">
      <tspan x="1162.0" dy="20.84px">Simplified production while</tspan>
      <tspan x="1162.0" dy="29.90px">improving the user experience</tspan>
    </text>
    <rect id="ITEM_2_BODY_FRAME" x="1162.0" y="441.6" width="420.0" height="60" fill="none"/>
    <line x1="960" y1="590.0" x2="914" y2="590.0" stroke="var(--accent-3)" stroke-width="4" stroke-linecap="round" opacity="0.55"/>
    <circle cx="960" cy="590.0" r="9" fill="var(--accent-3)" opacity="0.95" filter="url(#svgea19390d-soft-glow)"/>
    <rect id="ITEM_3_BG" x="254.0" y="528.8" width="660.0" height="122.4" rx="61.2" fill="var(--panel)" stroke="var(--accent-3)" stroke-width="3" filter="url(#svgea19390d-shadow)"/>
    <rect x="894.0" y="528.8" width="20" height="122.4" rx="10" fill="var(--accent-3)" fill-opacity="0.14"/>
    <circle id="ITEM_3_PAD" cx="828.0" cy="590.0" r="42" fill="var(--icon-pad-bg)" stroke="var(--primary-text)" opacity="0.92" fill-opacity="0.9" stroke-width="2"/>
    <circle id="ITEM_3_PAD_INNER" cx="828.0" cy="590.0" r="32.76" fill="var(--accent-5)" fill-opacity="0.22"/>
    <circle cx="828.0" cy="590.0" r="33.6" fill="none" stroke="var(--accent-3)" stroke-width="3" stroke-dasharray="6 4"/>
    <g id="ITEM_3_ICON" transform="translate(802.0, 564.0)" data-icon-size="52" stroke-dasharray="6 4">
      <g transform="translate(-9.536271186440676,-9.536271186440676) scale(2.9613559322033898)" vector-effect="non-scaling-stroke" stroke-width="2.34" stroke-linecap="round" stroke-linejoin="round" stroke-opacity="1.0">
        <path d="M21 16.008v-8.018a1.98 1.98 0 0 0 -1 -1.717l-7 -4.008a2.016 2.016 0 0 0 -2 0l-7 4.008c-.619 .355 -1 1.01 -1 1.718v8.018c0 .709 .381 1.363 1 1.717l7 4.008a2.016 2.016 0 0 0 2 0l7 -4.008c.619 -.355 1 -1.01 1 -1.718z" vector-effect="non-scaling-stroke" fill="none" stroke="#f1f5f9"/>
        <path d="M12 22v-10" vector-effect="non-scaling-stroke" fill="none" stroke="#f1f5f9"/>
        <path d="M12 12l8.73 -5.04" vector-effect="non-scaling-stroke" fill="none" stroke="#f1f5f9"/>
        <path d="M3.27 6.96l8.73 5.04" vector-effect="non-scaling-stroke" fill="none" stroke="#f1f5f9"/>
      </g>
    </g>
    <text id="ITEM_3_HEAD" x="710.0" y="548.0" text-anchor="end" font-weight="bold" font-size="28" fill="var(--accent-5)" data-bg-id="ITEM_3_BG" fill-opacity="1.0" stroke="none" style="font-size: 30px; font-family: Inter, Segoe UI, Kalam, Roboto, Helvetica, Arial, sans-serif; font-weight: 700; letter-spacing:-0.4px;" data-final-font-size="30">
      <tspan x="710.0" dy="28.25px">Labor Reduction</tspan>
    </text>
    <rect id="ITEM_3_HEAD_FRAME" x="290.0" y="548.0" width="420.0" height="40" fill="none"/>
    <text id="ITEM_3_BODY" x="710.0" y="592.0" text-anchor="end" font-size="20" fill="var(--primary-text)" data-bg-id="ITEM_3_BG" style="font-size: 23px; font-family: Inter, Segoe UI, Kalam, Roboto, Helvetica, Arial, sans-serif; font-weight: 400;" data-final-font-size="23">
      <tspan x="710.0" dy="19.82px">Standardized units simplified</tspan>
      <tspan x="710.0" dy="26.45px">procurement and training requirements</tspan>
    </text>
    <rect id="ITEM_3_BODY_FRAME" x="290.0" y="592.0" width="420.0" height="60" fill="none"/>
    <line x1="960" y1="740.4" x2="1006" y2="740.4" stroke="var(--accent-4)" stroke-width="4" stroke-linecap="round" opacity="0.55"/>
    <circle cx="960" cy="740.4" r="9" fill="var(--accent-4)" opacity="0.95" filter="url(#svgea19390d-soft-glow)"/>
    <rect id="ITEM_4_BG" x="1006.0" y="679.2" width="660.0" height="122.4" rx="61.2" fill="var(--panel)" stroke="var(--accent-4)" stroke-width="3" filter="url(#svgea19390d-shadow)"/>
    <rect x="1006.0" y="679.2" width="20" height="122.4" rx="10" fill="var(--accent-4)" fill-opacity="0.14"/>
    <circle id="ITEM_4_PAD" cx="1092.0" cy="740.4" r="42" fill="var(--icon-pad-bg)" stroke="var(--primary-text)" opacity="0.92" fill-opacity="0.9" stroke-width="2"/>
    <circle id="ITEM_4_PAD_INNER" cx="1092.0" cy="740.4" r="32.76" fill="var(--accent-6)" fill-opacity="0.22"/>
    <circle cx="1092.0" cy="740.4" r="33.6" fill="none" stroke="var(--accent-4)" stroke-width="3" stroke-dasharray="6 4"/>
    <g id="ITEM_4_ICON" transform="translate(1066.0, 714.4)" data-icon-size="52" stroke-dasharray="6 4">
      <g transform="translate(-9.659115044247786,-12.848141592920353) scale(3.0923893805309732)" vector-effect="non-scaling-stroke" stroke-width="2.34" stroke-linecap="round" stroke-linejoin="round" stroke-opacity="1.0">
        <path d="M2 12m0 3a3 3 0 0 1 3 -3h12a3 3 0 0 1 3 3v0a3 3 0 0 1 -3 3h-12a3 3 0 0 1 -3 -3z" vector-effect="non-scaling-stroke" fill="none" stroke="#f1f5f9"/>
        <path d="M6 12l1 -5h5l3 5" vector-effect="non-scaling-stroke" fill="none" stroke="#f1f5f9"/>
        <path d="M21 9l-7.8 0" vector-effect="non-scaling-stroke" fill="none" stroke="#f1f5f9"/>
      </g>
    </g>
    <text id="ITEM_4_HEAD" x="1162.0" y="698.4" text-anchor="start" font-weight="bold" font-size="28" fill="var(--accent-6)" data-bg-id="ITEM_4_BG" fill-opacity="1.0" stroke="none" style="font-size: 30px; font-family: Inter, Segoe UI, Kalam, Roboto, Helvetica, Arial, sans-serif; font-weight: 700; letter-spacing:-0.4px;" data-final-font-size="30">
      <tspan x="1162.0" dy="28.25px">Operational Endurance</tspan>
    </text>
    <rect id="ITEM_4_HEAD_FRAME" x="1162.0" y="698.4" width="420.0" height="40" fill="none"/>
    <text id="ITEM_4_BODY" x="1162.0" y="742.4" text-anchor="start" font-size="20" fill="var(--primary-text)" data-bg-id="ITEM_4_BG" style="font-size: 26px; font-family: Inter, Segoe UI, Kalam, Roboto, Helvetica, Arial, sans-serif; font-weight: 400;" data-final-font-size="26">
      <tspan x="1162.0" dy="20.84px">Better packaging increased</tspan>
      <tspan x="1162.0" dy="29.90px">the range of combat forces</tspan>
    </text>
    <rect id="ITEM_4_BODY_FRAME" x="1162.0" y="742.4" width="420.0" height="60" fill="none"/>
    <line x1="960" y1="890.8" x2="914" y2="890.8" stroke="var(--accent-5)" stroke-width="4" stroke-linecap="round" opacity="0.55"/>
    <circle cx="960" cy="890.8" r="9" fill="var(--accent-5)" opacity="0.95" filter="url(#svgea19390d-soft-glow)"/>
    <rect id="ITEM_5_BG" x="254.0" y="829.6" width="660.0" height="122.4" rx="61.2" fill="var(--panel)" stroke="var(--accent-5)" stroke-width="3" filter="url(#svgea19390d-shadow)"/>
    <rect x="894.0" y="829.6" width="20" height="122.4" rx="10" fill="var(--accent-5)" fill-opacity="0.14"/>
    <circle id="ITEM_5_PAD" cx="828.0" cy="890.8" r="42" fill="var(--icon-pad-bg)" stroke="var(--primary-text)" opacity="0.92" fill-opacity="0.9" stroke-width="2"/>
    <circle id="ITEM_5_PAD_INNER" cx="828.0" cy="890.8" r="32.76" fill="var(--accent-1)" fill-opacity="0.22"/>
    <circle cx="828.0" cy="890.8" r="33.6" fill="none" stroke="var(--accent-5)" stroke-width="3" stroke-dasharray="6 4"/>
    <g id="ITEM_5_ICON" transform="translate(802.0, 864.8)" data-icon-size="52" stroke-dasharray="6 4">
      <g transform="translate(-8.371147540983605,-5.6859016393442605) scale(2.864262295081967)" vector-effect="non-scaling-stroke" fill="#f1f5f9" fill-opacity="1.0" stroke="none">
        <path fill="#f1f5f9" d="M18.5 1.15c-.53 0-1.04.19-1.43.58l-5.81 5.82l5.65 5.65l5.82-5.81c.77-.78.77-2.04 0-2.83l-2.84-2.83c-.39-.39-.89-.58-1.39-.58M10.3 8.5l-5.96 5.96c-.78.78-.78 2.04.02 2.85C3.14 18.54 1.9 19.77.67 21h5.66l.86-.86c.78.76 2.03.75 2.81-.02l5.95-5.96" vector-effect="non-scaling-stroke" stroke="none"/>
      </g>
    </g>
    <text id="ITEM_5_HEAD" x="710.0" y="848.8" text-anchor="end" font-weight="bold" font-size="28" fill="var(--accent-1)" data-bg-id="ITEM_5_BG" fill-opacity="1.0" stroke="none" style="font-size: 30px; font-family: Inter, Segoe UI, Kalam, Roboto, Helvetica, Arial, sans-serif; font-weight: 700; letter-spacing:-0.4px;" data-final-font-size="30">
      <tspan x="710.0" dy="28.25px">Strategic Advantage</tspan>
    </text>
    <rect id="ITEM_5_HEAD_FRAME" x="290.0" y="848.8" width="420.0" height="40" fill="none"/>
    <text id="ITEM_5_BODY" x="710.0" y="892.8" text-anchor="end" font-size="20" fill="var(--primary-text)" data-bg-id="ITEM_5_BG" style="font-size: 25px; font-family: Inter, Segoe UI, Kalam, Roboto, Helvetica, Arial, sans-serif; font-weight: 400;" data-final-font-size="25">
      <tspan x="710.0" dy="20.50px">Logistics hardware shaped military</tspan>
      <tspan x="710.0" dy="28.75px">effectiveness as much as weapons</tspan>
    </text>
    <rect id="ITEM_5_BODY_FRAME" x="290.0" y="892.8" width="420.0" height="60" fill="none"/>
  </g>
</svg>
