<?xml version='1.0' encoding='utf-8'?>
<svg xmlns="http://www.w3.org/2000/svg" width="1920" height="1080" viewBox="0 0 1920 1080" data-theme="light">
  <style>
        @font-face {
            font-family: 'Inter';
            src: url('assets/fonts/Inter-Regular.ttf') format('truetype');
            font-weight: 400;
            font-style: normal;
            font-display: swap;
        }
        @font-face {
            font-family: 'Inter';
            src: url('assets/fonts/Inter-Bold.ttf') format('truetype');
            font-weight: 600;
            font-style: normal;
            font-display: swap;
        }
        @font-face {
            font-family: 'Inter';
            src: url('assets/fonts/Inter-Bold.ttf') format('truetype');
            font-weight: 800;
            font-style: normal;
            font-display: swap;
        }
        
:root {
    --background: #f8fafc;
    --panel: #ffffff;
    --primary-text: #0f172a;
    --muted-text: #64748b;
    --inverse-text: #ffffff;
    --border: #e2e8f0;
    --shadow-color: #000000;
    --icon-pad-bg: #1e293b;
    --art-glow: #0891b2;
    --art-glow-opacity: 0.10;
    --art-sheen: #ffffff;
    --art-sheen-opacity: 0.34;
    --art-shadow: #0f172a;
    --art-shadow-opacity: 0.14;
    --art-muted-line: #94a3b8;
    --art-panel-tint: #f1f5f9;
    --font-family: 'Inter', 'Segoe UI', 'Kalam', Roboto, Helvetica, Arial, sans-serif;
    --radius-xl: 16px;
    --font-family-headline: 'Inter', 'Segoe UI', 'Kalam', Roboto, Helvetica, Arial, sans-serif;
    --font-family-body: 'Inter', 'Segoe UI', 'Kalam', Roboto, Helvetica, Arial, sans-serif;
    --font-heading: 'Inter', 'Segoe UI', 'Kalam', Roboto, Helvetica, Arial, sans-serif;
    --font-body: 'Inter', 'Segoe UI', 'Kalam', Roboto, Helvetica, Arial, sans-serif;
    --font-size-h1: 56px;
    --font-size-h2: 40px;
    --font-size-h3: 28px;
    --font-size-body: 24px;
    --font-size-caption: 18px;
    --secondary-text: var(--muted-text);
    --panel-border: var(--border);
    --font-weight-normal: 400;
    --font-weight-medium: 500;
    --font-weight-semibold: 600;
    --font-weight-bold: 700;
    --spacing-gutter-pct: 0.07;
    --spacing-top-pct: 0.15;
    --spacing-bottom-pct: 0.07;
    --spacing-title-y-pct: 0.055;
    --accent-1: #0891b2;
    --accent-2: #db2777;
    --accent-3: #ca8a04;
    --accent-4: #65a30d;
    --accent-5: #ea580c;
    --accent-6: #9333ea;
}
:root[data-theme="dark"] {
    --background: #0f172a;
    --panel: #1e293b;
    --primary-text: #f1f5f9;
    --muted-text: #94a3b8;
    --inverse-text: #0f172a;
    --border: #334155;
    --shadow-color: #000000;
    --icon-pad-bg: #1e293b;
    --art-glow: #7dd3fc;
    --art-glow-opacity: 0.18;
    --art-sheen: #ffffff;
    --art-sheen-opacity: 0.18;
    --art-shadow: #000000;
    --art-shadow-opacity: 0.28;
    --art-muted-line: #64748b;
    --art-panel-tint: #1e293b;
    --accent-1: #22d3ee;
    --accent-2: #f472b6;
    --accent-3: #facc15;
    --accent-4: #a3e635;
    --accent-5: #fb923c;
    --accent-6: #c084fc;
}
:root[data-theme="light"] {
    --background: #f8fafc;
    --panel: #ffffff;
    --primary-text: #0f172a;
    --muted-text: #64748b;
    --inverse-text: #ffffff;
    --border: #e2e8f0;
    --shadow-color: #000000;
    --icon-pad-bg: #1e293b;
    --art-glow: #0891b2;
    --art-glow-opacity: 0.10;
    --art-sheen: #ffffff;
    --art-sheen-opacity: 0.34;
    --art-shadow: #0f172a;
    --art-shadow-opacity: 0.14;
    --art-muted-line: #94a3b8;
    --art-panel-tint: #f1f5f9;
    --accent-1: #0891b2;
    --accent-2: #db2777;
    --accent-3: #ca8a04;
    --accent-4: #65a30d;
    --accent-5: #ea580c;
    --accent-6: #9333ea;
}</style>
  <rect x="0" y="0" width="1.92E+3" height="1.08E+3" fill="#252a34" stroke="none" id="programmatic_background"/>
  <line id="HEADER_DECOR" x1="960.0" x2="1080.0" y1="135.0" y2="135.0" stroke="var(--accent-1)" stroke-width="6" stroke-linecap="round"/>
  <defs>
    <pattern id="svgbe14a8eb-napkin-hatch" patternUnits="userSpaceOnUse" width="12" height="12">
      <path d="M -3 12 L 12 -3 M 0 15 L 15 0" fill="none" stroke="var(--primary-text)" stroke-width="1" stroke-opacity="0.05"/>
    </pattern>
    <filter id="svgbe14a8eb-shadow" x="-30%" y="-30%" width="160%" height="160%">
      <feDropShadow dx="0" dy="2" stdDeviation="3" flood-color="#000000" flood-opacity="0.08"/>
      <feDropShadow dx="0" dy="6" stdDeviation="10" flood-color="#000000" flood-opacity="0.12"/>
    </filter>
    <radialGradient id="svgbe14a8eb-universal-edge-vignette" cx="50%" cy="50%" r="72%">
      <stop offset="0%" stop-color="var(--background)" stop-opacity="0"/>
      <stop offset="72%" stop-color="var(--background)" stop-opacity="0.12"/>
      <stop offset="100%" stop-color="var(--primary-text)" stop-opacity="0.08"/>
    </radialGradient>
    <linearGradient id="svgbe14a8eb-universal-surface-sheen" x1="0%" y1="0%" x2="100%" y2="100%">
      <stop offset="0%" stop-color="var(--art-sheen)" stop-opacity="var(--art-sheen-opacity)"/>
      <stop offset="46%" stop-color="var(--art-sheen)" stop-opacity="0.035"/>
      <stop offset="100%" stop-color="var(--art-panel-tint)" stop-opacity="0.14"/>
    </linearGradient>
    <radialGradient id="svgbe14a8eb-universal-icon-aura" cx="50%" cy="42%" r="64%">
      <stop offset="0%" stop-color="var(--art-glow)" stop-opacity="var(--art-glow-opacity)"/>
      <stop offset="100%" stop-color="var(--background)" stop-opacity="0"/>
    </radialGradient>
    <linearGradient id="svgbe14a8eb-fact-card-sheen" x1="0%" y1="0%" x2="100%" y2="100%">
      <stop offset="0%" stop-color="var(--inverse-text)" stop-opacity="0.18"/>
      <stop offset="54%" stop-color="var(--inverse-text)" stop-opacity="0.04"/>
      <stop offset="100%" stop-color="var(--background)" stop-opacity="0.14"/>
    </linearGradient>
    <radialGradient id="svgbe14a8eb-fact-icon-glow" cx="50%" cy="42%" r="62%">
      <stop offset="0%" stop-color="var(--inverse-text)" stop-opacity="0.22"/>
      <stop offset="100%" stop-color="var(--background)" stop-opacity="0"/>
    </radialGradient>
    <filter id="svgbe14a8eb-text-glow" x="-20%" y="-20%" width="140%" height="140%">
      <feDropShadow dx="0" dy="0" stdDeviation="2" flood-color="#000000" flood-opacity="0.4"/>
    </filter>
    <marker id="svgbe14a8eb-arrowhead" markerWidth="10" markerHeight="7" refX="9" refY="3.5" orient="auto" markerUnits="strokeWidth">
      <polygon points="0 0, 10 3.5, 0 7" fill="var(--muted-text)" opacity="0.6"/>
    </marker>
  </defs>
  <rect width="100%" height="100%" fill="var(--background)" id="CANVAS_BG"/>
  <rect width="100%" height="100%" fill="url(#svgbe14a8eb-napkin-hatch)"/>
  <rect id="UNIVERSAL_EDGE_VIGNETTE" width="100%" height="100%" fill="url(#svgbe14a8eb-universal-edge-vignette)" opacity="0.62"/>
  <line x1="960" y1="178" x2="960" y2="986" stroke="var(--muted-text)" stroke-width="5" stroke-opacity="0.10" stroke-linecap="round"/>
  <path d="M 360 178 C 620 152 1300 152 1560 178" fill="none" stroke="var(--primary-text)" stroke-width="2" stroke-opacity="0.12" stroke-linecap="round"/>
  <text id="TITLE" x="960.0" y="59" font-size="72" font-weight="800" fill="#0f172a" style="font-size: 60px; font-family: Inter, Segoe UI, Kalam, Roboto, Helvetica, Arial, sans-serif; font-weight: 700; letter-spacing:-1.2px;" text-anchor="middle" data-final-font-size="60">
    <tspan x="960.0" dy="68.00px">Key Data Points in EW Data bases</tspan>
  </text>
  <rect id="TITLE_FRAME" x="134" y="59" width="1652" height="103" fill="none"/>
  <g transform="translate(960.0, 255.0)">
    <rect id="ITEM_1_BG" x="-600" y="-40" width="1200" height="126" rx="24" fill="var(--accent-6)" stroke="var(--accent-1)" filter="url(#svgbe14a8eb-shadow)" stroke-width="3" fill-opacity="1.0"/>
    <g transform="translate(-480.0, 0.0)">
      <circle r="45" fill="var(--background)" opacity="0.3"/>
      <circle id="ITEM_1_PAD" cx="0" cy="0" r="38" fill="var(--icon-pad-bg)" stroke="var(--primary-text)" opacity="0.9" fill-opacity="0.9" stroke-width="2"/>
      <circle id="ITEM_1_PAD_INNER" cx="0" cy="0" r="29.64" fill="var(--accent-6)" fill-opacity="0.22"/>
      <circle cx="0" cy="0" r="30" fill="none" stroke="var(--accent-1)" stroke-width="3" stroke-dasharray="6 4"/>
      <g id="ITEM_1_ICON" transform="translate(-31, -31)" data-icon-size="62" stroke-dasharray="6 4">
        <g transform="translate(-4.428571428571429,-3.321428571428573) scale(0.2767857142857143)" vector-effect="non-scaling-stroke" stroke-width="2.46" stroke-linecap="round" stroke-linejoin="round" stroke-opacity="1.0">
          <polyline points="24 128 56 128 96 40 160 208 200 128 232 128" fill="none" stroke="#f1f5f9" vector-effect="non-scaling-stroke"/>
        </g>
      </g>
    </g>
    <g transform="translate(-330, -30)">
      <text id="ITEM_1_HEAD" text-anchor="start" font-weight="bold" font-size="27" fill="var(--inverse-text)" x="0.0" y="-10.0" data-bg-id="ITEM_1_BG" fill-opacity="1.0" style="font-size: 30px; font-family: Inter, Segoe UI, Kalam, Roboto, Helvetica, Arial, sans-serif; font-weight: 700; letter-spacing:-0.4px;" data-final-font-size="30">
        <tspan x="0.0" dy="27.25px">Frequency Patterns</tspan>
      </text>
      <rect id="ITEM_1_HEAD_FRAME" x="0" y="-10" width="846" height="38" fill="none"/>
      <text id="ITEM_1_BODY" text-anchor="start" font-size="19" fill="var(--inverse-text)" x="0.0" y="20.0" data-bg-id="ITEM_1_BG" style="font-size: 26px; font-family: Inter, Segoe UI, Kalam, Roboto, Helvetica, Arial, sans-serif; font-weight: 400;" data-final-font-size="26">
        <tspan x="0.0" dy="29.62px">Tracks agility and specific frequency hopping behaviors</tspan>
      </text>
      <rect id="ITEM_1_BODY_FRAME" x="0" y="20" width="846" height="74" fill="none"/>
    </g>
  </g>
  <g transform="translate(960.0, 390.0)">
    <rect id="ITEM_2_BG" x="-600" y="-40" width="1200" height="126" rx="24" fill="var(--accent-1)" stroke="var(--accent-2)" filter="url(#svgbe14a8eb-shadow)" stroke-width="3" fill-opacity="1.0"/>
    <g transform="translate(-480.0, 0.0)">
      <circle r="45" fill="var(--background)" opacity="0.3"/>
      <circle id="ITEM_2_PAD" cx="0" cy="0" r="38" fill="var(--icon-pad-bg)" stroke="var(--primary-text)" opacity="0.9" fill-opacity="0.9" stroke-width="2"/>
      <circle id="ITEM_2_PAD_INNER" cx="0" cy="0" r="29.64" fill="var(--accent-1)" fill-opacity="0.22"/>
      <circle cx="0" cy="0" r="30" fill="none" stroke="var(--accent-1)" stroke-width="3" stroke-dasharray="6 4"/>
      <g id="ITEM_2_ICON" transform="translate(-31, -31)" data-icon-size="62" stroke-dasharray="6 4">
        <g transform="translate(-4.705357142857146,-4.428571428571429) scale(2.2142857142857144)">
          <path d="M18.015 6L16.015 5L14.015 6V9H18.015V6ZM10.645 11.19L8.195 13.64C7.695 14.14 6.895 14.14 6.405 13.64L5.375 12.61C4.875 12.11 4.875 11.31 5.375 10.82L7.825 8.37C8.325 7.87 9.125 7.87 9.615 8.37L10.655 9.41C11.145 9.89 11.145 10.7 10.645 11.19ZM23.825 13.64L21.375 11.19C20.875 10.7 20.875 9.88999 21.375 9.39999L22.415 8.35999C22.905 7.85999 23.705 7.85999 24.205 8.35999L26.655 10.81C27.155 11.3 27.155 12.1 26.655 12.6L25.615 13.64C25.125 14.14 24.325 14.14 23.825 13.64Z" fill="#D3D3D3"/>
          <path d="M13.275 6H18.745C19.445 6 20.015 5.43 20.005 4.73V3.27C20.005 2.57 19.435 2 18.735 2H13.275C12.575 2 12.015 2.57 12.005 3.27V4.73C12.005 5.43 12.575 6 13.275 6ZM27.015 19C27.015 25.0751 22.0901 30 16.015 30C9.93988 30 5.01501 25.0751 5.01501 19C5.01501 12.9249 9.93988 8 16.015 8C22.0901 8 27.015 12.9249 27.015 19Z" fill="#636363"/>
          <path d="M16.015 28C20.9856 28 25.015 23.9706 25.015 19C25.015 14.0294 20.9856 10 16.015 10C11.0445 10 7.01501 14.0294 7.01501 19C7.01501 23.9706 11.0445 28 16.015 28Z" fill="white"/>
          <path d="M19.545 14.0499L20.255 13.3399C20.645 12.9499 21.275 12.9499 21.665 13.3399C22.055 13.7299 22.055 14.3599 21.665 14.7499L20.955 15.4599C20.565 15.8499 19.935 15.8499 19.545 15.4599C19.155 15.0799 19.155 14.4399 19.545 14.0499Z" fill="#9B9B9B"/>
          <path d="M15.015 13V12C15.015 11.45 15.465 11 16.015 11C16.565 11 17.015 11.45 17.015 12V13C17.015 13.55 16.565 14 16.015 14C15.455 14 15.015 13.55 15.015 13ZM15.015 26V25C15.015 24.45 15.465 24 16.015 24C16.565 24 17.015 24.45 17.015 25V26C17.015 26.55 16.565 27 16.015 27C15.455 27 15.015 26.55 15.015 26ZM23.015 18H22.015C21.455 18 21.015 18.45 21.015 19C21.015 19.55 21.465 20 22.015 20H23.015C23.565 20 24.015 19.55 24.015 19C24.015 18.45 23.565 18 23.015 18ZM9.01501 18H10.015C10.565 18 11.015 18.45 11.015 19C11.015 19.55 10.565 20 10.015 20H9.01501C8.46501 20 8.01501 19.55 8.01501 19C8.01501 18.45 8.45501 18 9.01501 18ZM21.675 23.2501L20.965 22.5401C20.565 22.1501 19.935 22.1501 19.555 22.5401C19.165 22.9301 19.165 23.5601 19.555 23.9501L20.265 24.6601C20.655 25.0501 21.285 25.0501 21.675 24.6601C22.065 24.2701 22.065 23.6401 21.675 23.2501ZM11.765 13.35L12.475 14.06C12.865 14.45 12.865 15.08 12.475 15.47C12.085 15.86 11.455 15.86 11.065 15.47L10.355 14.76C9.965 14.37 9.965 13.74 10.355 13.35C10.745 12.95 11.375 12.95 11.765 13.35ZM11.065 22.53L10.355 23.24C9.965 23.64 9.965 24.27 10.355 24.65C10.745 25.04 11.375 25.04 11.765 24.65L12.475 23.94C12.865 23.55 12.865 22.92 12.475 22.53C12.085 22.14 11.455 22.14 11.065 22.53Z" fill="#D3D3D3"/>
          <path d="M15.305 19.7101C14.915 19.3201 14.915 18.6901 15.305 18.3001L20.255 13.3501C20.645 12.9601 21.275 12.9601 21.665 13.3501C22.055 13.7401 22.055 14.3701 21.665 14.7601L16.715 19.7101C16.325 20.1001 15.695 20.1001 15.305 19.7101Z" fill="#F8312F"/>
        </g>
      </g>
    </g>
    <g transform="translate(-330, -30)">
      <text id="ITEM_2_HEAD" text-anchor="start" font-weight="bold" font-size="27" fill="var(--primary-text)" x="0.0" y="-10.0" data-bg-id="ITEM_2_BG" fill-opacity="1.0" style="font-size: 30px; font-family: Inter, Segoe UI, Kalam, Roboto, Helvetica, Arial, sans-serif; font-weight: 700; letter-spacing:-0.4px;" data-final-font-size="30">
        <tspan x="0.0" dy="27.25px">Pulse Characteristics</tspan>
      </text>
      <rect id="ITEM_2_HEAD_FRAME" x="0" y="-10" width="846" height="38" fill="none"/>
      <text id="ITEM_2_BODY" text-anchor="start" font-size="19" fill="var(--primary-text)" x="0.0" y="20.0" data-bg-id="ITEM_2_BG" style="font-size: 26px; font-family: Inter, Segoe UI, Kalam, Roboto, Helvetica, Arial, sans-serif; font-weight: 400;" data-final-font-size="26">
        <tspan x="0.0" dy="29.62px">Records pulse repetition intervals and specific widths</tspan>
      </text>
      <rect id="ITEM_2_BODY_FRAME" x="0" y="20" width="846" height="74" fill="none"/>
    </g>
  </g>
  <g transform="translate(960.0, 525.0)">
    <rect id="ITEM_3_BG" x="-600" y="-40" width="1200" height="126" rx="24" fill="var(--accent-2)" stroke="var(--accent-3)" filter="url(#svgbe14a8eb-shadow)" stroke-width="3" fill-opacity="1.0"/>
    <g transform="translate(-480.0, 0.0)">
      <circle r="45" fill="var(--background)" opacity="0.3"/>
      <circle id="ITEM_3_PAD" cx="0" cy="0" r="38" fill="var(--icon-pad-bg)" stroke="var(--primary-text)" opacity="0.9" fill-opacity="0.9" stroke-width="2"/>
      <circle id="ITEM_3_PAD_INNER" cx="0" cy="0" r="29.64" fill="var(--accent-2)" fill-opacity="0.22"/>
      <circle cx="0" cy="0" r="30" fill="none" stroke="var(--accent-2)" stroke-width="3" stroke-dasharray="6 4"/>
      <g id="ITEM_3_ICON" transform="translate(-31, -31)" data-icon-size="62" stroke-dasharray="6 4">
        <g transform="translate(-2.6271186440677967,-2.6271186440677967) scale(2.8022598870056497)" vector-effect="non-scaling-stroke" stroke-width="2.46" stroke-linecap="round" stroke-linejoin="round" stroke-opacity="1.0">
          <rect width="14" height="8" x="5" y="2" rx="2" vector-effect="non-scaling-stroke" fill="none" stroke="#f1f5f9"/>
          <rect width="20" height="8" x="2" y="14" rx="2" vector-effect="non-scaling-stroke" fill="none" stroke="#f1f5f9"/>
          <path d="M6 18h2" vector-effect="non-scaling-stroke" fill="none" stroke="#f1f5f9"/>
          <path d="M12 18h6" vector-effect="non-scaling-stroke" fill="none" stroke="#f1f5f9"/>
        </g>
      </g>
    </g>
    <g transform="translate(-330, -30)">
      <text id="ITEM_3_HEAD" text-anchor="start" font-weight="bold" font-size="27" fill="var(--inverse-text)" x="0.0" y="-10.0" data-bg-id="ITEM_3_BG" fill-opacity="1.0" style="font-size: 30px; font-family: Inter, Segoe UI, Kalam, Roboto, Helvetica, Arial, sans-serif; font-weight: 700; letter-spacing:-0.4px;" data-final-font-size="30">
        <tspan x="0.0" dy="27.25px">Modulation Types</tspan>
      </text>
      <rect id="ITEM_3_HEAD_FRAME" x="0" y="-10" width="846" height="38" fill="none"/>
      <text id="ITEM_3_BODY" text-anchor="start" font-size="19" fill="var(--inverse-text)" x="0.0" y="20.0" data-bg-id="ITEM_3_BG" style="font-size: 26px; font-family: Inter, Segoe UI, Kalam, Roboto, Helvetica, Arial, sans-serif; font-weight: 400;" data-final-font-size="26">
        <tspan x="0.0" dy="29.62px">Identifies how data is encoded onto the carrier signal</tspan>
      </text>
      <rect id="ITEM_3_BODY_FRAME" x="0" y="20" width="846" height="74" fill="none"/>
    </g>
  </g>
  <g transform="translate(960.0, 660.0)">
    <rect id="ITEM_4_BG" x="-600" y="-40" width="1200" height="126" rx="24" fill="var(--accent-3)" stroke="var(--accent-4)" filter="url(#svgbe14a8eb-shadow)" stroke-width="3" fill-opacity="1.0"/>
    <g transform="translate(-480.0, 0.0)">
      <circle r="45" fill="var(--background)" opacity="0.3"/>
      <circle id="ITEM_4_PAD" cx="0" cy="0" r="38" fill="var(--icon-pad-bg)" stroke="var(--primary-text)" opacity="0.9" fill-opacity="0.9" stroke-width="2"/>
      <circle id="ITEM_4_PAD_INNER" cx="0" cy="0" r="29.64" fill="var(--accent-3)" fill-opacity="0.22"/>
      <circle cx="0" cy="0" r="30" fill="none" stroke="var(--accent-3)" stroke-width="3" stroke-dasharray="6 4"/>
      <g id="ITEM_4_ICON" transform="translate(-31, -31)" data-icon-size="62" stroke-dasharray="6 4">
        <g transform="translate(-5.299145299145298,-3.7094017094017095) scale(0.13247863247863248)" vector-effect="non-scaling-stroke" fill="#f1f5f9" fill-opacity="1.0" stroke="none">
          <path fill="#f1f5f9" d="M227.47 31.47c-67.048 70.547-83.972 178.936-32.907 267.467c51.07 88.544 153.333 128.083 247.906 105.22l-215-372.688zm232.81 82.155a31.1 31.1 0 0 0-14.81 4.188c-11.303 6.53-17.02 19.035-15.44 31.218l-96.31 29.25l34.842 60.345L442 169.812c9.755 7.504 23.456 8.826 34.78 2.282c14.992-8.663 20.117-27.822 11.47-42.813c-5.945-10.305-16.856-15.948-27.97-15.655zm-311.874 107.5l-26.656 4.688l10.688 60.53l-42.063 39.376l18.688 32.124l58.656-17.813l3.155 4.158L53.53 493.094h78.345l85.344-21.53l52.686 21.53h50.563l-7.064-45.78l.813-.22l-.97-.625l-4.75-30.72c-6.82-2.366-13.532-5.066-20.125-8.03l3.844 24.967l-51-33.437l18.75-6.594a241 241 0 0 1-19.033-13.125l-19.375 6.814l-39.625-26l5.813-7.375l15.156-9.658a242.3 242.3 0 0 1-24.53-35.03c-16-27.74-25.828-57.3-29.97-87.157zm21.906 153.97l29.094 19.06l-61.062 21.5l31.97-40.56zm48.72 31.967l49.343 32.344l-49.78 12.563l-58.845-24.033l59.28-20.875zm-94.813 26.532l5.718 2.312l58.125 23.75L82.75 486.22l41.47-52.626zm170.968 18.312l5.187 33.438l-52.625-21.47l45.813-11.562z" vector-effect="non-scaling-stroke" stroke="none"/>
        </g>
      </g>
    </g>
    <g transform="translate(-330, -30)">
      <text id="ITEM_4_HEAD" text-anchor="start" font-weight="bold" font-size="27" fill="var(--primary-text)" x="0.0" y="-10.0" data-bg-id="ITEM_4_BG" fill-opacity="1.0" style="font-size: 30px; font-family: Inter, Segoe UI, Kalam, Roboto, Helvetica, Arial, sans-serif; font-weight: 700; letter-spacing:-0.4px;" data-final-font-size="30">
        <tspan x="0.0" dy="27.25px">Scan Behavior</tspan>
      </text>
      <rect id="ITEM_4_HEAD_FRAME" x="0" y="-10" width="846" height="38" fill="none"/>
      <text id="ITEM_4_BODY" text-anchor="start" font-size="19" fill="var(--primary-text)" x="0.0" y="20.0" data-bg-id="ITEM_4_BG" style="font-size: 26px; font-family: Inter, Segoe UI, Kalam, Roboto, Helvetica, Arial, sans-serif; font-weight: 400;" data-final-font-size="26">
        <tspan x="0.0" dy="29.62px">Describes how the radar sweeps or tracks targets</tspan>
      </text>
      <rect id="ITEM_4_BODY_FRAME" x="0" y="20" width="846" height="74" fill="none"/>
    </g>
  </g>
  <g transform="translate(960.0, 795.0)">
    <rect id="ITEM_5_BG" x="-600" y="-40" width="1200" height="126" rx="24" fill="var(--accent-4)" stroke="var(--accent-5)" filter="url(#svgbe14a8eb-shadow)" stroke-width="3" fill-opacity="1.0"/>
    <g transform="translate(-480.0, 0.0)">
      <circle r="45" fill="var(--background)" opacity="0.3"/>
      <circle id="ITEM_5_PAD" cx="0" cy="0" r="38" fill="var(--icon-pad-bg)" stroke="var(--primary-text)" opacity="0.9" fill-opacity="0.9" stroke-width="2"/>
      <circle id="ITEM_5_PAD_INNER" cx="0" cy="0" r="29.64" fill="var(--accent-4)" fill-opacity="0.22"/>
      <circle cx="0" cy="0" r="30" fill="none" stroke="var(--accent-4)" stroke-width="3" stroke-dasharray="6 4"/>
      <g id="ITEM_5_ICON" transform="translate(-31, -31)" data-icon-size="62" stroke-dasharray="6 4">
        <g transform="translate(-2.6271186440677967,-2.6271186440677967) scale(2.8022598870056497)" vector-effect="non-scaling-stroke" stroke-width="2.46" stroke-linecap="round" stroke-linejoin="round" stroke-opacity="1.0">
          <path d="M2 12 7 2" vector-effect="non-scaling-stroke" fill="none" stroke="#f1f5f9"/>
          <path d="m7 12 5-10" vector-effect="non-scaling-stroke" fill="none" stroke="#f1f5f9"/>
          <path d="m12 12 5-10" vector-effect="non-scaling-stroke" fill="none" stroke="#f1f5f9"/>
          <path d="m17 12 5-10" vector-effect="non-scaling-stroke" fill="none" stroke="#f1f5f9"/>
          <path d="M4.5 7h15" vector-effect="non-scaling-stroke" fill="none" stroke="#f1f5f9"/>
          <path d="M12 16v6" vector-effect="non-scaling-stroke" fill="none" stroke="#f1f5f9"/>
        </g>
      </g>
    </g>
    <g transform="translate(-330, -30)">
      <text id="ITEM_5_HEAD" text-anchor="start" font-weight="bold" font-size="27" fill="var(--primary-text)" x="0.0" y="-10.0" data-bg-id="ITEM_5_BG" fill-opacity="1.0" style="font-size: 30px; font-family: Inter, Segoe UI, Kalam, Roboto, Helvetica, Arial, sans-serif; font-weight: 700; letter-spacing:-0.4px;" data-final-font-size="30">
        <tspan x="0.0" dy="27.25px">Antenna Traits</tspan>
      </text>
      <rect id="ITEM_5_HEAD_FRAME" x="0" y="-10" width="846" height="38" fill="none"/>
      <text id="ITEM_5_BODY" text-anchor="start" font-size="19" fill="var(--primary-text)" x="0.0" y="20.0" data-bg-id="ITEM_5_BG" style="font-size: 26px; font-family: Inter, Segoe UI, Kalam, Roboto, Helvetica, Arial, sans-serif; font-weight: 400;" data-final-font-size="26">
        <tspan x="0.0" dy="29.62px">Details physical characteristics of the emitting hardware</tspan>
      </text>
      <rect id="ITEM_5_BODY_FRAME" x="0" y="20" width="846" height="74" fill="none"/>
    </g>
  </g>
  <g transform="translate(960.0, 930.0)">
    <rect id="ITEM_6_BG" x="-600" y="-40" width="1200" height="126" rx="24" fill="var(--accent-5)" stroke="var(--accent-6)" filter="url(#svgbe14a8eb-shadow)" stroke-width="3" fill-opacity="1.0"/>
    <g transform="translate(-480.0, 0.0)">
      <circle r="45" fill="var(--background)" opacity="0.3"/>
      <circle id="ITEM_6_PAD" cx="0" cy="0" r="38" fill="var(--icon-pad-bg)" stroke="var(--primary-text)" opacity="0.9" fill-opacity="0.9" stroke-width="2"/>
      <circle id="ITEM_6_PAD_INNER" cx="0" cy="0" r="29.64" fill="var(--accent-5)" fill-opacity="0.22"/>
      <circle cx="0" cy="0" r="30" fill="none" stroke="var(--accent-5)" stroke-width="3" stroke-dasharray="6 4"/>
      <g id="ITEM_6_ICON" transform="translate(-31, -31)" data-icon-size="62" stroke-dasharray="6 4">
        <g transform="translate(-4.428571428571429,-4.428571428571429) scale(2.2142857142857144)">
          <path d="M2 9.00001L15.2666 6.15716C15.7501 6.05357 16.2499 6.05357 16.7334 6.15716L30 9.00001V24.8C30 27.6719 27.6719 30 24.8 30H7.2C4.32812 30 2 27.6719 2 24.8V9.00001Z" fill="#B4ACBC"/>
          <path d="M3 8.00005L15.213 5.18167C15.7309 5.06216 16.2691 5.06216 16.787 5.18167L29 8.00005V24.5001C29 26.9853 26.9853 29.0001 24.5 29.0001H7.5C5.01472 29.0001 3 26.9853 3 24.5001V8.00005Z" fill="#F3EEF8"/>
          <path d="M7.9998 12C7.88935 12 7.7998 12.0895 7.7998 12.2V14.8C7.7998 14.9105 7.88935 15 7.9998 15H10.7998C10.9103 15 10.9998 14.9105 10.9998 14.8V12.2C10.9998 12.0895 10.9103 12 10.7998 12H7.9998Z" fill="#998EA4"/>
          <path d="M7.9998 17.5C7.88935 17.5 7.7998 17.5895 7.7998 17.7V20.3C7.7998 20.4105 7.88935 20.5 7.9998 20.5H10.7998C10.9103 20.5 10.9998 20.4105 10.9998 20.3V17.7C10.9998 17.5895 10.9103 17.5 10.7998 17.5H7.9998Z" fill="#998EA4"/>
          <path d="M7.7998 23.1C7.7998 22.9896 7.88935 22.9 7.9998 22.9H10.7998C10.9103 22.9 10.9998 22.9896 10.9998 23.1V25.7C10.9998 25.8105 10.9103 25.9 10.7998 25.9H7.9998C7.88935 25.9 7.7998 25.8105 7.7998 25.7V23.1Z" fill="#998EA4"/>
          <path d="M14.5998 12C14.4893 12 14.3998 12.0895 14.3998 12.2V14.8C14.3998 14.9105 14.4893 15 14.5998 15H17.3998C17.5102 15 17.5998 14.9105 17.5998 14.8V12.2C17.5998 12.0895 17.5102 12 17.3998 12H14.5998Z" fill="#998EA4"/>
          <path d="M14.3998 17.7C14.3998 17.5895 14.4893 17.5 14.5998 17.5H17.3998C17.5102 17.5 17.5998 17.5895 17.5998 17.7V20.3C17.5998 20.4105 17.5102 20.5 17.3998 20.5H14.5998C14.4893 20.5 14.3998 20.4105 14.3998 20.3V17.7Z" fill="#998EA4"/>
          <path d="M14.5998 22.9C14.4893 22.9 14.3998 22.9896 14.3998 23.1V25.7C14.3998 25.8105 14.4893 25.9 14.5998 25.9H17.3998C17.5102 25.9 17.5998 25.8105 17.5998 25.7V23.1C17.5998 22.9896 17.5102 22.9 17.3998 22.9H14.5998Z" fill="#998EA4"/>
          <path d="M20.9998 12.2C20.9998 12.0895 21.0894 12 21.1998 12H23.9998C24.1103 12 24.1998 12.0895 24.1998 12.2V14.8C24.1998 14.9105 24.1103 15 23.9998 15H21.1998C21.0894 15 20.9998 14.9105 20.9998 14.8V12.2Z" fill="#998EA4"/>
          <path d="M21.1998 22.9C21.0894 22.9 20.9998 22.9896 20.9998 23.1V25.7C20.9998 25.8105 21.0894 25.9 21.1998 25.9H23.9998C24.1103 25.9 24.1998 25.8105 24.1998 25.7V23.1C24.1998 22.9896 24.1103 22.9 23.9998 22.9H21.1998Z" fill="#998EA4"/>
          <path d="M7.2 2C4.32812 2 2 4.32812 2 7.2V9H30V7.2C30 4.32812 27.6719 2 24.8 2H7.2Z" fill="#0084CE"/>
          <path d="M21.2 17.5C21.0895 17.5 21 17.5895 21 17.7V20.3C21 20.4105 21.0895 20.5 21.2 20.5H24C24.1105 20.5 24.2 20.4105 24.2 20.3V17.7C24.2 17.5895 24.1105 17.5 24 17.5H21.2Z" fill="#0084CE"/>
        </g>
      </g>
    </g>
    <g transform="translate(-330, -30)">
      <text id="ITEM_6_HEAD" text-anchor="start" font-weight="bold" font-size="27" fill="var(--primary-text)" x="0.0" y="-10.0" data-bg-id="ITEM_6_BG" fill-opacity="1.0" style="font-size: 30px; font-family: Inter, Segoe UI, Kalam, Roboto, Helvetica, Arial, sans-serif; font-weight: 700; letter-spacing:-0.4px;" data-final-font-size="30">
        <tspan x="0.0" dy="27.25px">Timing Relationships</tspan>
      </text>
      <rect id="ITEM_6_HEAD_FRAME" x="0" y="-10" width="846" height="38" fill="none"/>
      <text id="ITEM_6_BODY" text-anchor="start" font-size="19" fill="var(--primary-text)" x="0.0" y="20.0" data-bg-id="ITEM_6_BG" style="font-size: 26px; font-family: Inter, Segoe UI, Kalam, Roboto, Helvetica, Arial, sans-serif; font-weight: 400;" data-final-font-size="26">
        <tspan x="0.0" dy="29.62px">Analyzes temporal links between multiple signal emissions</tspan>
      </text>
      <rect id="ITEM_6_BODY_FRAME" x="0" y="20" width="846" height="74" fill="none"/>
    </g>
  </g>
</svg>
